<?xml version="1.0" encoding="UTF-8"?><svg xmlns="http://www.w3.org/2000/svg" xmlns:xlink="http://www.w3.org/1999/xlink" width="454.4" height="86.1" viewBox="0 0 454.4 86.1" overflow="visible"><defs><style type="text/css">@import url('https://fonts.googleapis.com/css2?family=STIX+Two+Math&amp;display=swap');text.math { font-family: 'STIX Two Math', 'STIX Two Text', 'Times New Roman', serif; text-rendering: geometricPrecision; shape-rendering: geometricPrecision; } text.mop { font-style: normal; font-weight: 400; } text.mit { font-style: italic; font-weight: 400; } text.mbin { font-style: normal; font-weight: 400; letter-spacing: 0.02em; } </style></defs><rect width="100%" height="100%" fill="#faf8f5"/><g fill="#111111" color="#111111"><g transform="translate(32.00,32.00)"><g transform="translate(0.00,2.30)"><g fill="#111111" color="#111111"><g transform="translate(0.000,0.000) scale(0.729167)"><rect x="14" y="4" width="4" height="2" fill="currentColor"/>
<rect x="10" y="2" width="4" height="2" fill="currentColor"/>
<rect x="6" y="8" width="4" height="2" fill="currentColor"/>
<rect x="6" y="18" width="4" height="2" fill="currentColor"/>
<rect x="10" y="10" width="4" height="2" fill="currentColor"/>
<rect x="10" y="20" width="4" height="2" fill="currentColor"/>
<rect x="14" y="8" width="4" height="2" fill="currentColor"/>
<rect x="14" y="18" width="4" height="2" fill="currentColor"/>
<rect x="6" y="4" width="4" height="2" fill="currentColor"/>
<rect x="2" y="6" width="4" height="2" fill="currentColor"/>
<rect x="2" y="16" width="4" height="2" fill="currentColor"/>
<rect x="18" y="6" width="4" height="2" fill="currentColor"/>
<rect x="18" y="16" width="4" height="2" fill="currentColor"/>
<rect x="2" y="6" width="2" height="12" fill="currentColor"/>
<rect x="20" y="6" width="2" height="12" fill="currentColor"/>
<rect x="12" y="12" width="2" height="8" fill="currentColor"/></g></g></g><g transform="translate(24.98,0.00)"><g transform="translate(2.00,0)"><text class="math mbin" x="4.42" y="11.05" text-anchor="middle" font-size="17.0" fill="#111111" stroke="none" dominant-baseline="middle">·</text></g></g><g transform="translate(43.49,0.00)"><g transform="translate(0.00,2.30)"><g fill="#111111" color="#111111"><g transform="translate(0.000,0.000) scale(0.729167)"><path d="M22 10H18V12H22V10Z" fill="currentColor"/>
<path d="M24 12H22V18H24V12Z" fill="currentColor"/>
<path d="M22 18H2V20H22V18Z" fill="currentColor"/>
<path d="M2 12H0V18H2V12Z" fill="currentColor"/>
<path d="M4 10H2V12H4V10Z" fill="currentColor"/>
<path d="M8 8H4V10H8V8Z" fill="currentColor"/>
<path d="M16 4H10V6H16V4Z" fill="currentColor"/>
<path d="M10 6H8V8H10V6Z" fill="currentColor"/>
<path d="M10 10H8V12H10V10Z" fill="currentColor"/>
<path d="M18 6H16V8H18V6Z" fill="currentColor"/>
<path d="M20 8H18V12H20V8Z" fill="currentColor"/>
<path d="M18 12H16V14H18V12Z" fill="currentColor"/></g></g></g><g transform="translate(23.61,0.00)"><text class="math mbin" x="0.00" y="11.05" text-anchor="start" font-size="17.0" fill="#111111" stroke="none" dominant-baseline="middle">+</text></g><g transform="translate(40.45,0.00)"><g transform="translate(0.00,2.30)"><g fill="#111111" color="#111111"><g transform="translate(0.000,0.000) scale(0.729167)"><g clip-path="url(#clip0_496_562)">
<path d="M22 6H18V8H22V6Z" fill="currentColor"/>
<path d="M24 8H22V14H24V8Z" fill="currentColor"/>
<path d="M22 14H20V16H22V14Z" fill="currentColor"/>
<path d="M10 14H2V16H10V14Z" fill="currentColor"/>
<path d="M2 8H0V14H2V8Z" fill="currentColor"/>
<path d="M4 6H2V8H4V6Z" fill="currentColor"/>
<path d="M8 4H4V6H8V4Z" fill="currentColor"/>
<path d="M16 0H10V2H16V0Z" fill="currentColor"/>
<path d="M10 2H8V4H10V2Z" fill="currentColor"/>
<path d="M10 6H8V8H10V6Z" fill="currentColor"/>
<path d="M18 2H16V4H18V2Z" fill="currentColor"/>
<path d="M20 4H18V8H20V4Z" fill="currentColor"/>
<path d="M18 8H16V10H18V8Z" fill="currentColor"/>
<rect x="14" y="14" width="2" height="2" fill="currentColor"/>
<rect x="6" y="18" width="2" height="2" fill="currentColor"/>
<rect x="12" y="16" width="2" height="2" fill="currentColor"/>
<rect x="4" y="20" width="2" height="2" fill="currentColor"/>
<rect x="14" y="18" width="2" height="2" fill="currentColor"/>
<rect x="6" y="22" width="2" height="2" fill="currentColor"/>
<rect x="16" y="16" width="2" height="2" fill="currentColor"/>
<rect x="8" y="20" width="2" height="2" fill="currentColor"/>
<rect x="18" y="21" width="2" height="2" fill="currentColor"/>
<rect y="18" width="2" height="2" fill="currentColor"/>
<rect x="22" y="18" width="2" height="2" fill="currentColor"/>
</g>
<defs>
<clipPath id="clip0_496_562">
<rect width="24" height="24" fill="white"/>
</clipPath>
</defs></g></g></g><g transform="translate(24.98,0.00)"><g transform="translate(2.00,0)"><text class="math mbin" x="4.42" y="11.05" text-anchor="middle" font-size="17.0" fill="#111111" stroke="none" dominant-baseline="middle">·</text></g></g><g transform="translate(43.49,2.30)"><g fill="#111111" color="#111111"><g transform="translate(0.000,0.000) scale(0.729167)"><rect x="9" y="2" width="2" height="4" fill="currentColor"/>
<rect x="7" y="6" width="2" height="2" fill="currentColor"/>
<rect x="5" y="8" width="2" height="2" fill="currentColor"/>
<rect x="13" y="10" width="2" height="2" fill="currentColor"/>
<rect x="15" y="8" width="2" height="2" fill="currentColor"/>
<rect x="17" y="10" width="2" height="2" fill="currentColor"/>
<rect x="19" y="12" width="2" height="6" fill="currentColor"/>
<rect x="3" y="10" width="2" height="8" fill="currentColor"/>
<rect x="11" y="6" width="2" height="4" fill="currentColor"/>
<rect x="17" y="18" width="2" height="2" fill="currentColor"/>
<rect x="7" y="20" width="10" height="2" fill="currentColor"/>
<rect x="5" y="18" width="2" height="2" fill="currentColor"/>
<rect x="9" y="16" width="6" height="4" fill="currentColor"/>
<rect x="11" y="14" width="2" height="3" fill="currentColor"/></g></g></g></g><g transform="translate(107.55,0.00)"><text class="math mbin" x="0.00" y="11.05" text-anchor="start" font-size="17.0" fill="#111111" stroke="none" dominant-baseline="middle">+</text></g><g transform="translate(124.39,2.30)"><g fill="#111111" color="#111111"><g transform="translate(0.000,0.000) scale(0.729167)"><rect width="4" height="2" transform="matrix(1 0 0 -1 2 18)" fill="currentColor"/>
<rect width="4" height="2" transform="matrix(1 0 0 -1 2 12)" fill="currentColor"/>
<rect width="4" height="2" transform="matrix(1 0 0 -1 2 6)" fill="currentColor"/>
<rect width="4" height="2" transform="matrix(1 0 0 -1 6 20)" fill="currentColor"/>
<rect width="4" height="2" transform="matrix(1 0 0 -1 6 14)" fill="currentColor"/>
<rect width="4" height="2" transform="matrix(1 0 0 -1 6 8)" fill="currentColor"/>
<rect width="4" height="2" transform="matrix(1 0 0 -1 10 18)" fill="currentColor"/>
<rect width="4" height="2" transform="matrix(1 0 0 -1 10 12)" fill="currentColor"/>
<rect width="4" height="2" transform="matrix(1 0 0 -1 10 6)" fill="currentColor"/>
<rect width="4" height="2" transform="matrix(1 0 0 -1 14 20)" fill="currentColor"/>
<rect width="4" height="2" transform="matrix(1 0 0 -1 14 14)" fill="currentColor"/>
<rect width="4" height="2" transform="matrix(1 0 0 -1 14 8)" fill="currentColor"/>
<rect width="4" height="2" transform="matrix(1 0 0 -1 18 18)" fill="currentColor"/>
<rect width="4" height="2" transform="matrix(1 0 0 -1 18 12)" fill="currentColor"/>
<rect width="4" height="2" transform="matrix(1 0 0 -1 18 6)" fill="currentColor"/></g></g></g></g><g transform="translate(194.65,0.00)"><text class="math mbin" x="3.57" y="11.05" text-anchor="middle" font-size="17.0" fill="#111111" stroke="none" dominant-baseline="middle">=</text></g><g transform="translate(211.06,0.00)"><g transform="translate(0.00,2.30)"><g fill="#111111" color="#111111"><g transform="translate(0.000,0.000) scale(0.729167)"><rect width="4" height="2" transform="matrix(1 0 0 -1 2 18)" fill="currentColor"/>
<rect width="4" height="2" transform="matrix(1 0 0 -1 2 12)" fill="currentColor"/>
<rect width="4" height="2" transform="matrix(1 0 0 -1 2 6)" fill="currentColor"/>
<rect width="4" height="2" transform="matrix(1 0 0 -1 6 20)" fill="currentColor"/>
<rect width="4" height="2" transform="matrix(1 0 0 -1 6 14)" fill="currentColor"/>
<rect width="4" height="2" transform="matrix(1 0 0 -1 6 8)" fill="currentColor"/>
<rect width="4" height="2" transform="matrix(1 0 0 -1 10 18)" fill="currentColor"/>
<rect width="4" height="2" transform="matrix(1 0 0 -1 10 12)" fill="currentColor"/>
<rect width="4" height="2" transform="matrix(1 0 0 -1 10 6)" fill="currentColor"/>
<rect width="4" height="2" transform="matrix(1 0 0 -1 14 20)" fill="currentColor"/>
<rect width="4" height="2" transform="matrix(1 0 0 -1 14 14)" fill="currentColor"/>
<rect width="4" height="2" transform="matrix(1 0 0 -1 14 8)" fill="currentColor"/>
<rect width="4" height="2" transform="matrix(1 0 0 -1 18 18)" fill="currentColor"/>
<rect width="4" height="2" transform="matrix(1 0 0 -1 18 12)" fill="currentColor"/>
<rect width="4" height="2" transform="matrix(1 0 0 -1 18 6)" fill="currentColor"/></g></g></g><g transform="translate(23.61,0.00)"><text class="math mbin" x="0.00" y="11.05" text-anchor="start" font-size="17.0" fill="#111111" stroke="none" dominant-baseline="middle">+</text></g><g transform="translate(40.45,0.00)"><g transform="translate(0.00,2.30)"><g fill="#111111" color="#111111"><g transform="translate(0.000,0.000) scale(0.729167)"><rect x="5" y="6" width="14" height="2" fill="currentColor"/>
<rect x="3" y="8" width="2" height="12" fill="currentColor"/>
<rect x="5" y="20" width="14" height="2" fill="currentColor"/>
<rect x="19" y="8" width="2" height="12" fill="currentColor"/>
<rect x="7" y="16" width="2" height="6" fill="currentColor"/>
<rect x="15" y="16" width="2" height="6" fill="currentColor"/>
<rect x="9" y="14" width="6" height="2" fill="currentColor"/>
<rect x="7" y="10" width="10" height="2" fill="currentColor"/>
<rect x="8" y="4" width="2" height="2" fill="currentColor"/>
<rect x="14" y="4" width="2" height="2" fill="currentColor"/>
<rect x="10" y="2" width="4" height="2" fill="currentColor"/></g></g></g><g transform="translate(23.61,0.00)"><text class="math mbin" x="0.00" y="11.05" text-anchor="start" font-size="17.0" fill="#111111" stroke="none" dominant-baseline="middle">−</text></g><g transform="translate(40.45,2.30)"><g fill="#111111" color="#111111"><g transform="translate(0.000,0.000) scale(0.729167)"><rect x="2" y="18" width="7" height="2" fill="currentColor"/>
<rect x="16" y="18" width="6" height="2" fill="currentColor"/>
<rect x="4" y="6" width="2" height="12" fill="currentColor"/>
<rect x="6" y="4" width="3" height="2" fill="currentColor"/>
<rect x="17" y="6" width="2" height="12" fill="currentColor"/>
<rect x="9" y="2" width="2" height="20" fill="currentColor"/>
<rect x="11" y="20" width="4" height="2" fill="currentColor"/>
<rect x="15" y="18" width="4" height="2" fill="currentColor"/>
<rect x="15" y="4" width="4" height="2" fill="currentColor"/>
<rect x="11" y="2" width="4" height="2" fill="currentColor"/>
<rect x="12" y="10" width="2" height="2" fill="currentColor"/></g></g></g></g><g transform="translate(104.51,0.00)"><text class="math mbin" x="0.00" y="11.05" text-anchor="start" font-size="17.0" fill="#111111" stroke="none" dominant-baseline="middle">+</text></g><g transform="translate(121.35,0.00)"><g transform="translate(0.00,2.30)"><g fill="#111111" color="#111111"><g transform="translate(0.000,0.000) scale(0.729167)"><rect x="2" y="20" width="2" height="2" fill="currentColor"/>
<rect x="2" y="18" width="2" height="2" fill="currentColor"/>
<rect x="4" y="14" width="2" height="4" fill="currentColor"/>
<rect x="6" y="10" width="2" height="4" fill="currentColor"/>
<rect x="4" y="20" width="2" height="2" fill="currentColor"/>
<rect x="6" y="18" width="4" height="2" fill="currentColor"/>
<rect x="10" y="16" width="4" height="2" fill="currentColor"/>
<rect x="8" y="8" width="2" height="2" fill="currentColor"/>
<rect x="10" y="8" width="2" height="2" fill="currentColor"/>
<rect x="12" y="10" width="2" height="2" fill="currentColor"/>
<rect x="14" y="12" width="2" height="4" fill="currentColor"/>
<rect x="8" y="14" width="2" height="2" fill="currentColor"/>
<rect x="3" y="6" width="2" height="2" fill="currentColor"/>
<rect x="10" y="4" width="2" height="2" fill="currentColor"/>
<rect x="8" y="2" width="2" height="2" fill="currentColor"/>
<rect x="15" y="2" width="2" height="2" fill="currentColor"/>
<rect x="18" y="12" width="2" height="2" fill="currentColor"/>
<rect x="20" y="14" width="2" height="2" fill="currentColor"/>
<rect x="16" y="7" width="4" height="2" fill="currentColor"/>
<rect x="18" y="19" width="2" height="2" fill="currentColor"/>
<rect x="20" y="5" width="2" height="2" fill="currentColor"/></g></g></g><g transform="translate(23.61,0.00)"><text class="math mbin" x="0.00" y="11.05" text-anchor="start" font-size="17.0" fill="#111111" stroke="none" dominant-baseline="middle">+</text></g><g transform="translate(40.45,2.30)"><g fill="#111111" color="#111111"><g transform="translate(0.000,0.000) scale(0.729167)"><rect x="10" y="7" width="8" height="2" fill="currentColor"/>
<rect x="18" y="9" width="2" height="2" fill="currentColor"/>
<rect x="20" y="11" width="2" height="2" fill="currentColor"/>
<rect x="18" y="13" width="2" height="2" fill="currentColor"/>
<rect x="10" y="15" width="8" height="2" fill="currentColor"/>
<rect x="2" y="7" width="2" height="10" fill="currentColor"/>
<rect x="4" y="9" width="2" height="2" fill="currentColor"/>
<rect x="4" y="13" width="2" height="2" fill="currentColor"/>
<rect x="6" y="11" width="2" height="2" fill="currentColor"/>
<rect x="8" y="9" width="2" height="2" fill="currentColor"/>
<rect x="8" y="13" width="2" height="2" fill="currentColor"/>
<rect x="14" y="11" width="2" height="2" fill="currentColor"/></g></g></g></g></g></g></g></svg>