<?xml version="1.0" encoding="UTF-8"?><svg xmlns="http://www.w3.org/2000/svg" xmlns:xlink="http://www.w3.org/1999/xlink" width="220.9" height="157.3" viewBox="0 0 220.9 157.3" overflow="visible"><defs><style type="text/css">@import url('https://fonts.googleapis.com/css2?family=STIX+Two+Math&amp;display=swap');text.math { font-family: 'STIX Two Math', 'STIX Two Text', 'Times New Roman', serif; text-rendering: geometricPrecision; shape-rendering: geometricPrecision; } text.mop { font-style: normal; font-weight: 400; } text.mit { font-style: italic; font-weight: 400; } text.mbin { font-style: normal; font-weight: 400; letter-spacing: 0.02em; } </style></defs><rect width="100%" height="100%" fill="#faf8f5"/><g fill="#111111" color="#111111"><g transform="translate(32.00,32.00)"><g><g transform="translate(20.23,0.00)"><g><g transform="translate(9.00,0.00)"><g transform="translate(0.00,2.30)"><g fill="#111111" color="#111111"><g transform="translate(0.000,0.000) scale(0.729167)"><rect x="7" y="2" width="10" height="2" fill="currentColor"/>
<rect x="5" y="4" width="2" height="10" fill="currentColor"/>
<rect x="17" y="2" width="2" height="12" fill="currentColor"/>
<rect x="13" y="2" width="2" height="6" fill="currentColor"/>
<rect x="9" y="2" width="2" height="4" fill="currentColor"/>
<rect x="5" y="10" width="14" height="2" fill="currentColor"/>
<rect x="7" y="14" width="10" height="2" fill="currentColor"/>
<rect x="9" y="16" width="2" height="4" fill="currentColor"/>
<rect x="13" y="16" width="2" height="4" fill="currentColor"/>
<rect x="9" y="20" width="6" height="2" fill="currentColor"/></g></g></g><g transform="translate(23.61,0.00)"><text class="math mbin" x="0.00" y="11.05" text-anchor="start" font-size="17.0" fill="#111111" stroke="none" dominant-baseline="middle">+</text></g><g transform="translate(40.45,2.30)"><g fill="#111111" color="#111111"><g transform="translate(0.000,0.000) scale(0.729167)"><rect x="10" y="2" width="4" height="2" fill="currentColor"/>
<rect x="10" y="8" width="4" height="2" fill="currentColor"/>
<rect x="8" y="4" width="2" height="4" fill="currentColor"/>
<rect x="14" y="4" width="2" height="4" fill="currentColor"/>
<rect x="11" y="9" width="2" height="12" fill="currentColor"/>
<rect x="5" y="20" width="14" height="2" fill="currentColor"/>
<rect x="3" y="12" width="2" height="8" fill="currentColor"/>
<rect x="19" y="12" width="2" height="8" fill="currentColor"/>
<rect x="5" y="12" width="2" height="2" fill="currentColor"/>
<rect x="17" y="12" width="2" height="2" fill="currentColor"/></g></g></g></g><line x1="0" y1="28.10" x2="75.95" y2="28.10" stroke="#111111" stroke-width="1.50"/><g transform="translate(9.00,35.60)"><g transform="translate(0.00,2.30)"><g fill="#111111" color="#111111"><g transform="translate(0.000,0.000) scale(0.729167)"><rect x="2" y="10" width="2" height="2" fill="currentColor"/>
<rect x="4" y="8" width="2" height="2" fill="currentColor"/>
<rect x="6" y="6" width="2" height="2" fill="currentColor"/>
<rect x="8" y="4" width="2" height="2" fill="currentColor"/>
<rect x="14" y="4" width="2" height="2" fill="currentColor"/>
<rect x="16" y="6" width="2" height="2" fill="currentColor"/>
<rect x="18" y="8" width="2" height="2" fill="currentColor"/>
<rect x="20" y="10" width="2" height="2" fill="currentColor"/>
<rect x="10" y="2" width="4" height="2" fill="currentColor"/>
<rect x="4" y="12" width="2" height="8" fill="currentColor"/>
<rect x="6" y="20" width="3" height="2" fill="currentColor"/>
<rect x="9" y="16" width="2" height="6" fill="currentColor"/>
<rect x="9" y="14" width="6" height="2" fill="currentColor"/>
<rect x="13" y="16" width="2" height="6" fill="currentColor"/>
<rect x="15" y="20" width="3" height="2" fill="currentColor"/>
<rect x="18" y="12" width="2" height="8" fill="currentColor"/></g></g></g><g transform="translate(23.61,0.00)"><text class="math mbin" x="0.00" y="11.05" text-anchor="start" font-size="17.0" fill="#111111" stroke="none" dominant-baseline="middle">+</text></g><g transform="translate(40.45,2.30)"><g fill="#111111" color="#111111"><g transform="translate(0.000,0.000) scale(0.729167)"><rect x="20" y="9" width="2" height="6" fill="currentColor"/>
<rect x="18" y="7" width="2" height="2" fill="currentColor"/>
<rect x="18" y="15" width="2" height="2" fill="currentColor"/>
<rect x="12" y="17" width="6" height="2" fill="currentColor"/>
<rect x="12" y="5" width="6" height="2" fill="currentColor"/>
<rect x="2" y="7" width="2" height="10" fill="currentColor"/>
<rect x="4" y="9" width="2" height="2" fill="currentColor"/>
<rect x="4" y="13" width="2" height="2" fill="currentColor"/>
<rect x="6" y="11" width="2" height="2" fill="currentColor"/>
<rect x="8" y="9" width="2" height="2" fill="currentColor"/>
<rect x="8" y="13" width="2" height="2" fill="currentColor"/>
<rect x="10" y="15" width="2" height="2" fill="currentColor"/>
<rect x="10" y="7" width="2" height="2" fill="currentColor"/>
<rect x="15" y="10" width="2" height="2" fill="currentColor"/></g></g></g></g></g><g transform="translate(82.06,17.80)"><text class="math mbin" x="0.00" y="11.05" text-anchor="start" font-size="17.0" fill="#111111" stroke="none" dominant-baseline="middle">+</text></g><g transform="translate(98.90,20.10)"><g fill="#111111" color="#111111"><g transform="translate(0.000,0.000) scale(0.729167)"><path d="M22 10H18V12H22V10Z" fill="currentColor"/>
<path d="M24 12H22V18H24V12Z" fill="currentColor"/>
<path d="M22 18H2V20H22V18Z" fill="currentColor"/>
<path d="M2 12H0V18H2V12Z" fill="currentColor"/>
<path d="M4 10H2V12H4V10Z" fill="currentColor"/>
<path d="M8 8H4V10H8V8Z" fill="currentColor"/>
<path d="M16 4H10V6H16V4Z" fill="currentColor"/>
<path d="M10 6H8V8H10V6Z" fill="currentColor"/>
<path d="M10 10H8V12H10V10Z" fill="currentColor"/>
<path d="M18 6H16V8H18V6Z" fill="currentColor"/>
<path d="M20 8H18V12H20V8Z" fill="currentColor"/>
<path d="M18 12H16V14H18V12Z" fill="currentColor"/></g></g></g></g><line x1="0" y1="63.70" x2="156.85" y2="63.70" stroke="#111111" stroke-width="1.50"/><g transform="translate(9.00,71.20)"><g transform="translate(0.00,2.30)"><g fill="#111111" color="#111111"><g transform="translate(0.000,0.000) scale(0.729167)"><rect x="11" y="8" width="3" height="2" fill="currentColor"/>
<rect x="14" y="6" width="4" height="2" fill="currentColor"/>
<rect x="18" y="8" width="2" height="3" fill="currentColor"/>
<rect x="16" y="11" width="2" height="4" fill="currentColor"/>
<rect x="18" y="15" width="2" height="5" fill="currentColor"/>
<rect x="14" y="20" width="4" height="2" fill="currentColor"/>
<rect x="11" y="18" width="3" height="2" fill="currentColor"/>
<rect x="7" y="20" width="4" height="2" fill="currentColor"/>
<rect x="5" y="18" width="2" height="2" fill="currentColor"/>
<rect x="3" y="10" width="2" height="8" fill="currentColor"/>
<rect x="5" y="8" width="2" height="2" fill="currentColor"/>
<rect x="7" y="6" width="4" height="2" fill="currentColor"/>
<rect x="12" y="3" width="2" height="2" fill="currentColor"/>
<rect x="14" y="1" width="2" height="2" fill="currentColor"/></g></g></g><g transform="translate(23.61,0.00)"><text class="math mbin" x="0.00" y="11.05" text-anchor="start" font-size="17.0" fill="#111111" stroke="none" dominant-baseline="middle">−</text></g><g transform="translate(40.45,0.00)"><g transform="translate(0.00,2.30)"><g fill="#111111" color="#111111"><g transform="translate(0.000,0.000) scale(0.729167)"><rect x="2" y="10" width="2" height="2" fill="currentColor"/>
<rect x="4" y="8" width="2" height="2" fill="currentColor"/>
<rect x="6" y="6" width="2" height="2" fill="currentColor"/>
<rect x="8" y="4" width="2" height="2" fill="currentColor"/>
<rect x="14" y="4" width="2" height="2" fill="currentColor"/>
<rect x="16" y="6" width="2" height="2" fill="currentColor"/>
<rect x="18" y="8" width="2" height="2" fill="currentColor"/>
<rect x="20" y="10" width="2" height="2" fill="currentColor"/>
<rect x="10" y="2" width="4" height="2" fill="currentColor"/>
<rect x="4" y="12" width="2" height="8" fill="currentColor"/>
<rect x="6" y="20" width="3" height="2" fill="currentColor"/>
<rect x="9" y="16" width="2" height="6" fill="currentColor"/>
<rect x="9" y="14" width="6" height="2" fill="currentColor"/>
<rect x="13" y="16" width="2" height="6" fill="currentColor"/>
<rect x="15" y="20" width="3" height="2" fill="currentColor"/>
<rect x="18" y="12" width="2" height="8" fill="currentColor"/></g></g></g><g transform="translate(23.61,0.00)"><text class="math mbin" x="0.00" y="11.05" text-anchor="start" font-size="17.0" fill="#111111" stroke="none" dominant-baseline="middle">−</text></g><g transform="translate(40.45,0.00)"><g transform="translate(0.00,2.30)"><g fill="#111111" color="#111111"><g transform="translate(0.000,0.000) scale(0.729167)"><rect x="4" y="2" width="2" height="20" fill="currentColor"/>
<rect x="4" y="4" width="8" height="2" fill="currentColor"/>
<rect x="12" y="6" width="8" height="2" fill="currentColor"/>
<rect x="4" y="12" width="8" height="2" fill="currentColor"/>
<rect x="12" y="14" width="8" height="2" fill="currentColor"/>
<rect x="18" y="8" width="2" height="2" fill="currentColor"/>
<rect x="16" y="10" width="2" height="2" fill="currentColor"/>
<rect x="18" y="12" width="2" height="2" fill="currentColor"/>
<rect x="10" y="4" width="2" height="10" fill="currentColor"/></g></g></g><g transform="translate(23.61,0.00)"><text class="math mbin" x="0.00" y="11.05" text-anchor="start" font-size="17.0" fill="#111111" stroke="none" dominant-baseline="middle">+</text></g><g transform="translate(40.45,2.30)"><g fill="#111111" color="#111111"><g transform="translate(0.000,0.000) scale(0.729167)"><path d="M14 22H4V20H14V22ZM4 20H2V16H4V20ZM16 20H14V16H16V20ZM10 18H8V16H10V18ZM8 16H4V14H8V16ZM14 16H12V14H14V16ZM12 14H8V12H12V14ZM24 13H20V11H24V13ZM18 12H16V10H18V12ZM8 10H6V8H8V10ZM16 10H14V8H16V10ZM14 8H8V6H14V8ZM6 6H4V4H6V6ZM20 6H18V4H20V6ZM4 4H2V2H4V4ZM13 4H11V0H13V4ZM22 4H20V2H22V4Z" fill="currentColor"/></g></g></g></g></g></g></g></g></g></svg>