<?xml version="1.0" encoding="UTF-8"?><svg xmlns="http://www.w3.org/2000/svg" xmlns:xlink="http://www.w3.org/1999/xlink" width="261.0" height="157.3" viewBox="0 0 261.0 157.3" overflow="visible"><defs><style type="text/css">@import url('https://fonts.googleapis.com/css2?family=STIX+Two+Math&amp;display=swap');text.math { font-family: 'STIX Two Math', 'STIX Two Text', 'Times New Roman', serif; text-rendering: geometricPrecision; shape-rendering: geometricPrecision; } text.mop { font-style: normal; font-weight: 400; } text.mit { font-style: italic; font-weight: 400; } text.mbin { font-style: normal; font-weight: 400; letter-spacing: 0.02em; } </style></defs><rect width="100%" height="100%" fill="#faf8f5"/><g fill="#111111" color="#111111"><g transform="translate(32.00,32.00)"><g><g transform="translate(40.32,0.00)"><g><g transform="translate(9.04,0.00)"><g transform="translate(0.00,2.30)"><g fill="#111111" color="#111111"><g transform="translate(0.000,0.000) scale(0.729167)"><rect x="9" y="1" width="6" height="2" fill="currentColor"/>
<rect x="9" y="3" width="2" height="4" fill="currentColor"/>
<rect x="13" y="3" width="2" height="4" fill="currentColor"/>
<rect x="7" y="7" width="2" height="2" fill="currentColor"/>
<rect x="15" y="7" width="2" height="2" fill="currentColor"/>
<rect x="17" y="9" width="2" height="12" fill="currentColor"/>
<rect x="5" y="9" width="2" height="12" fill="currentColor"/>
<rect x="7" y="21" width="10" height="2" fill="currentColor"/>
<rect x="13" y="12" width="4" height="2" fill="currentColor"/>
<rect x="11" y="12" width="2" height="6" fill="currentColor"/>
<rect x="13" y="16" width="4" height="2" fill="currentColor"/></g></g></g><g transform="translate(22.92,0.00)"><text class="math mbin" x="4.42" y="11.05" text-anchor="middle" font-size="17.0" fill="#111111" stroke="none" dominant-baseline="middle">·</text></g><g transform="translate(40.37,2.30)"><g fill="#111111" color="#111111"><g transform="translate(0.000,0.000) scale(0.729167)"><rect x="9" y="1" width="6" height="2" fill="currentColor"/>
<rect x="9" y="3" width="2" height="4" fill="currentColor"/>
<rect x="13" y="3" width="2" height="4" fill="currentColor"/>
<rect x="7" y="7" width="2" height="2" fill="currentColor"/>
<rect x="15" y="7" width="2" height="2" fill="currentColor"/>
<rect x="17" y="9" width="2" height="12" fill="currentColor"/>
<rect x="5" y="9" width="2" height="12" fill="currentColor"/>
<rect x="7" y="21" width="10" height="2" fill="currentColor"/>
<rect x="8" y="12" width="8" height="2" fill="currentColor"/>
<rect x="8" y="16" width="8" height="2" fill="currentColor"/>
<rect x="8" y="12" width="2" height="6" fill="currentColor"/>
<rect x="14" y="12" width="2" height="6" fill="currentColor"/></g></g></g></g><line x1="0" y1="28.10" x2="75.95" y2="28.10" stroke="#111111" stroke-width="1.50"/><g transform="translate(9.00,35.60)"><g transform="translate(0.00,2.30)"><g fill="#111111" color="#111111"><g transform="translate(0.000,0.000) scale(0.729167)"><path d="M14 22H4V20H14V22ZM4 20H2V16H4V20ZM16 20H14V16H16V20ZM10 18H8V16H10V18ZM8 16H4V14H8V16ZM14 16H12V14H14V16ZM12 14H8V12H12V14ZM24 13H20V11H24V13ZM18 12H16V10H18V12ZM8 10H6V8H8V10ZM16 10H14V8H16V10ZM14 8H8V6H14V8ZM6 6H4V4H6V6ZM20 6H18V4H20V6ZM4 4H2V2H4V4ZM13 4H11V0H13V4ZM22 4H20V2H22V4Z" fill="currentColor"/></g></g></g><g transform="translate(23.61,0.00)"><text class="math mbin" x="0.00" y="11.05" text-anchor="start" font-size="17.0" fill="#111111" stroke="none" dominant-baseline="middle">−</text></g><g transform="translate(40.45,2.30)"><g fill="#111111" color="#111111"><g transform="translate(0.000,0.000) scale(0.729167)"><rect x="9" y="1" width="6" height="2" fill="currentColor"/>
<rect x="9" y="3" width="2" height="4" fill="currentColor"/>
<rect x="13" y="3" width="2" height="4" fill="currentColor"/>
<rect x="7" y="7" width="2" height="2" fill="currentColor"/>
<rect x="15" y="7" width="2" height="2" fill="currentColor"/>
<rect x="17" y="9" width="2" height="12" fill="currentColor"/>
<rect x="5" y="9" width="2" height="12" fill="currentColor"/>
<rect x="7" y="21" width="10" height="2" fill="currentColor"/></g></g></g></g></g></g><line x1="0" y1="63.70" x2="156.59" y2="63.70" stroke="#111111" stroke-width="1.50"/><g transform="translate(9.00,71.20)"><g transform="translate(0.00,2.30)"><g fill="#111111" color="#111111"><g transform="translate(0.000,0.000) scale(0.729167)"><rect width="12" height="2" transform="matrix(-1 0 0 1 20 2)" fill="currentColor"/>
<rect width="8" height="2" transform="matrix(-1 0 0 1 18 6)" fill="currentColor"/>
<rect width="4" height="2" transform="matrix(-1 0 0 1 14 10)" fill="currentColor"/>
<rect width="12" height="2" transform="matrix(-1 0 0 1 20 16)" fill="currentColor"/>
<rect width="12" height="2" transform="matrix(-1 0 0 1 16 20)" fill="currentColor"/>
<rect width="2" height="12" transform="matrix(-1 0 0 1 22 4)" fill="currentColor"/>
<rect width="2" height="12" transform="matrix(-1 0 0 1 8 4)" fill="currentColor"/>
<rect width="2" height="12" transform="matrix(-1 0 0 1 4 8)" fill="currentColor"/>
<rect width="2" height="2" transform="matrix(-1 0 0 1 6 6)" fill="currentColor"/>
<rect width="2" height="2" transform="matrix(-1 0 0 1 18 18)" fill="currentColor"/></g></g></g><g transform="translate(22.92,0.00)"><text class="math mbin" x="4.42" y="11.05" text-anchor="middle" font-size="17.0" fill="#111111" stroke="none" dominant-baseline="middle">·</text></g><g transform="translate(40.37,2.30)"><g fill="#111111" color="#111111"><g transform="translate(0.000,0.000) scale(0.729167)"><rect x="5" y="3" width="14" height="2" fill="currentColor"/>
<rect x="3" y="5" width="2" height="3" fill="currentColor"/>
<rect x="1" y="8" width="6" height="2" fill="currentColor"/>
<rect x="1" y="10" width="2" height="7" fill="currentColor"/>
<rect x="3" y="17" width="18" height="2" fill="currentColor"/>
<rect x="21" y="10" width="2" height="7" fill="currentColor"/>
<rect x="17" y="8" width="6" height="2" fill="currentColor"/>
<rect x="17" y="10" width="2" height="2" fill="currentColor"/>
<rect x="7" y="12" width="10" height="2" fill="currentColor"/>
<rect x="5" y="10" width="2" height="2" fill="currentColor"/>
<rect x="11" y="5" width="2" height="7" fill="currentColor"/>
<rect x="19" y="5" width="2" height="3" fill="currentColor"/>
<rect x="19" y="19" width="2" height="2" fill="currentColor"/>
<rect x="3" y="19" width="2" height="2" fill="currentColor"/></g></g></g><g transform="translate(63.29,0.00)"><text class="math mbin" x="4.42" y="11.05" text-anchor="middle" font-size="17.0" fill="#111111" stroke="none" dominant-baseline="middle">·</text></g><g transform="translate(80.73,0.00)"><g transform="translate(0.00,2.30)"><g fill="#111111" color="#111111"><g transform="translate(0.000,0.000) scale(0.729167)"><rect x="1" y="20" width="22" height="2" fill="currentColor"/>
<rect x="3" y="12" width="2" height="8" fill="currentColor"/>
<rect x="5" y="10" width="14" height="2" fill="currentColor"/>
<rect x="19" y="12" width="2" height="8" fill="currentColor"/>
<rect x="11" y="7" width="2" height="3" fill="currentColor"/>
<rect x="7" y="7" width="2" height="3" fill="currentColor"/>
<rect x="15" y="7" width="2" height="3" fill="currentColor"/>
<rect x="7" y="3" width="2" height="2" fill="currentColor"/>
<rect x="11" y="3" width="2" height="2" fill="currentColor"/>
<rect x="15" y="3" width="2" height="2" fill="currentColor"/>
<rect x="5" y="14" width="2" height="2" fill="currentColor"/>
<rect x="7" y="16" width="4" height="2" fill="currentColor"/>
<rect x="11" y="14" width="6" height="2" fill="currentColor"/>
<rect x="17" y="16" width="2" height="2" fill="currentColor"/></g></g></g><g transform="translate(22.92,0.00)"><text class="math mbin" x="4.42" y="11.05" text-anchor="middle" font-size="17.0" fill="#111111" stroke="none" dominant-baseline="middle">·</text></g><g transform="translate(40.37,2.30)"><g fill="#111111" color="#111111"><g transform="translate(0.000,0.000) scale(0.729167)"><rect x="2" y="6" width="20" height="2" fill="currentColor"/>
<rect x="2" y="8" width="2" height="6" fill="currentColor"/>
<rect x="7" y="8" width="2" height="6" fill="currentColor"/>
<rect x="4" y="14" width="2" height="6" fill="currentColor"/>
<rect x="9" y="14" width="2" height="6" fill="currentColor"/>
<rect x="20" y="8" width="2" height="6" fill="currentColor"/>
<rect x="15" y="8" width="2" height="6" fill="currentColor"/>
<rect x="18" y="14" width="2" height="6" fill="currentColor"/>
<rect x="13" y="14" width="2" height="6" fill="currentColor"/>
<rect x="6" y="20" width="12" height="2" fill="currentColor"/>
<rect x="4" y="4" width="2" height="2" fill="currentColor"/>
<rect x="9" y="4" width="2" height="2" fill="currentColor"/>
<rect x="13" y="4" width="2" height="2" fill="currentColor"/>
<rect x="18" y="4" width="2" height="2" fill="currentColor"/>
<rect x="6" y="2" width="3" height="2" fill="currentColor"/>
<rect x="11" y="2" width="2" height="2" fill="currentColor"/>
<rect x="15" y="2" width="3" height="2" fill="currentColor"/></g></g></g></g></g></g><g transform="translate(162.71,35.60)"><text class="math mbin" x="0.00" y="11.05" text-anchor="start" font-size="17.0" fill="#111111" stroke="none" dominant-baseline="middle">+</text></g><g transform="translate(179.54,37.90)"><g fill="#111111" color="#111111"><g transform="translate(0.000,0.000) scale(0.729167)"><rect x="4" y="2" width="4" height="2" fill="currentColor"/>
<rect width="4" height="2" transform="matrix(-1 0 0 1 20 2)" fill="currentColor"/>
<rect x="2" y="2" width="2" height="6" fill="currentColor"/>
<rect width="2" height="6" transform="matrix(-1 0 0 1 22 2)" fill="currentColor"/>
<rect x="4" y="8" width="2" height="2" fill="currentColor"/>
<rect width="2" height="2" transform="matrix(-1 0 0 1 20 8)" fill="currentColor"/>
<rect x="2" y="10" width="2" height="8" fill="currentColor"/>
<rect width="2" height="8" transform="matrix(-1 0 0 1 22 10)" fill="currentColor"/>
<rect x="4" y="18" width="2" height="2" fill="currentColor"/>
<rect width="2" height="2" transform="matrix(-1 0 0 1 20 18)" fill="currentColor"/>
<rect x="6" y="20" width="12" height="2" fill="currentColor"/>
<rect x="8" y="4" width="8" height="2" fill="currentColor"/>
<rect x="6" y="12" width="2" height="2" fill="currentColor"/>
<rect x="16" y="12" width="2" height="2" fill="currentColor"/>
<rect x="9" y="14" width="6" height="2" fill="currentColor"/>
<rect x="11" y="16" width="2" height="2" fill="currentColor"/></g></g></g></g></g></svg>