<?xml version="1.0" encoding="UTF-8"?><svg xmlns="http://www.w3.org/2000/svg" xmlns:xlink="http://www.w3.org/1999/xlink" width="472.4" height="121.7" viewBox="0 0 472.4 121.7" overflow="visible"><defs><style type="text/css">@import url('https://fonts.googleapis.com/css2?family=STIX+Two+Math&amp;display=swap');text.math { font-family: 'STIX Two Math', 'STIX Two Text', 'Times New Roman', serif; text-rendering: geometricPrecision; shape-rendering: geometricPrecision; } text.mop { font-style: normal; font-weight: 400; } text.mit { font-style: italic; font-weight: 400; } text.mbin { font-style: normal; font-weight: 400; letter-spacing: 0.02em; } </style></defs><rect width="100%" height="100%" fill="#faf8f5"/><g fill="#111111" color="#111111"><g transform="translate(32.00,32.00)"><g transform="translate(0.00,17.05)"><g transform="translate(0.00,2.30)"><g fill="#111111" color="#111111"><g transform="translate(0.000,0.000) scale(0.729167)"><rect x="20" y="9" width="2" height="6" fill="currentColor"/>
<rect x="18" y="7" width="2" height="2" fill="currentColor"/>
<rect x="14" y="3" width="2" height="2" fill="currentColor"/>
<rect width="2" height="2" transform="matrix(1 0 0 -1 14 21)" fill="currentColor"/>
<rect x="12" y="1" width="2" height="2" fill="currentColor"/>
<rect width="2" height="2" transform="matrix(1 0 0 -1 12 23)" fill="currentColor"/>
<rect x="18" y="15" width="2" height="2" fill="currentColor"/>
<rect x="12" y="17" width="6" height="2" fill="currentColor"/>
<rect x="12" y="5" width="6" height="2" fill="currentColor"/>
<rect x="2" y="7" width="2" height="10" fill="currentColor"/>
<rect x="4" y="9" width="2" height="2" fill="currentColor"/>
<rect x="4" y="13" width="2" height="2" fill="currentColor"/>
<rect x="6" y="11" width="2" height="2" fill="currentColor"/>
<rect x="8" y="9" width="2" height="2" fill="currentColor"/>
<rect x="8" y="13" width="2" height="2" fill="currentColor"/>
<rect x="10" y="15" width="2" height="2" fill="currentColor"/>
<rect x="10" y="7" width="2" height="2" fill="currentColor"/>
<rect x="15" y="10" width="2" height="2" fill="currentColor"/></g></g></g><g transform="translate(23.61,0.00)"><text class="math mbin" x="0.00" y="11.05" text-anchor="start" font-size="17.0" fill="#111111" stroke="none" dominant-baseline="middle">−</text></g><g transform="translate(40.45,2.30)"><g fill="#111111" color="#111111"><g transform="translate(0.000,0.000) scale(0.729167)"><rect x="14" y="4" width="4" height="2" fill="currentColor"/>
<rect x="10" y="2" width="4" height="2" fill="currentColor"/>
<rect x="6" y="8" width="4" height="2" fill="currentColor"/>
<rect x="6" y="18" width="4" height="2" fill="currentColor"/>
<rect x="10" y="10" width="4" height="2" fill="currentColor"/>
<rect x="10" y="20" width="4" height="2" fill="currentColor"/>
<rect x="14" y="8" width="4" height="2" fill="currentColor"/>
<rect x="14" y="18" width="4" height="2" fill="currentColor"/>
<rect x="6" y="4" width="4" height="2" fill="currentColor"/>
<rect x="2" y="6" width="4" height="2" fill="currentColor"/>
<rect x="2" y="16" width="4" height="2" fill="currentColor"/>
<rect x="18" y="6" width="4" height="2" fill="currentColor"/>
<rect x="18" y="16" width="4" height="2" fill="currentColor"/>
<rect x="2" y="6" width="2" height="12" fill="currentColor"/>
<rect x="20" y="6" width="2" height="12" fill="currentColor"/>
<rect x="12" y="12" width="2" height="8" fill="currentColor"/></g></g></g><g transform="translate(64.06,0.00)"><text class="math mbin" x="0.00" y="11.05" text-anchor="start" font-size="17.0" fill="#111111" stroke="none" dominant-baseline="middle">−</text></g><g transform="translate(80.90,0.00)"><g transform="translate(0.00,2.30)"><g fill="#111111" color="#111111"><g transform="translate(0.000,0.000) scale(0.729167)"><rect x="17" y="5" width="2" height="2" fill="currentColor"/>
<rect x="19" y="7" width="2" height="2" fill="currentColor"/>
<rect x="9" y="5" width="2" height="2" fill="currentColor"/>
<rect x="7" y="7" width="2" height="2" fill="currentColor"/>
<rect x="11" y="3" width="6" height="2" fill="currentColor"/>
<rect x="13" y="11" width="2" height="5" fill="currentColor"/>
<rect x="7" y="9" width="14" height="2" fill="currentColor"/>
<rect x="9" y="16" width="4" height="2" fill="currentColor"/>
<rect x="3" y="13" width="4" height="2" fill="currentColor"/>
<rect x="3" y="19" width="4" height="2" fill="currentColor"/>
<rect x="7" y="15" width="2" height="4" fill="currentColor"/>
<rect x="3" y="15" width="2" height="4" fill="currentColor"/></g></g></g><g transform="translate(23.61,0.00)"><text class="math mbin" x="0.00" y="11.05" text-anchor="start" font-size="17.0" fill="#111111" stroke="none" dominant-baseline="middle">−</text></g><g transform="translate(40.45,2.30)"><g fill="#111111" color="#111111"><g transform="translate(0.000,0.000) scale(0.729167)"><rect x="8" y="2" width="8" height="2" fill="currentColor"/>
<rect x="6" y="4" width="2" height="4" fill="currentColor"/>
<rect x="16" y="4" width="2" height="4" fill="currentColor"/>
<rect x="14" y="8" width="2" height="2" fill="currentColor"/>
<rect x="8" y="8" width="2" height="2" fill="currentColor"/>
<rect x="10" y="10" width="4" height="2" fill="currentColor"/>
<rect width="8" height="2" transform="matrix(1 0 0 -1 8 22)" fill="currentColor"/>
<rect width="2" height="4" transform="matrix(1 0 0 -1 6 20)" fill="currentColor"/>
<rect width="2" height="4" transform="matrix(1 0 0 -1 16 20)" fill="currentColor"/>
<rect width="2" height="2" transform="matrix(1 0 0 -1 14 16)" fill="currentColor"/>
<rect width="2" height="2" transform="matrix(1 0 0 -1 8 16)" fill="currentColor"/>
<rect width="4" height="2" transform="matrix(1 0 0 -1 10 14)" fill="currentColor"/></g></g></g><g transform="translate(64.06,0.00)"><text class="math mbin" x="0.00" y="11.05" text-anchor="start" font-size="17.0" fill="#111111" stroke="none" dominant-baseline="middle">+</text></g><g transform="translate(80.90,2.30)"><g fill="#111111" color="#111111"><g transform="translate(0.000,0.000) scale(0.729167)"><rect x="2" y="20" width="2" height="2" fill="currentColor"/>
<rect x="8" y="18" width="6" height="2" fill="currentColor"/>
<rect x="6" y="16" width="2" height="2" fill="currentColor"/>
<rect x="4" y="18" width="2" height="2" fill="currentColor"/>
<rect x="8" y="14" width="2" height="2" fill="currentColor"/>
<rect x="10" y="12" width="2" height="2" fill="currentColor"/>
<rect x="12" y="10" width="2" height="2" fill="currentColor"/>
<rect x="14" y="8" width="2" height="2" fill="currentColor"/>
<rect x="14" y="16" width="2" height="2" fill="currentColor"/>
<rect x="16" y="14" width="2" height="2" fill="currentColor"/>
<rect x="18" y="12" width="2" height="2" fill="currentColor"/>
<rect x="20" y="6" width="2" height="6" fill="currentColor"/>
<rect x="18" y="4" width="2" height="2" fill="currentColor"/>
<rect x="4" y="10" width="2" height="6" fill="currentColor"/>
<rect x="6" y="8" width="2" height="2" fill="currentColor"/>
<rect x="8" y="6" width="2" height="2" fill="currentColor"/>
<rect x="10" y="4" width="2" height="2" fill="currentColor"/>
<rect x="12" y="2" width="6" height="2" fill="currentColor"/></g></g></g></g></g><g transform="translate(188.58,17.05)"><text class="math mbin" x="3.57" y="11.05" text-anchor="middle" font-size="17.0" fill="#111111" stroke="none" dominant-baseline="middle">=</text></g><g transform="translate(204.99,0.00)"><g><g transform="translate(9.00,0.00)"><g transform="translate(0.00,2.30)"><g fill="#111111" color="#111111"><g transform="translate(0.000,0.000) scale(0.729167)"><rect x="14" y="8" width="2" height="2" fill="currentColor"/>
<rect x="18" y="16" width="2" height="2" fill="currentColor"/>
<rect x="8" y="4" width="2" height="4" fill="currentColor"/>
<rect x="6" y="6" width="8" height="2" fill="currentColor"/>
<rect x="2" y="10" width="20" height="2" fill="currentColor"/>
<rect x="20" y="12" width="2" height="4" fill="currentColor"/>
<rect x="2" y="12" width="2" height="6" fill="currentColor"/>
<rect x="6" y="8" width="2" height="2" fill="currentColor"/>
<rect y="16" width="4" height="2" fill="currentColor"/>
<rect x="4" y="18" width="4" height="2" fill="currentColor"/>
<rect x="8" y="16" width="4" height="2" fill="currentColor"/>
<rect x="12" y="18" width="4" height="2" fill="currentColor"/>
<rect x="16" y="16" width="4" height="2" fill="currentColor"/>
<rect x="20" y="18" width="4" height="2" fill="currentColor"/></g></g></g><g transform="translate(24.98,0.00)"><g transform="translate(2.00,0)"><text class="math mbin" x="4.42" y="11.05" text-anchor="middle" font-size="17.0" fill="#111111" stroke="none" dominant-baseline="middle">·</text></g></g><g transform="translate(43.49,0.00)"><g transform="translate(0.00,2.30)"><g fill="#111111" color="#111111"><g transform="translate(0.000,0.000) scale(0.729167)"><rect x="9" y="2" width="6" height="2" fill="currentColor"/>
<rect x="7" y="4" width="2" height="2" fill="currentColor"/>
<rect x="15" y="4" width="2" height="2" fill="currentColor"/>
<rect x="5" y="6" width="2" height="7" fill="currentColor"/>
<rect x="17" y="6" width="2" height="7" fill="currentColor"/>
<rect x="3" y="13" width="2" height="4" fill="currentColor"/>
<rect x="19" y="13" width="2" height="4" fill="currentColor"/>
<rect x="3" y="15" width="18" height="2" fill="currentColor"/>
<rect x="8" y="18" width="2" height="2" fill="currentColor"/>
<rect x="14" y="18" width="2" height="2" fill="currentColor"/>
<rect x="10" y="20" width="4" height="2" fill="currentColor"/></g></g></g><g transform="translate(23.61,0.00)"><text class="math mbin" x="0.00" y="11.05" text-anchor="start" font-size="17.0" fill="#111111" stroke="none" dominant-baseline="middle">−</text></g><g transform="translate(40.45,2.30)"><g fill="#111111" color="#111111"><g transform="translate(0.000,0.000) scale(0.729167)"><rect x="4" y="2" width="2" height="20" fill="currentColor"/>
<rect x="4" y="4" width="16" height="2" fill="currentColor"/>
<rect x="16" y="6" width="2" height="2" fill="currentColor"/>
<rect x="14" y="8" width="2" height="2" fill="currentColor"/>
<rect x="16" y="10" width="2" height="2" fill="currentColor"/>
<rect x="4" y="12" width="16" height="2" fill="currentColor"/></g></g></g><g transform="translate(64.06,0.00)"><text class="math mbin" x="0.00" y="11.05" text-anchor="start" font-size="17.0" fill="#111111" stroke="none" dominant-baseline="middle">+</text></g><g transform="translate(80.90,0.00)"><g transform="translate(0.00,2.30)"><g fill="#111111" color="#111111"><g transform="translate(0.000,0.000) scale(0.729167)"><path d="M18 22H8V20H18V22ZM8 20H6V18H8V20ZM20 20H18V18H20V20ZM6 18H4V16H6V18ZM22 18H20V14H18V12H20V10H22V18ZM4 16H2V6H4V16ZM18 16H12V14H18V16ZM12 14H10V12H12V14ZM10 12H8V6H10V12ZM20 4H22V6H20V8H18V6H16V4H18V2H20V4ZM6 6H4V4H6V6ZM14 4H12V6H10V4H6V2H14V4Z" fill="currentColor"/></g></g></g><g transform="translate(24.98,0.00)"><g transform="translate(2.00,0)"><text class="math mbin" x="4.42" y="11.05" text-anchor="middle" font-size="17.0" fill="#111111" stroke="none" dominant-baseline="middle">·</text></g></g><g transform="translate(43.49,2.30)"><g fill="#111111" color="#111111"><g transform="translate(0.000,0.000) scale(0.729167)"><rect x="2" y="18" width="7" height="2" fill="currentColor"/>
<rect x="16" y="18" width="6" height="2" fill="currentColor"/>
<rect x="4" y="6" width="2" height="12" fill="currentColor"/>
<rect x="6" y="4" width="3" height="2" fill="currentColor"/>
<rect x="17" y="6" width="2" height="12" fill="currentColor"/>
<rect x="9" y="2" width="2" height="20" fill="currentColor"/>
<rect x="11" y="20" width="4" height="2" fill="currentColor"/>
<rect x="15" y="18" width="4" height="2" fill="currentColor"/>
<rect x="15" y="4" width="4" height="2" fill="currentColor"/>
<rect x="11" y="2" width="4" height="2" fill="currentColor"/>
<rect x="12" y="10" width="2" height="2" fill="currentColor"/></g></g></g></g></g></g><line x1="0" y1="28.10" x2="203.37" y2="28.10" stroke="#111111" stroke-width="1.50"/><g transform="translate(32.26,35.60)"><g transform="translate(0.00,2.30)"><g fill="#111111" color="#111111"><g transform="translate(0.000,0.000) scale(0.729167)"><rect x="8" y="20" width="8" height="2" fill="currentColor"/>
<rect x="11" y="18" width="2" height="2" fill="currentColor"/>
<rect x="6" y="16" width="12" height="2" fill="currentColor"/>
<rect x="18" y="14" width="2" height="2" fill="currentColor"/>
<rect x="20" y="10" width="2" height="4" fill="currentColor"/>
<rect x="2" y="10" width="20" height="2" fill="currentColor"/>
<rect x="2" y="12" width="2" height="2" fill="currentColor"/>
<rect x="4" y="14" width="2" height="2" fill="currentColor"/>
<rect x="4" y="8" width="2" height="2" fill="currentColor"/>
<rect x="6" y="6" width="5" height="2" fill="currentColor"/>
<rect x="13" y="6" width="5" height="2" fill="currentColor"/>
<rect x="11" y="8" width="2" height="2" fill="currentColor"/>
<rect x="7" y="4" width="2" height="2" fill="currentColor"/>
<rect x="15" y="4" width="2" height="2" fill="currentColor"/>
<rect x="18" y="8" width="2" height="2" fill="currentColor"/>
<rect x="9" y="2" width="6" height="2" fill="currentColor"/></g></g></g><g transform="translate(23.61,0.00)"><text class="math mbin" x="0.00" y="11.05" text-anchor="start" font-size="17.0" fill="#111111" stroke="none" dominant-baseline="middle">−</text></g><g transform="translate(40.45,2.30)"><g fill="#111111" color="#111111"><g transform="translate(0.000,0.000) scale(0.729167)"><path d="M22 10H18V12H22V10Z" fill="currentColor"/>
<path d="M24 12H22V18H24V12Z" fill="currentColor"/>
<path d="M22 18H2V20H22V18Z" fill="currentColor"/>
<path d="M2 12H0V18H2V12Z" fill="currentColor"/>
<path d="M4 10H2V12H4V10Z" fill="currentColor"/>
<path d="M8 8H4V10H8V8Z" fill="currentColor"/>
<path d="M16 4H10V6H16V4Z" fill="currentColor"/>
<path d="M10 6H8V8H10V6Z" fill="currentColor"/>
<path d="M10 10H8V12H10V10Z" fill="currentColor"/>
<path d="M18 6H16V8H18V6Z" fill="currentColor"/>
<path d="M20 8H18V12H20V8Z" fill="currentColor"/>
<path d="M18 12H16V14H18V12Z" fill="currentColor"/></g></g></g><g transform="translate(64.06,0.00)"><text class="math mbin" x="0.00" y="11.05" text-anchor="start" font-size="17.0" fill="#111111" stroke="none" dominant-baseline="middle">−</text></g><g transform="translate(80.90,2.30)"><g fill="#111111" color="#111111"><g transform="translate(0.000,0.000) scale(0.729167)"><rect x="2" y="20" width="2" height="2" fill="currentColor"/>
<rect x="8" y="18" width="6" height="2" fill="currentColor"/>
<rect x="6" y="16" width="2" height="2" fill="currentColor"/>
<rect x="4" y="18" width="2" height="2" fill="currentColor"/>
<rect x="8" y="14" width="2" height="2" fill="currentColor"/>
<rect x="10" y="12" width="2" height="2" fill="currentColor"/>
<rect x="12" y="10" width="2" height="2" fill="currentColor"/>
<rect x="14" y="8" width="2" height="2" fill="currentColor"/>
<rect x="14" y="16" width="2" height="2" fill="currentColor"/>
<rect x="16" y="14" width="2" height="2" fill="currentColor"/>
<rect x="18" y="12" width="2" height="2" fill="currentColor"/>
<rect x="20" y="6" width="2" height="6" fill="currentColor"/>
<rect x="18" y="4" width="2" height="2" fill="currentColor"/>
<rect x="4" y="10" width="2" height="6" fill="currentColor"/>
<rect x="6" y="8" width="2" height="2" fill="currentColor"/>
<rect x="8" y="6" width="2" height="2" fill="currentColor"/>
<rect x="10" y="4" width="2" height="2" fill="currentColor"/>
<rect x="12" y="2" width="6" height="2" fill="currentColor"/></g></g></g><g transform="translate(104.51,0.00)"><text class="math mbin" x="0.00" y="11.05" text-anchor="start" font-size="17.0" fill="#111111" stroke="none" dominant-baseline="middle">+</text></g><g transform="translate(121.35,2.30)"><g fill="#111111" color="#111111"><g transform="translate(0.000,0.000) scale(0.729167)"><rect x="14" y="8" width="2" height="2" fill="currentColor"/>
<rect x="18" y="16" width="2" height="2" fill="currentColor"/>
<rect x="8" y="4" width="2" height="4" fill="currentColor"/>
<rect x="6" y="6" width="8" height="2" fill="currentColor"/>
<rect x="2" y="10" width="20" height="2" fill="currentColor"/>
<rect x="20" y="12" width="2" height="4" fill="currentColor"/>
<rect x="2" y="12" width="2" height="6" fill="currentColor"/>
<rect x="6" y="8" width="2" height="2" fill="currentColor"/>
<rect y="16" width="4" height="2" fill="currentColor"/>
<rect x="4" y="18" width="4" height="2" fill="currentColor"/>
<rect x="8" y="16" width="4" height="2" fill="currentColor"/>
<rect x="12" y="18" width="4" height="2" fill="currentColor"/>
<rect x="16" y="16" width="4" height="2" fill="currentColor"/>
<rect x="20" y="18" width="4" height="2" fill="currentColor"/></g></g></g></g></g></g></g></g></svg>