<?xml version="1.0" encoding="UTF-8"?><svg xmlns="http://www.w3.org/2000/svg" xmlns:xlink="http://www.w3.org/1999/xlink" width="409.5" height="157.3" viewBox="0 0 409.5 157.3" overflow="visible"><defs><style type="text/css">@import url('https://fonts.googleapis.com/css2?family=STIX+Two+Math&amp;display=swap');text.math { font-family: 'STIX Two Math', 'STIX Two Text', 'Times New Roman', serif; text-rendering: geometricPrecision; shape-rendering: geometricPrecision; } text.mop { font-style: normal; font-weight: 400; } text.mit { font-style: italic; font-weight: 400; } text.mbin { font-style: normal; font-weight: 400; letter-spacing: 0.02em; } </style></defs><rect width="100%" height="100%" fill="#faf8f5"/><g fill="#111111" color="#111111"><g transform="translate(32.00,32.00)"><g transform="translate(0.00,35.60)"><g transform="translate(0.00,19.35)"><g fill="#111111" color="#111111"><g transform="translate(0.000,0.000) scale(0.729167)"><rect x="1" y="8" width="2" height="12" fill="currentColor"/>
<rect x="3" y="20" width="18" height="2" fill="currentColor"/>
<rect x="21" y="8" width="2" height="12" fill="currentColor"/>
<rect x="3" y="10" width="18" height="2" fill="currentColor"/>
<rect x="5" y="2" width="2" height="8" fill="currentColor"/>
<rect x="17" y="2" width="2" height="8" fill="currentColor"/>
<rect x="7" y="4" width="10" height="2" fill="currentColor"/>
<rect x="9" y="2" width="2" height="2" fill="currentColor"/>
<rect x="13" y="2" width="2" height="2" fill="currentColor"/>
<rect x="8" y="16" width="2" height="4" fill="currentColor"/>
<rect x="10" y="14" width="4" height="2" fill="currentColor"/>
<rect x="14" y="16" width="2" height="4" fill="currentColor"/></g></g></g><g transform="translate(23.61,17.05)"><text class="math mbin" x="0.00" y="11.05" text-anchor="start" font-size="17.0" fill="#111111" stroke="none" dominant-baseline="middle">+</text></g><g transform="translate(40.45,0.00)"><g><g transform="translate(9.00,0.00)"><g transform="translate(0.00,2.30)"><g fill="#111111" color="#111111"><g transform="translate(0.000,0.000) scale(0.729167)"><path d="M13 22H11V20H13V22ZM11 20H9V18H11V20ZM15 20H13V18H15V20ZM9 18H7V16H9V18ZM17 18H15V16H17V18ZM7 16H5V14H7V16ZM19 16H17V14H19V16ZM5 14H3V12H5V14ZM21 14H19V12H21V14ZM3 12H1V6H3V12ZM23 12H21V6H23V12ZM13 8H11V6H13V8ZM5 6H3V4H5V6ZM11 6H9V4H11V6ZM15 6H13V4H15V6ZM21 6H19V4H21V6ZM9 4H5V2H9V4ZM19 4H15V2H19V4Z" fill="currentColor"/></g></g></g><g transform="translate(24.98,0.00)"><g transform="translate(2.00,0)"><text class="math mbin" x="4.42" y="11.05" text-anchor="middle" font-size="17.0" fill="#111111" stroke="none" dominant-baseline="middle">·</text></g></g><g transform="translate(43.49,2.30)"><g fill="#111111" color="#111111"><g transform="translate(0.000,0.000) scale(0.729167)"><rect x="4" y="2" width="2" height="20" fill="currentColor"/>
<rect x="4" y="4" width="8" height="2" fill="currentColor"/>
<rect x="12" y="6" width="8" height="2" fill="currentColor"/>
<rect x="4" y="12" width="8" height="2" fill="currentColor"/>
<rect x="12" y="14" width="8" height="2" fill="currentColor"/>
<rect x="18" y="8" width="2" height="2" fill="currentColor"/>
<rect x="16" y="10" width="2" height="2" fill="currentColor"/>
<rect x="18" y="12" width="2" height="2" fill="currentColor"/>
<rect x="10" y="4" width="2" height="10" fill="currentColor"/></g></g></g></g><line x1="0" y1="28.10" x2="78.99" y2="28.10" stroke="#111111" stroke-width="1.50"/><g transform="translate(9.00,35.60)"><g transform="translate(0.00,2.30)"><g fill="#111111" color="#111111"><g transform="translate(0.000,0.000) scale(0.729167)"><rect x="6" y="2" width="12" height="2" fill="currentColor"/>
<rect x="6" y="20" width="12" height="2" fill="currentColor"/>
<rect x="4" y="4" width="2" height="16" fill="currentColor"/>
<rect x="18" y="4" width="2" height="16" fill="currentColor"/>
<rect x="8" y="2" width="2" height="10" fill="currentColor"/>
<rect x="12" y="2" width="2" height="10" fill="currentColor"/>
<rect x="10" y="2" width="2" height="8" fill="currentColor"/></g></g></g><g transform="translate(24.98,0.00)"><g transform="translate(2.00,0)"><text class="math mbin" x="4.42" y="11.05" text-anchor="middle" font-size="17.0" fill="#111111" stroke="none" dominant-baseline="middle">·</text></g></g><g transform="translate(43.49,2.30)"><g fill="#111111" color="#111111"><g transform="translate(0.000,0.000) scale(0.729167)"><path d="M14 22H4V20H14V22ZM4 20H2V16H4V20ZM16 20H14V16H16V20ZM10 18H8V16H10V18ZM8 16H4V14H8V16ZM14 16H12V14H14V16ZM12 14H8V12H12V14ZM24 13H20V11H24V13ZM18 12H16V10H18V12ZM8 10H6V8H8V10ZM16 10H14V8H16V10ZM14 8H8V6H14V8ZM6 6H4V4H6V6ZM20 6H18V4H20V6ZM4 4H2V2H4V4ZM13 4H11V0H13V4ZM22 4H20V2H22V4Z" fill="currentColor"/></g></g></g></g></g></g><g transform="translate(126.92,17.05)"><g transform="translate(2.00,0)"><text class="math mbin" x="4.42" y="11.05" text-anchor="middle" font-size="17.0" fill="#111111" stroke="none" dominant-baseline="middle">·</text></g></g><g transform="translate(145.42,19.35)"><g fill="#111111" color="#111111"><g transform="translate(0.000,0.000) scale(0.729167)"><rect x="4" y="3" width="6" height="2" fill="currentColor"/>
<rect x="2" y="3" width="2" height="8" fill="currentColor"/>
<rect x="4" y="9" width="4" height="2" fill="currentColor"/>
<rect x="6" y="9" width="2" height="10" fill="currentColor"/>
<rect x="8" y="19" width="8" height="2" fill="currentColor"/>
<rect x="16" y="9" width="2" height="10" fill="currentColor"/>
<rect x="16" y="9" width="4" height="2" fill="currentColor"/>
<rect x="20" y="3" width="2" height="8" fill="currentColor"/>
<rect x="14" y="3" width="6" height="2" fill="currentColor"/>
<rect x="10" y="5" width="4" height="2" fill="currentColor"/></g></g></g></g><g transform="translate(172.20,52.65)"><text class="math mbin" x="3.57" y="11.05" text-anchor="middle" font-size="17.0" fill="#111111" stroke="none" dominant-baseline="middle">=</text></g><g transform="translate(188.61,0.00)"><g><g transform="translate(18.71,0.00)"><g><g transform="translate(9.00,0.00)"><g transform="translate(0.00,2.30)"><g fill="#111111" color="#111111"><g transform="translate(0.000,0.000) scale(0.729167)"><path d="M3 19H5V17H19V19H21V17H23V11H21V15H3V11H1V17H3V19ZM5 21H19V19H5V21ZM3 11H7V7H5V5H3V11ZM9 13H11V11H9V13ZM13 13H15V11H13V13ZM5 5H9V3H5V5ZM9 7H15V5H9V7ZM17 11H21V5H19V7H17V11ZM15 5H19V3H15V5Z" fill="currentColor"/></g></g></g><g transform="translate(24.98,0.00)"><g transform="translate(2.00,0)"><text class="math mbin" x="4.42" y="11.05" text-anchor="middle" font-size="17.0" fill="#111111" stroke="none" dominant-baseline="middle">·</text></g></g><g transform="translate(43.49,2.30)"><g fill="#111111" color="#111111"><g transform="translate(0.000,0.000) scale(0.729167)"><rect x="15" y="10" width="5" height="2" fill="currentColor"/>
<rect x="4" y="10" width="5" height="2" fill="currentColor"/>
<rect x="20" y="12" width="2" height="5" fill="currentColor"/>
<rect x="9" y="12" width="2" height="5" fill="currentColor"/>
<rect x="13" y="12" width="2" height="5" fill="currentColor"/>
<rect x="2" y="12" width="2" height="5" fill="currentColor"/>
<rect x="15" y="17" width="5" height="2" fill="currentColor"/>
<rect x="4" y="17" width="5" height="2" fill="currentColor"/>
<rect x="11" y="12" width="2" height="2" fill="currentColor"/>
<rect x="2" y="6" width="2" height="6" fill="currentColor"/>
<rect x="20" y="6" width="2" height="6" fill="currentColor"/>
<rect x="4" y="4" width="2" height="2" fill="currentColor"/>
<rect x="18" y="4" width="2" height="2" fill="currentColor"/>
<rect x="6" y="12" width="3" height="2" fill="currentColor"/>
<rect x="17" y="12" width="3" height="2" fill="currentColor"/>
<rect x="4" y="14" width="2" height="3" fill="currentColor"/>
<rect x="15" y="14" width="2" height="3" fill="currentColor"/>
<rect x="6" y="16" width="3" height="1" fill="currentColor"/>
<rect x="17" y="16" width="3" height="1" fill="currentColor"/>
<rect x="8" y="14" width="1" height="2" fill="currentColor"/>
<rect x="19" y="14" width="1" height="2" fill="currentColor"/></g></g></g></g><line x1="0" y1="28.10" x2="78.99" y2="28.10" stroke="#111111" stroke-width="1.50"/><g transform="translate(10.52,35.60)"><g transform="translate(0.00,2.30)"><g fill="#111111" color="#111111"><g transform="translate(0.000,0.000) scale(0.729167)"><rect x="2" y="20" width="2" height="2" fill="currentColor"/>
<rect x="2" y="18" width="2" height="2" fill="currentColor"/>
<rect x="4" y="14" width="2" height="4" fill="currentColor"/>
<rect x="6" y="10" width="2" height="4" fill="currentColor"/>
<rect x="4" y="20" width="2" height="2" fill="currentColor"/>
<rect x="6" y="18" width="4" height="2" fill="currentColor"/>
<rect x="10" y="16" width="4" height="2" fill="currentColor"/>
<rect x="8" y="8" width="2" height="2" fill="currentColor"/>
<rect x="10" y="8" width="2" height="2" fill="currentColor"/>
<rect x="12" y="10" width="2" height="2" fill="currentColor"/>
<rect x="14" y="12" width="2" height="4" fill="currentColor"/>
<rect x="8" y="14" width="2" height="2" fill="currentColor"/>
<rect x="3" y="6" width="2" height="2" fill="currentColor"/>
<rect x="10" y="4" width="2" height="2" fill="currentColor"/>
<rect x="8" y="2" width="2" height="2" fill="currentColor"/>
<rect x="15" y="2" width="2" height="2" fill="currentColor"/>
<rect x="18" y="12" width="2" height="2" fill="currentColor"/>
<rect x="20" y="14" width="2" height="2" fill="currentColor"/>
<rect x="16" y="7" width="4" height="2" fill="currentColor"/>
<rect x="18" y="19" width="2" height="2" fill="currentColor"/>
<rect x="20" y="5" width="2" height="2" fill="currentColor"/></g></g></g><g transform="translate(23.61,0.00)"><text class="math mbin" x="0.00" y="11.05" text-anchor="start" font-size="17.0" fill="#111111" stroke="none" dominant-baseline="middle">−</text></g><g transform="translate(40.45,2.30)"><g fill="#111111" color="#111111"><g transform="translate(0.000,0.000) scale(0.729167)"><rect width="2" height="2" transform="matrix(1 0 0 -1 4 18)" fill="currentColor"/>
<rect width="2" height="2" transform="matrix(1 0 0 -1 2 20)" fill="currentColor"/>
<rect width="2" height="2" transform="matrix(1 0 0 -1 20 20)" fill="currentColor"/>
<rect width="2" height="2" transform="matrix(1 0 0 -1 4 12)" fill="currentColor"/>
<rect width="2" height="2" transform="matrix(1 0 0 -1 2 14)" fill="currentColor"/>
<rect width="2" height="2" transform="matrix(1 0 0 -1 20 14)" fill="currentColor"/>
<rect width="2" height="2" transform="matrix(1 0 0 -1 4 6)" fill="currentColor"/>
<rect width="2" height="2" transform="matrix(1 0 0 -1 2 8)" fill="currentColor"/>
<rect width="2" height="2" transform="matrix(1 0 0 -1 20 8)" fill="currentColor"/>
<rect width="2" height="2" transform="matrix(1 0 0 -1 9 18)" fill="currentColor"/>
<rect width="2" height="2" transform="matrix(1 0 0 -1 13 12)" fill="currentColor"/>
<rect width="2" height="2" transform="matrix(1 0 0 -1 11 6)" fill="currentColor"/>
<rect width="2" height="2" transform="matrix(1 0 0 -1 18 18)" fill="currentColor"/>
<rect width="2" height="2" transform="matrix(1 0 0 -1 18 12)" fill="currentColor"/>
<rect width="2" height="2" transform="matrix(1 0 0 -1 18 6)" fill="currentColor"/>
<rect width="3" height="2" transform="matrix(1 0 0 -1 6 20)" fill="currentColor"/>
<rect width="7" height="2" transform="matrix(1 0 0 -1 6 14)" fill="currentColor"/>
<rect width="5" height="2" transform="matrix(1 0 0 -1 6 8)" fill="currentColor"/>
<rect width="7" height="2" transform="matrix(1 0 0 -1 11 20)" fill="currentColor"/>
<rect width="3" height="2" transform="matrix(1 0 0 -1 15 14)" fill="currentColor"/>
<rect width="5" height="2" transform="matrix(1 0 0 -1 13 8)" fill="currentColor"/></g></g></g></g></g></g><line x1="0" y1="63.70" x2="116.40" y2="63.70" stroke="#111111" stroke-width="1.50"/><g transform="translate(9.00,71.20)"><g transform="translate(0.00,2.30)"><g fill="#111111" color="#111111"><g transform="translate(0.000,0.000) scale(0.729167)"><rect x="7" y="19" width="12" height="2" fill="currentColor"/>
<rect x="5" y="3" width="2" height="2" fill="currentColor"/>
<rect x="5" y="17" width="2" height="2" fill="currentColor"/>
<rect x="19" y="17" width="2" height="2" fill="currentColor"/>
<rect x="3" y="5" width="2" height="12" fill="currentColor"/>
<rect x="7" y="3" width="2" height="2" fill="currentColor"/>
<rect x="9" y="5" width="2" height="2" fill="currentColor"/>
<rect x="11" y="7" width="2" height="2" fill="currentColor"/>
<rect x="13" y="9" width="2" height="2" fill="currentColor"/>
<rect x="15" y="11" width="2" height="2" fill="currentColor"/>
<rect x="17" y="13" width="2" height="2" fill="currentColor"/>
<rect x="19" y="15" width="2" height="2" fill="currentColor"/>
<rect x="7" y="7" width="2" height="8" fill="currentColor"/>
<rect x="9" y="15" width="10" height="2" fill="currentColor"/>
<rect x="11" y="11" width="2" height="2" fill="currentColor"/>
<rect x="9" y="9" width="2" height="2" fill="currentColor"/>
<rect x="13" y="13" width="2" height="2" fill="currentColor"/>
<rect x="9" y="13" width="2" height="2" fill="currentColor"/></g></g></g><g transform="translate(23.61,0.00)"><text class="math mbin" x="0.00" y="11.05" text-anchor="start" font-size="17.0" fill="#111111" stroke="none" dominant-baseline="middle">−</text></g><g transform="translate(40.45,2.30)"><g fill="#111111" color="#111111"><g transform="translate(0.000,0.000) scale(0.729167)"><rect x="4" y="20" width="10" height="2" fill="currentColor"/>
<rect x="20" y="10" width="2" height="4" fill="currentColor"/>
<rect x="2" y="10" width="2" height="10" fill="currentColor"/>
<rect x="4" y="8" width="2" height="2" fill="currentColor"/>
<rect x="6" y="6" width="2" height="2" fill="currentColor"/>
<rect x="8" y="4" width="2" height="2" fill="currentColor"/>
<rect x="10" y="2" width="4" height="2" fill="currentColor"/>
<rect x="14" y="4" width="2" height="2" fill="currentColor"/>
<rect x="16" y="6" width="2" height="2" fill="currentColor"/>
<rect x="18" y="8" width="2" height="2" fill="currentColor"/>
<rect x="8" y="14" width="2" height="6" fill="currentColor"/>
<rect x="10" y="12" width="4" height="2" fill="currentColor"/>
<rect x="14" y="14" width="2" height="2" fill="currentColor"/>
<rect x="18" y="16" width="2" height="6" fill="currentColor"/>
<rect x="16" y="18" width="6" height="2" fill="currentColor"/></g></g></g><g transform="translate(64.06,0.00)"><text class="math mbin" x="0.00" y="11.05" text-anchor="start" font-size="17.0" fill="#111111" stroke="none" dominant-baseline="middle">+</text></g><g transform="translate(80.90,2.30)"><g fill="#111111" color="#111111"><g transform="translate(0.000,0.000) scale(0.729167)"><rect x="4" y="3" width="6" height="2" fill="currentColor"/>
<rect x="2" y="3" width="2" height="8" fill="currentColor"/>
<rect x="4" y="9" width="4" height="2" fill="currentColor"/>
<rect x="6" y="9" width="2" height="10" fill="currentColor"/>
<rect x="16" y="9" width="2" height="4" fill="currentColor"/>
<rect x="16" y="9" width="4" height="2" fill="currentColor"/>
<rect x="20" y="3" width="2" height="8" fill="currentColor"/>
<rect x="14" y="3" width="6" height="2" fill="currentColor"/>
<rect x="10" y="5" width="4" height="2" fill="currentColor"/>
<rect x="10" y="15" width="4" height="2" fill="currentColor"/>
<rect x="10" y="19" width="4" height="2" fill="currentColor"/>
<rect x="14" y="17" width="4" height="2" fill="currentColor"/>
<rect x="14" y="21" width="4" height="2" fill="currentColor"/>
<rect x="18" y="15" width="4" height="2" fill="currentColor"/>
<rect x="18" y="19" width="4" height="2" fill="currentColor"/></g></g></g></g></g><g transform="translate(122.51,52.65)"><text class="math mbin" x="0.00" y="11.05" text-anchor="start" font-size="17.0" fill="#111111" stroke="none" dominant-baseline="middle">−</text></g><g transform="translate(139.35,54.95)"><g fill="#111111" color="#111111"><g transform="translate(0.000,0.000) scale(0.729167)"><rect x="2" y="20" width="20" height="2" fill="currentColor"/>
<rect x="2" y="8" width="2" height="12" fill="currentColor"/>
<rect x="8" y="2" width="8" height="2" fill="currentColor"/>
<rect x="20" y="8" width="2" height="12" fill="currentColor"/>
<rect x="8" y="16" width="2" height="4" fill="currentColor"/>
<rect x="6" y="14" width="12" height="2" fill="currentColor"/>
<rect x="14" y="16" width="2" height="4" fill="currentColor"/>
<rect x="11" y="6" width="2" height="2" fill="currentColor"/>
<rect x="9" y="8" width="2" height="4" fill="currentColor"/>
<rect x="11" y="10" width="2" height="2" fill="currentColor"/>
<rect x="13" y="8" width="2" height="4" fill="currentColor"/>
<rect x="4" y="6" width="2" height="2" fill="currentColor"/>
<rect x="6" y="4" width="2" height="2" fill="currentColor"/>
<rect x="16" y="4" width="2" height="2" fill="currentColor"/>
<rect x="18" y="6" width="2" height="2" fill="currentColor"/></g></g></g></g></g></g></svg>