<?xml version="1.0" encoding="UTF-8"?><svg xmlns="http://www.w3.org/2000/svg" xmlns:xlink="http://www.w3.org/1999/xlink" width="520.5" height="121.7" viewBox="0 0 520.5 121.7" overflow="visible"><defs><style type="text/css">@import url('https://fonts.googleapis.com/css2?family=STIX+Two+Math&amp;display=swap');text.math { font-family: 'STIX Two Math', 'STIX Two Text', 'Times New Roman', serif; text-rendering: geometricPrecision; shape-rendering: geometricPrecision; } text.mop { font-style: normal; font-weight: 400; } text.mit { font-style: italic; font-weight: 400; } text.mbin { font-style: normal; font-weight: 400; letter-spacing: 0.02em; } </style></defs><rect width="100%" height="100%" fill="#faf8f5"/><g fill="#111111" color="#111111"><g transform="translate(32.00,32.00)"><g transform="translate(0.00,19.35)"><g fill="#111111" color="#111111"><g transform="translate(0.000,0.000) scale(0.729167)"><rect x="2" y="14" width="20" height="2" fill="currentColor"/>
<rect x="2" y="16" width="2" height="4" fill="currentColor"/>
<rect x="4" y="20" width="16" height="2" fill="currentColor"/>
<rect x="20" y="16" width="2" height="4" fill="currentColor"/>
<rect x="3" y="10" width="2" height="2" fill="currentColor"/>
<rect width="2" height="2" transform="matrix(-1 0 0 1 21 10)" fill="currentColor"/>
<rect x="5" y="8" width="2" height="2" fill="currentColor"/>
<rect width="2" height="2" transform="matrix(-1 0 0 1 19 8)" fill="currentColor"/>
<rect x="7" y="10" width="2" height="4" fill="currentColor"/>
<rect width="2" height="4" transform="matrix(-1 0 0 1 17 10)" fill="currentColor"/>
<rect x="11" y="6" width="2" height="8" fill="currentColor"/>
<rect x="13" y="4" width="2" height="2" fill="currentColor"/>
<rect x="9" y="4" width="2" height="2" fill="currentColor"/>
<rect x="5" y="2" width="4" height="2" fill="currentColor"/>
<rect x="3" y="4" width="2" height="2" fill="currentColor"/>
<rect x="15" y="2" width="4" height="2" fill="currentColor"/>
<rect x="19" y="4" width="2" height="2" fill="currentColor"/></g></g></g><g transform="translate(24.98,17.05)"><g transform="translate(2.00,0)"><text class="math mbin" x="4.42" y="11.05" text-anchor="middle" font-size="17.0" fill="#111111" stroke="none" dominant-baseline="middle">·</text></g></g><g transform="translate(43.49,0.00)"><g><g transform="translate(9.00,0.00)"><g transform="translate(0.00,2.30)"><g fill="#111111" color="#111111"><g transform="translate(0.000,0.000) scale(0.729167)"><rect x="4" y="6" width="16" height="2" fill="currentColor"/>
<rect x="4" y="8" width="2" height="10" fill="currentColor"/>
<rect x="6" y="18" width="10" height="2" fill="currentColor"/>
<rect x="20" y="8" width="2" height="4" fill="currentColor"/>
<rect x="18" y="12" width="2" height="2" fill="currentColor"/>
<rect x="16" y="8" width="2" height="10" fill="currentColor"/>
<rect x="7" y="2" width="2" height="2" fill="currentColor"/>
<rect x="13" y="2" width="2" height="2" fill="currentColor"/>
<rect x="9" width="2" height="2" fill="currentColor"/>
<rect x="15" width="2" height="2" fill="currentColor"/></g></g></g><g transform="translate(23.61,0.00)"><text class="math mbin" x="0.00" y="11.05" text-anchor="start" font-size="17.0" fill="#111111" stroke="none" dominant-baseline="middle">−</text></g><g transform="translate(40.45,2.30)"><g fill="#111111" color="#111111"><g transform="translate(0.000,0.000) scale(0.729167)"><rect x="2" y="7" width="10" height="2" fill="currentColor"/>
<rect x="12" y="3" width="2" height="4" fill="currentColor"/>
<rect x="7" y="1" width="5" height="2" fill="currentColor"/>
<rect x="2" y="11" width="18" height="2" fill="currentColor"/>
<rect x="20" y="7" width="2" height="4" fill="currentColor"/>
<rect x="16" y="5" width="4" height="2" fill="currentColor"/>
<rect width="12" height="2" transform="matrix(1 0 0 -1 2 17)" fill="currentColor"/>
<rect width="2" height="2" transform="matrix(1 0 0 -1 14 19)" fill="currentColor"/>
<rect width="5" height="2" transform="matrix(1 0 0 -1 9 21)" fill="currentColor"/></g></g></g></g><line x1="0" y1="28.10" x2="75.95" y2="28.10" stroke="#111111" stroke-width="1.50"/><g transform="translate(9.00,35.60)"><g transform="translate(0.00,2.30)"><g fill="#111111" color="#111111"><g transform="translate(0.000,0.000) scale(0.729167)"><rect x="1" y="18" width="2" height="4" fill="currentColor"/>
<rect x="3" y="16" width="2" height="2" fill="currentColor"/>
<rect x="5" y="14" width="6" height="2" fill="currentColor"/>
<rect x="11" y="12" width="2" height="2" fill="currentColor"/>
<rect x="5" y="18" width="4" height="2" fill="currentColor"/>
<rect x="9" y="20" width="4" height="2" fill="currentColor"/>
<rect x="13" y="18" width="4" height="2" fill="currentColor"/>
<rect x="17" y="16" width="2" height="2" fill="currentColor"/>
<rect x="19" y="8" width="2" height="8" fill="currentColor"/>
<rect x="19" y="4" width="2" height="4" fill="currentColor"/>
<rect x="17" y="2" width="2" height="2" fill="currentColor"/>
<rect x="13" y="4" width="4" height="2" fill="currentColor"/>
<rect x="10" y="6" width="3" height="2" fill="currentColor"/>
<rect x="3" y="10" width="2" height="4" fill="currentColor"/>
<rect x="4" y="2" width="2" height="6" fill="currentColor"/>
<rect x="2" y="4" width="6" height="2" fill="currentColor"/></g></g></g><g transform="translate(23.61,0.00)"><text class="math mbin" x="0.00" y="11.05" text-anchor="start" font-size="17.0" fill="#111111" stroke="none" dominant-baseline="middle">+</text></g><g transform="translate(40.45,2.30)"><g fill="#111111" color="#111111"><g transform="translate(0.000,0.000) scale(0.729167)"><rect x="8" y="2" width="8" height="2" fill="currentColor"/>
<rect x="16" y="22" width="8" height="2" transform="rotate(180 16 22)" fill="currentColor"/>
<rect x="6" y="4" width="2" height="4" fill="currentColor"/>
<rect x="18" y="20" width="2" height="4" transform="rotate(180 18 20)" fill="currentColor"/>
<rect x="4" y="6" width="4" height="2" fill="currentColor"/>
<rect x="20" y="18" width="4" height="2" transform="rotate(180 20 18)" fill="currentColor"/>
<rect x="2" y="8" width="2" height="8" fill="currentColor"/>
<rect x="22" y="16" width="2" height="8" transform="rotate(180 22 16)" fill="currentColor"/>
<rect x="16" y="4" width="2" height="4" fill="currentColor"/>
<rect x="16" y="6" width="4" height="2" fill="currentColor"/>
<rect x="4" y="16" width="4" height="2" fill="currentColor"/>
<rect x="6" y="16" width="2" height="4" fill="currentColor"/>
<rect x="8" y="14" width="2" height="2" fill="currentColor"/>
<rect width="2" height="2" transform="matrix(-1 0 0 1 16 14)" fill="currentColor"/>
<rect x="10" y="12" width="2" height="2" fill="currentColor"/>
<rect width="2" height="2" transform="matrix(-1 0 0 1 14 12)" fill="currentColor"/>
<rect x="12" y="10" width="2" height="2" fill="currentColor"/>
<rect width="2" height="2" transform="matrix(-1 0 0 1 12 10)" fill="currentColor"/>
<rect x="14" y="8" width="2" height="2" fill="currentColor"/>
<rect width="2" height="2" transform="matrix(-1 0 0 1 10 8)" fill="currentColor"/></g></g></g></g></g></g><g transform="translate(126.92,17.05)"><g transform="translate(2.00,0)"><text class="math mbin" x="4.42" y="11.05" text-anchor="middle" font-size="17.0" fill="#111111" stroke="none" dominant-baseline="middle">·</text></g></g><g transform="translate(145.42,17.05)"><g transform="translate(0.00,2.30)"><g fill="#111111" color="#111111"><g transform="translate(0.000,0.000) scale(0.729167)"><rect x="3" y="3" width="2" height="12" fill="currentColor"/>
<rect x="19" y="3" width="2" height="12" fill="currentColor"/>
<rect x="11" y="3" width="2" height="2" fill="currentColor"/>
<rect x="9" y="5" width="2" height="2" fill="currentColor"/>
<rect x="5" y="5" width="2" height="2" fill="currentColor"/>
<rect x="3" y="3" width="2" height="2" fill="currentColor"/>
<rect x="7" y="7" width="2" height="2" fill="currentColor"/>
<rect x="13" y="5" width="2" height="2" fill="currentColor"/>
<rect x="15" y="7" width="2" height="2" fill="currentColor"/>
<rect x="17" y="5" width="2" height="2" fill="currentColor"/>
<rect x="5" y="15" width="14" height="2" fill="currentColor"/>
<rect x="3" y="19" width="18" height="2" fill="currentColor"/></g></g></g><g transform="translate(24.98,0.00)"><g transform="translate(2.00,0)"><text class="math mbin" x="4.42" y="11.05" text-anchor="middle" font-size="17.0" fill="#111111" stroke="none" dominant-baseline="middle">·</text></g></g><g transform="translate(43.49,2.30)"><g fill="#111111" color="#111111"><g transform="translate(0.000,0.000) scale(0.729167)"><g clip-path="url(#clip0_496_1449)">
<path d="M22 6H18V8H22V6Z" fill="currentColor"/>
<path d="M24 8H22V14H24V8Z" fill="currentColor"/>
<path d="M22 14H2V16H22V14Z" fill="currentColor"/>
<path d="M2 8H0V14H2V8Z" fill="currentColor"/>
<path d="M4 6H2V8H4V6Z" fill="currentColor"/>
<path d="M8 4H4V6H8V4Z" fill="currentColor"/>
<path d="M16 0H10V2H16V0Z" fill="currentColor"/>
<path d="M10 2H8V4H10V2Z" fill="currentColor"/>
<path d="M10 6H8V8H10V6Z" fill="currentColor"/>
<path d="M18 2H16V4H18V2Z" fill="currentColor"/>
<path d="M20 4H18V8H20V4Z" fill="currentColor"/>
<path d="M18 8H16V10H18V8Z" fill="currentColor"/>
<rect x="11" y="18" width="2" height="2" fill="currentColor"/>
<rect x="15" y="18" width="2" height="2" fill="currentColor"/>
<rect x="7" y="18" width="2" height="2" fill="currentColor"/>
<rect x="9" y="22" width="2" height="2" fill="currentColor"/>
<rect x="13" y="22" width="2" height="2" fill="currentColor"/>
<rect x="17" y="22" width="2" height="2" fill="currentColor"/>
<rect x="5" y="22" width="2" height="2" fill="currentColor"/>
</g>
<defs>
<clipPath id="clip0_496_1449">
<rect width="24" height="24" fill="white"/>
</clipPath>
</defs></g></g></g></g><g transform="translate(215.69,17.05)"><text class="math mbin" x="3.57" y="11.05" text-anchor="middle" font-size="17.0" fill="#111111" stroke="none" dominant-baseline="middle">=</text></g><g transform="translate(232.10,0.00)"><g><g transform="translate(10.52,0.00)"><g transform="translate(0.00,2.30)"><g fill="#111111" color="#111111"><g transform="translate(0.000,0.000) scale(0.729167)"><rect x="15" y="10" width="5" height="2" fill="currentColor"/>
<rect x="4" y="10" width="5" height="2" fill="currentColor"/>
<rect x="20" y="12" width="2" height="5" fill="currentColor"/>
<rect x="9" y="12" width="2" height="5" fill="currentColor"/>
<rect x="13" y="12" width="2" height="5" fill="currentColor"/>
<rect x="2" y="12" width="2" height="5" fill="currentColor"/>
<rect x="15" y="17" width="5" height="2" fill="currentColor"/>
<rect x="4" y="17" width="5" height="2" fill="currentColor"/>
<rect x="11" y="12" width="2" height="2" fill="currentColor"/>
<rect x="2" y="6" width="2" height="6" fill="currentColor"/>
<rect x="20" y="6" width="2" height="6" fill="currentColor"/>
<rect x="4" y="4" width="2" height="2" fill="currentColor"/>
<rect x="18" y="4" width="2" height="2" fill="currentColor"/>
<rect x="6" y="12" width="3" height="2" fill="currentColor"/>
<rect x="17" y="12" width="3" height="2" fill="currentColor"/>
<rect x="4" y="14" width="2" height="3" fill="currentColor"/>
<rect x="15" y="14" width="2" height="3" fill="currentColor"/>
<rect x="6" y="16" width="3" height="1" fill="currentColor"/>
<rect x="17" y="16" width="3" height="1" fill="currentColor"/>
<rect x="8" y="14" width="1" height="2" fill="currentColor"/>
<rect x="19" y="14" width="1" height="2" fill="currentColor"/></g></g></g><g transform="translate(23.61,0.00)"><text class="math mbin" x="0.00" y="11.05" text-anchor="start" font-size="17.0" fill="#111111" stroke="none" dominant-baseline="middle">+</text></g><g transform="translate(40.45,2.30)"><g fill="#111111" color="#111111"><g transform="translate(0.000,0.000) scale(0.729167)"><rect x="5" y="6" width="14" height="2" fill="currentColor"/>
<rect x="3" y="8" width="2" height="12" fill="currentColor"/>
<rect x="5" y="20" width="14" height="2" fill="currentColor"/>
<rect x="19" y="8" width="2" height="12" fill="currentColor"/>
<rect x="7" y="16" width="2" height="6" fill="currentColor"/>
<rect x="15" y="16" width="2" height="6" fill="currentColor"/>
<rect x="9" y="14" width="6" height="2" fill="currentColor"/>
<rect x="7" y="10" width="10" height="2" fill="currentColor"/>
<rect x="8" y="4" width="2" height="2" fill="currentColor"/>
<rect x="14" y="4" width="2" height="2" fill="currentColor"/>
<rect x="10" y="2" width="4" height="2" fill="currentColor"/></g></g></g><g transform="translate(64.06,0.00)"><text class="math mbin" x="0.00" y="11.05" text-anchor="start" font-size="17.0" fill="#111111" stroke="none" dominant-baseline="middle">+</text></g><g transform="translate(80.90,2.30)"><g fill="#111111" color="#111111"><g transform="translate(0.000,0.000) scale(0.729167)"><rect x="9" y="3" width="2" height="2" fill="currentColor"/>
<rect x="13" y="3" width="2" height="2" fill="currentColor"/>
<rect x="11" y="5" width="2" height="14" fill="currentColor"/>
<rect x="13" y="9" width="2" height="2" fill="currentColor"/>
<rect width="2" height="2" transform="matrix(-1 0 0 1 11 9)" fill="currentColor"/>
<rect x="15" y="7" width="2" height="2" fill="currentColor"/>
<rect width="2" height="2" transform="matrix(-1 0 0 1 9 7)" fill="currentColor"/>
<rect x="17" y="5" width="5" height="2" fill="currentColor"/>
<rect width="5" height="2" transform="matrix(-1 0 0 1 7 5)" fill="currentColor"/>
<rect x="22" y="7" width="2" height="4" fill="currentColor"/>
<rect width="2" height="4" transform="matrix(-1 0 0 1 2 7)" fill="currentColor"/>
<rect x="20" y="11" width="2" height="2" fill="currentColor"/>
<rect width="2" height="2" transform="matrix(-1 0 0 1 4 11)" fill="currentColor"/>
<rect x="14" y="13" width="6" height="2" fill="currentColor"/>
<rect width="6" height="2" transform="matrix(-1 0 0 1 10 13)" fill="currentColor"/>
<rect x="16" y="13" width="2" height="6" fill="currentColor"/>
<rect width="2" height="6" transform="matrix(-1 0 0 1 8 13)" fill="currentColor"/>
<rect x="13" y="19" width="3" height="2" fill="currentColor"/>
<rect width="3" height="2" transform="matrix(-1 0 0 1 11 19)" fill="currentColor"/></g></g></g></g><line x1="0" y1="28.10" x2="119.44" y2="28.10" stroke="#111111" stroke-width="1.50"/><g transform="translate(9.00,35.60)"><g transform="translate(0.00,2.30)"><g fill="#111111" color="#111111"><g transform="translate(0.000,0.000) scale(0.729167)"><rect x="3" y="18" width="18" height="2" fill="currentColor"/>
<rect x="1" y="8" width="2" height="10" fill="currentColor"/>
<rect x="5" y="4" width="14" height="2" fill="currentColor"/>
<rect x="3" y="6" width="2" height="2" fill="currentColor"/>
<rect x="7" y="6" width="2" height="2" fill="currentColor"/>
<rect x="19" y="6" width="2" height="2" fill="currentColor"/>
<rect x="9" y="8" width="2" height="10" fill="currentColor"/>
<rect x="21" y="8" width="2" height="10" fill="currentColor"/>
<rect x="5" y="10" width="2" height="2" fill="currentColor"/>
<rect x="14" y="10" width="4" height="2" fill="currentColor"/>
<rect x="16" y="12" width="2" height="2" fill="currentColor"/></g></g></g><g transform="translate(24.98,0.00)"><g transform="translate(2.00,0)"><text class="math mbin" x="4.42" y="11.05" text-anchor="middle" font-size="17.0" fill="#111111" stroke="none" dominant-baseline="middle">·</text></g></g><g transform="translate(43.49,2.30)"><g fill="#111111" color="#111111"><g transform="translate(0.000,0.000) scale(0.729167)"><g clip-path="url(#clip0_496_1449)">
<path d="M22 6H18V8H22V6Z" fill="currentColor"/>
<path d="M24 8H22V14H24V8Z" fill="currentColor"/>
<path d="M22 14H2V16H22V14Z" fill="currentColor"/>
<path d="M2 8H0V14H2V8Z" fill="currentColor"/>
<path d="M4 6H2V8H4V6Z" fill="currentColor"/>
<path d="M8 4H4V6H8V4Z" fill="currentColor"/>
<path d="M16 0H10V2H16V0Z" fill="currentColor"/>
<path d="M10 2H8V4H10V2Z" fill="currentColor"/>
<path d="M10 6H8V8H10V6Z" fill="currentColor"/>
<path d="M18 2H16V4H18V2Z" fill="currentColor"/>
<path d="M20 4H18V8H20V4Z" fill="currentColor"/>
<path d="M18 8H16V10H18V8Z" fill="currentColor"/>
<rect x="11" y="18" width="2" height="2" fill="currentColor"/>
<rect x="15" y="18" width="2" height="2" fill="currentColor"/>
<rect x="7" y="18" width="2" height="2" fill="currentColor"/>
<rect x="9" y="22" width="2" height="2" fill="currentColor"/>
<rect x="13" y="22" width="2" height="2" fill="currentColor"/>
<rect x="17" y="22" width="2" height="2" fill="currentColor"/>
<rect x="5" y="22" width="2" height="2" fill="currentColor"/>
</g>
<defs>
<clipPath id="clip0_496_1449">
<rect width="24" height="24" fill="white"/>
</clipPath>
</defs></g></g></g><g transform="translate(67.10,0.00)"><text class="math mbin" x="0.00" y="11.05" text-anchor="start" font-size="17.0" fill="#111111" stroke="none" dominant-baseline="middle">+</text></g><g transform="translate(83.94,2.30)"><g fill="#111111" color="#111111"><g transform="translate(0.000,0.000) scale(0.729167)"><rect x="9" y="1" width="6" height="2" fill="currentColor"/>
<rect x="7" y="3" width="2" height="2" fill="currentColor"/>
<rect x="15" y="3" width="2" height="2" fill="currentColor"/>
<rect x="11" y="5" width="2" height="2" fill="currentColor"/>
<rect x="13" y="7" width="2" height="2" fill="currentColor"/>
<rect x="5" y="5" width="2" height="8" fill="currentColor"/>
<rect x="17" y="5" width="2" height="8" fill="currentColor"/>
<rect x="7" y="13" width="2" height="2" fill="currentColor"/>
<rect x="9" y="15" width="2" height="2" fill="currentColor"/>
<rect x="13" y="19" width="4" height="2" fill="currentColor"/>
<rect x="11" y="15" width="4" height="2" fill="currentColor"/>
<rect x="15" y="13" width="2" height="2" fill="currentColor"/>
<rect x="17" y="21" width="2" height="2" fill="currentColor"/>
<rect x="11" y="17" width="2" height="2" fill="currentColor"/></g></g></g></g></g><g transform="translate(126.92,17.05)"><g transform="translate(2.00,0)"><text class="math mbin" x="4.42" y="11.05" text-anchor="middle" font-size="17.0" fill="#111111" stroke="none" dominant-baseline="middle">·</text></g></g><g transform="translate(145.42,0.00)"><g><g transform="translate(9.00,0.00)"><g transform="translate(0.00,2.30)"><g fill="#111111" color="#111111"><g transform="translate(0.000,0.000) scale(0.729167)"><path d="M13 22H11V20H13V22ZM11 20H9V18H11V20ZM15 20H13V18H15V20ZM9 18H7V16H9V18ZM17 18H15V16H17V18ZM7 16H5V14H7V16ZM19 16H17V14H19V16ZM5 14H3V12H5V14ZM21 14H19V12H21V14ZM3 12H1V6H3V12ZM23 12H21V6H23V12ZM13 8H11V6H13V8ZM5 6H3V4H5V6ZM11 6H9V4H11V6ZM15 6H13V4H15V6ZM21 6H19V4H21V6ZM9 4H5V2H9V4ZM19 4H15V2H19V4Z" fill="currentColor"/></g></g></g><g transform="translate(24.98,0.00)"><g transform="translate(2.00,0)"><text class="math mbin" x="4.42" y="11.05" text-anchor="middle" font-size="17.0" fill="#111111" stroke="none" dominant-baseline="middle">·</text></g></g><g transform="translate(43.49,2.30)"><g fill="#111111" color="#111111"><g transform="translate(0.000,0.000) scale(0.729167)"><rect x="6" y="4" width="2" height="2" fill="currentColor"/>
<rect x="8" y="2" width="8" height="2" fill="currentColor"/>
<rect x="18" y="6" width="2" height="4" fill="currentColor"/>
<rect x="20" y="10" width="2" height="6" fill="currentColor"/>
<rect x="18" y="16" width="2" height="2" fill="currentColor"/>
<rect x="4" y="16" width="2" height="2" fill="currentColor"/>
<rect x="2" y="10" width="2" height="6" fill="currentColor"/>
<rect x="6" y="18" width="12" height="2" fill="currentColor"/>
<rect x="4" y="6" width="2" height="4" fill="currentColor"/>
<rect x="11" y="18" width="2" height="4" fill="currentColor"/>
<rect x="16" y="4" width="2" height="2" fill="currentColor"/></g></g></g></g><line x1="0" y1="28.10" x2="78.99" y2="28.10" stroke="#111111" stroke-width="1.50"/><g transform="translate(9.00,35.60)"><g transform="translate(0.00,2.30)"><g fill="#111111" color="#111111"><g transform="translate(0.000,0.000) scale(0.729167)"><rect x="4" y="6" width="16" height="2" fill="currentColor"/>
<rect x="4" y="8" width="2" height="10" fill="currentColor"/>
<rect x="6" y="18" width="10" height="2" fill="currentColor"/>
<rect x="20" y="8" width="2" height="4" fill="currentColor"/>
<rect x="18" y="12" width="2" height="2" fill="currentColor"/>
<rect x="16" y="8" width="2" height="10" fill="currentColor"/>
<rect x="7" y="2" width="2" height="2" fill="currentColor"/>
<rect x="13" y="2" width="2" height="2" fill="currentColor"/>
<rect x="9" width="2" height="2" fill="currentColor"/>
<rect x="15" width="2" height="2" fill="currentColor"/></g></g></g><g transform="translate(24.98,0.00)"><g transform="translate(2.00,0)"><text class="math mbin" x="4.42" y="11.05" text-anchor="middle" font-size="17.0" fill="#111111" stroke="none" dominant-baseline="middle">·</text></g></g><g transform="translate(43.49,2.30)"><g fill="#111111" color="#111111"><g transform="translate(0.000,0.000) scale(0.729167)"><rect x="5" y="6" width="14" height="2" fill="currentColor"/>
<rect x="3" y="8" width="2" height="12" fill="currentColor"/>
<rect x="5" y="20" width="14" height="2" fill="currentColor"/>
<rect x="19" y="8" width="2" height="12" fill="currentColor"/>
<rect x="7" y="16" width="2" height="6" fill="currentColor"/>
<rect x="15" y="16" width="2" height="6" fill="currentColor"/>
<rect x="9" y="14" width="6" height="2" fill="currentColor"/>
<rect x="7" y="10" width="10" height="2" fill="currentColor"/>
<rect x="8" y="4" width="2" height="2" fill="currentColor"/>
<rect x="14" y="4" width="2" height="2" fill="currentColor"/>
<rect x="10" y="2" width="4" height="2" fill="currentColor"/></g></g></g></g></g></g></g></g></g></svg>