<?xml version="1.0" encoding="UTF-8"?><svg xmlns="http://www.w3.org/2000/svg" xmlns:xlink="http://www.w3.org/1999/xlink" width="261.1" height="157.3" viewBox="0 0 261.1 157.3" overflow="visible"><defs><style type="text/css">@import url('https://fonts.googleapis.com/css2?family=STIX+Two+Math&amp;display=swap');text.math { font-family: 'STIX Two Math', 'STIX Two Text', 'Times New Roman', serif; text-rendering: geometricPrecision; shape-rendering: geometricPrecision; } text.mop { font-style: normal; font-weight: 400; } text.mit { font-style: italic; font-weight: 400; } text.mbin { font-style: normal; font-weight: 400; letter-spacing: 0.02em; } </style></defs><rect width="100%" height="100%" fill="#faf8f5"/><g fill="#111111" color="#111111"><g transform="translate(32.00,32.00)"><g><g transform="translate(9.00,0.00)"><g transform="translate(0.00,2.30)"><g fill="#111111" color="#111111"><g transform="translate(0.000,0.000) scale(0.729167)"><rect x="1" y="14" width="2" height="6" fill="currentColor"/>
<rect x="3" y="12" width="2" height="2" fill="currentColor"/>
<rect x="5" y="10" width="2" height="2" fill="currentColor"/>
<rect x="7" y="8" width="2" height="2" fill="currentColor"/>
<rect x="9" y="6" width="2" height="2" fill="currentColor"/>
<rect x="11" y="4" width="2" height="2" fill="currentColor"/>
<rect x="13" y="2" width="6" height="2" fill="currentColor"/>
<rect x="19" y="4" width="2" height="4" fill="currentColor"/>
<rect x="17" y="10" width="2" height="6" fill="currentColor"/>
<rect x="19" y="8" width="4" height="2" fill="currentColor"/>
<rect x="15" y="6" width="2" height="2" fill="currentColor"/>
<rect x="1" y="18" width="14" height="2" fill="currentColor"/>
<rect x="15" y="16" width="2" height="2" fill="currentColor"/>
<rect x="11" y="20" width="2" height="2" fill="currentColor"/>
<rect x="7" y="20" width="2" height="2" fill="currentColor"/>
<rect x="7" y="16" width="2" height="2" fill="currentColor"/>
<rect x="9" y="14" width="2" height="2" fill="currentColor"/>
<rect x="11" y="10" width="2" height="4" fill="currentColor"/></g></g></g><g transform="translate(22.92,0.00)"><text class="math mbin" x="4.42" y="11.05" text-anchor="middle" font-size="17.0" fill="#111111" stroke="none" dominant-baseline="middle">·</text></g><g transform="translate(40.37,2.30)"><g fill="#111111" color="#111111"><g transform="translate(0.000,0.000) scale(0.729167)"><rect x="3" y="3" width="18" height="2" fill="currentColor"/>
<rect x="3" y="3" width="2" height="2" fill="currentColor"/>
<rect x="19" y="3" width="2" height="2" fill="currentColor"/>
<rect x="11" y="11" width="2" height="8" fill="currentColor"/>
<rect x="7" y="19" width="10" height="2" fill="currentColor"/>
<rect x="7" y="7" width="2" height="2" fill="currentColor"/>
<rect x="5" y="5" width="2" height="2" fill="currentColor"/>
<rect x="17" y="5" width="2" height="2" fill="currentColor"/>
<rect x="15" y="7" width="2" height="2" fill="currentColor"/>
<rect x="9" y="9" width="6" height="2" fill="currentColor"/></g></g></g><g transform="translate(63.29,0.00)"><text class="math mbin" x="4.42" y="11.05" text-anchor="middle" font-size="17.0" fill="#111111" stroke="none" dominant-baseline="middle">·</text></g><g transform="translate(80.73,0.00)"><g transform="translate(0.00,2.30)"><g fill="#111111" color="#111111"><g transform="translate(0.000,0.000) scale(0.729167)"><rect x="4" y="2" width="2" height="20" fill="currentColor"/>
<rect x="4" y="4" width="16" height="2" fill="currentColor"/>
<rect x="16" y="6" width="2" height="2" fill="currentColor"/>
<rect x="14" y="8" width="2" height="2" fill="currentColor"/>
<rect x="16" y="10" width="2" height="2" fill="currentColor"/>
<rect x="4" y="12" width="16" height="2" fill="currentColor"/></g></g></g><g transform="translate(23.61,0.00)"><text class="math mbin" x="0.00" y="11.05" text-anchor="start" font-size="17.0" fill="#111111" stroke="none" dominant-baseline="middle">+</text></g><g transform="translate(40.45,0.00)"><g transform="translate(0.00,2.30)"><g fill="#111111" color="#111111"><g transform="translate(0.000,0.000) scale(0.729167)"><rect x="4" y="3" width="6" height="2" fill="currentColor"/>
<rect x="2" y="3" width="2" height="8" fill="currentColor"/>
<rect x="4" y="9" width="4" height="2" fill="currentColor"/>
<rect x="6" y="9" width="2" height="10" fill="currentColor"/>
<rect x="16" y="9" width="2" height="4" fill="currentColor"/>
<rect x="16" y="9" width="4" height="2" fill="currentColor"/>
<rect x="20" y="3" width="2" height="8" fill="currentColor"/>
<rect x="14" y="3" width="6" height="2" fill="currentColor"/>
<rect x="10" y="5" width="4" height="2" fill="currentColor"/>
<rect x="10" y="15" width="4" height="2" fill="currentColor"/>
<rect x="10" y="19" width="4" height="2" fill="currentColor"/>
<rect x="14" y="17" width="4" height="2" fill="currentColor"/>
<rect x="14" y="21" width="4" height="2" fill="currentColor"/>
<rect x="18" y="15" width="4" height="2" fill="currentColor"/>
<rect x="18" y="19" width="4" height="2" fill="currentColor"/></g></g></g><g transform="translate(23.61,0.00)"><text class="math mbin" x="0.00" y="11.05" text-anchor="start" font-size="17.0" fill="#111111" stroke="none" dominant-baseline="middle">−</text></g><g transform="translate(40.45,2.30)"><g fill="#111111" color="#111111"><g transform="translate(0.000,0.000) scale(0.729167)"><rect x="5" y="6" width="14" height="2" fill="currentColor"/>
<rect x="3" y="8" width="2" height="12" fill="currentColor"/>
<rect x="5" y="20" width="14" height="2" fill="currentColor"/>
<rect x="19" y="8" width="2" height="12" fill="currentColor"/>
<rect x="7" y="16" width="2" height="6" fill="currentColor"/>
<rect x="15" y="16" width="2" height="6" fill="currentColor"/>
<rect x="9" y="14" width="6" height="2" fill="currentColor"/>
<rect x="7" y="10" width="10" height="2" fill="currentColor"/>
<rect x="8" y="4" width="2" height="2" fill="currentColor"/>
<rect x="14" y="4" width="2" height="2" fill="currentColor"/>
<rect x="10" y="2" width="4" height="2" fill="currentColor"/></g></g></g></g></g></g><line x1="0" y1="28.10" x2="197.13" y2="28.10" stroke="#111111" stroke-width="1.50"/><g transform="translate(20.18,35.60)"><g transform="translate(0.00,17.80)"><g transform="translate(0.00,2.30)"><g fill="#111111" color="#111111"><g transform="translate(0.000,0.000) scale(0.729167)"><g clip-path="url(#clip0_496_1719)">
<path d="M4 20H6V22H4V24H2V22H0V20H2V18H4V20ZM16 20H8V18H16V20ZM8 18H6V16H8V18ZM18 18H16V16H18V18ZM6 16H4V8H6V16ZM20 16H18V12H16V10H18V8H20V16ZM16 14H12V12H16V14ZM12 12H10V8H12V12ZM8 8H6V6H8V8ZM16 6H14V8H12V6H8V4H16V6ZM22 2H24V4H22V6H20V4H18V2H20V0H22V2Z" fill="currentColor"/>
</g>
<defs>
<clipPath id="clip0_496_1719">
<rect width="24" height="24" fill="white"/>
</clipPath>
</defs></g></g></g><g transform="translate(23.61,0.00)"><text class="math mbin" x="0.00" y="11.05" text-anchor="start" font-size="17.0" fill="#111111" stroke="none" dominant-baseline="middle">+</text></g><g transform="translate(40.45,2.30)"><g fill="#111111" color="#111111"><g transform="translate(0.000,0.000) scale(0.729167)"><rect x="4" y="2" width="4" height="2" fill="currentColor"/>
<rect width="4" height="2" transform="matrix(-1 0 0 1 20 2)" fill="currentColor"/>
<rect x="2" y="2" width="2" height="6" fill="currentColor"/>
<rect width="2" height="6" transform="matrix(-1 0 0 1 22 2)" fill="currentColor"/>
<rect x="4" y="8" width="2" height="2" fill="currentColor"/>
<rect width="2" height="2" transform="matrix(-1 0 0 1 20 8)" fill="currentColor"/>
<rect x="2" y="10" width="2" height="8" fill="currentColor"/>
<rect width="2" height="8" transform="matrix(-1 0 0 1 22 10)" fill="currentColor"/>
<rect x="4" y="18" width="2" height="2" fill="currentColor"/>
<rect width="2" height="2" transform="matrix(-1 0 0 1 20 18)" fill="currentColor"/>
<rect x="6" y="20" width="12" height="2" fill="currentColor"/>
<rect x="8" y="4" width="8" height="2" fill="currentColor"/>
<rect x="6" y="12" width="2" height="2" fill="currentColor"/>
<rect x="16" y="12" width="2" height="2" fill="currentColor"/>
<rect x="9" y="14" width="6" height="2" fill="currentColor"/>
<rect x="11" y="16" width="2" height="2" fill="currentColor"/></g></g></g></g><g transform="translate(63.37,17.80)"><text class="math mbin" x="4.42" y="11.05" text-anchor="middle" font-size="17.0" fill="#111111" stroke="none" dominant-baseline="middle">·</text></g><g transform="translate(80.82,0.00)"><g><g transform="translate(9.04,0.00)"><g transform="translate(0.00,2.30)"><g fill="#111111" color="#111111"><g transform="translate(0.000,0.000) scale(0.729167)"><rect x="9" y="2" width="6" height="2" fill="currentColor"/>
<rect x="7" y="4" width="2" height="2" fill="currentColor"/>
<rect x="15" y="4" width="2" height="2" fill="currentColor"/>
<rect x="5" y="6" width="2" height="7" fill="currentColor"/>
<rect x="17" y="6" width="2" height="7" fill="currentColor"/>
<rect x="3" y="13" width="2" height="4" fill="currentColor"/>
<rect x="19" y="13" width="2" height="4" fill="currentColor"/>
<rect x="3" y="15" width="18" height="2" fill="currentColor"/>
<rect x="8" y="18" width="2" height="2" fill="currentColor"/>
<rect x="14" y="18" width="2" height="2" fill="currentColor"/>
<rect x="10" y="20" width="4" height="2" fill="currentColor"/></g></g></g><g transform="translate(22.92,0.00)"><text class="math mbin" x="4.42" y="11.05" text-anchor="middle" font-size="17.0" fill="#111111" stroke="none" dominant-baseline="middle">·</text></g><g transform="translate(40.37,2.30)"><g fill="#111111" color="#111111"><g transform="translate(0.000,0.000) scale(0.729167)"><rect x="9" y="2" width="2" height="4" fill="currentColor"/>
<rect x="7" y="6" width="2" height="2" fill="currentColor"/>
<rect x="5" y="8" width="2" height="2" fill="currentColor"/>
<rect x="13" y="10" width="2" height="2" fill="currentColor"/>
<rect x="15" y="8" width="2" height="2" fill="currentColor"/>
<rect x="17" y="10" width="2" height="2" fill="currentColor"/>
<rect x="19" y="12" width="2" height="6" fill="currentColor"/>
<rect x="3" y="10" width="2" height="8" fill="currentColor"/>
<rect x="11" y="6" width="2" height="4" fill="currentColor"/>
<rect x="17" y="18" width="2" height="2" fill="currentColor"/>
<rect x="7" y="20" width="10" height="2" fill="currentColor"/>
<rect x="5" y="18" width="2" height="2" fill="currentColor"/>
<rect x="9" y="16" width="6" height="4" fill="currentColor"/>
<rect x="11" y="14" width="2" height="3" fill="currentColor"/></g></g></g></g><line x1="0" y1="28.10" x2="75.95" y2="28.10" stroke="#111111" stroke-width="1.50"/><g transform="translate(9.00,35.60)"><g transform="translate(0.00,2.30)"><g fill="#111111" color="#111111"><g transform="translate(0.000,0.000) scale(0.729167)"><rect x="9" y="1" width="6" height="2" fill="currentColor"/>
<rect x="7" y="3" width="2" height="2" fill="currentColor"/>
<rect x="15" y="3" width="2" height="2" fill="currentColor"/>
<rect x="11" y="5" width="2" height="2" fill="currentColor"/>
<rect x="13" y="7" width="2" height="2" fill="currentColor"/>
<rect x="5" y="5" width="2" height="8" fill="currentColor"/>
<rect x="17" y="5" width="2" height="8" fill="currentColor"/>
<rect x="7" y="13" width="2" height="2" fill="currentColor"/>
<rect x="9" y="15" width="2" height="2" fill="currentColor"/>
<rect x="13" y="19" width="4" height="2" fill="currentColor"/>
<rect x="11" y="15" width="4" height="2" fill="currentColor"/>
<rect x="15" y="13" width="2" height="2" fill="currentColor"/>
<rect x="17" y="21" width="2" height="2" fill="currentColor"/>
<rect x="11" y="17" width="2" height="2" fill="currentColor"/></g></g></g><g transform="translate(23.61,0.00)"><text class="math mbin" x="0.00" y="11.05" text-anchor="start" font-size="17.0" fill="#111111" stroke="none" dominant-baseline="middle">−</text></g><g transform="translate(40.45,2.30)"><g fill="#111111" color="#111111"><g transform="translate(0.000,0.000) scale(0.729167)"><rect x="2" y="18" width="7" height="2" fill="currentColor"/>
<rect x="16" y="18" width="6" height="2" fill="currentColor"/>
<rect x="4" y="6" width="2" height="12" fill="currentColor"/>
<rect x="6" y="4" width="3" height="2" fill="currentColor"/>
<rect x="17" y="6" width="2" height="12" fill="currentColor"/>
<rect x="9" y="2" width="2" height="20" fill="currentColor"/>
<rect x="11" y="20" width="4" height="2" fill="currentColor"/>
<rect x="15" y="18" width="4" height="2" fill="currentColor"/>
<rect x="15" y="4" width="4" height="2" fill="currentColor"/>
<rect x="11" y="2" width="4" height="2" fill="currentColor"/>
<rect x="12" y="10" width="2" height="2" fill="currentColor"/></g></g></g></g></g></g></g></g></g></g></svg>