<?xml version="1.0" encoding="UTF-8"?><svg xmlns="http://www.w3.org/2000/svg" xmlns:xlink="http://www.w3.org/1999/xlink" width="449.9" height="192.9" viewBox="0 0 449.9 192.9" overflow="visible"><defs><style type="text/css">@import url('https://fonts.googleapis.com/css2?family=STIX+Two+Math&amp;display=swap');text.math { font-family: 'STIX Two Math', 'STIX Two Text', 'Times New Roman', serif; text-rendering: geometricPrecision; shape-rendering: geometricPrecision; } text.mop { font-style: normal; font-weight: 400; } text.mit { font-style: italic; font-weight: 400; } text.mbin { font-style: normal; font-weight: 400; letter-spacing: 0.02em; } </style></defs><rect width="100%" height="100%" fill="#faf8f5"/><g fill="#111111" color="#111111"><g transform="translate(32.00,32.00)"><g transform="translate(0.00,35.60)"><g transform="translate(0.00,19.35)"><g fill="#111111" color="#111111"><g transform="translate(0.000,0.000) scale(0.729167)"><rect x="9" y="1" width="6" height="2" fill="currentColor"/>
<rect x="9" y="3" width="2" height="4" fill="currentColor"/>
<rect x="13" y="3" width="2" height="4" fill="currentColor"/>
<rect x="7" y="7" width="2" height="2" fill="currentColor"/>
<rect x="15" y="7" width="2" height="2" fill="currentColor"/>
<rect x="17" y="9" width="2" height="12" fill="currentColor"/>
<rect x="5" y="9" width="2" height="12" fill="currentColor"/>
<rect x="7" y="21" width="10" height="2" fill="currentColor"/></g></g></g><g transform="translate(24.98,17.05)"><g transform="translate(2.00,0)"><text class="math mbin" x="4.42" y="11.05" text-anchor="middle" font-size="17.0" fill="#111111" stroke="none" dominant-baseline="middle">·</text></g></g><g transform="translate(43.49,0.00)"><g><g transform="translate(9.00,0.00)"><g transform="translate(0.00,2.30)"><g fill="#111111" color="#111111"><g transform="translate(0.000,0.000) scale(0.729167)"><g clip-path="url(#clip0_496_1961)">
<rect x="11" width="2" height="2" fill="currentColor"/>
<rect x="13" y="24" width="2" height="2" transform="rotate(180 13 24)" fill="currentColor"/>
<rect y="13" width="2" height="2" transform="rotate(-90 0 13)" fill="currentColor"/>
<rect x="24" y="11" width="2" height="2" transform="rotate(90 24 11)" fill="currentColor"/>
<rect x="9" y="2" width="2" height="6" fill="currentColor"/>
<rect x="15" y="22" width="2" height="6" transform="rotate(180 15 22)" fill="currentColor"/>
<rect x="2" y="15" width="2" height="6" transform="rotate(-90 2 15)" fill="currentColor"/>
<rect x="22" y="9" width="2" height="6" transform="rotate(90 22 9)" fill="currentColor"/>
<rect x="13" y="2" width="2" height="6" fill="currentColor"/>
<rect x="11" y="22" width="2" height="6" transform="rotate(180 11 22)" fill="currentColor"/>
<rect x="2" y="11" width="2" height="6" transform="rotate(-90 2 11)" fill="currentColor"/>
<rect x="22" y="13" width="2" height="6" transform="rotate(90 22 13)" fill="currentColor"/>
<rect x="7" y="4" width="2" height="2" fill="currentColor"/>
<rect width="2" height="2" transform="matrix(-1 0 0 1 17 4)" fill="currentColor"/>
<rect x="17" y="20" width="2" height="2" transform="rotate(180 17 20)" fill="currentColor"/>
<rect width="2" height="2" transform="matrix(1 0 0 -1 7 20)" fill="currentColor"/>
<rect x="2" y="2" width="5" height="2" fill="currentColor"/>
<rect width="5" height="2" transform="matrix(-1 0 0 1 22 2)" fill="currentColor"/>
<rect x="22" y="22" width="5" height="2" transform="rotate(180 22 22)" fill="currentColor"/>
<rect width="5" height="2" transform="matrix(1 0 0 -1 2 22)" fill="currentColor"/>
<rect x="2" y="2" width="2" height="5" fill="currentColor"/>
<rect width="2" height="5" transform="matrix(-1 0 0 1 22 2)" fill="currentColor"/>
<rect x="22" y="22" width="2" height="5" transform="rotate(180 22 22)" fill="currentColor"/>
<rect width="2" height="5" transform="matrix(1 0 0 -1 2 22)" fill="currentColor"/>
<rect x="4" y="7" width="2" height="2" fill="currentColor"/>
<rect width="2" height="2" transform="matrix(-1 0 0 1 20 7)" fill="currentColor"/>
<rect x="20" y="17" width="2" height="2" transform="rotate(180 20 17)" fill="currentColor"/>
<rect width="2" height="2" transform="matrix(1 0 0 -1 4 17)" fill="currentColor"/>
</g>
<defs>
<clipPath id="clip0_496_1961">
<rect width="24" height="24" fill="white"/>
</clipPath>
</defs></g></g></g><g transform="translate(23.61,0.00)"><text class="math mbin" x="0.00" y="11.05" text-anchor="start" font-size="17.0" fill="#111111" stroke="none" dominant-baseline="middle">+</text></g><g transform="translate(40.45,2.30)"><g fill="#111111" color="#111111"><g transform="translate(0.000,0.000) scale(0.729167)"><rect x="7" y="2" width="10" height="2" fill="currentColor"/>
<rect x="5" y="4" width="2" height="10" fill="currentColor"/>
<rect x="17" y="2" width="2" height="12" fill="currentColor"/>
<rect x="13" y="2" width="2" height="6" fill="currentColor"/>
<rect x="9" y="2" width="2" height="4" fill="currentColor"/>
<rect x="5" y="10" width="14" height="2" fill="currentColor"/>
<rect x="7" y="14" width="10" height="2" fill="currentColor"/>
<rect x="9" y="16" width="2" height="4" fill="currentColor"/>
<rect x="13" y="16" width="2" height="4" fill="currentColor"/>
<rect x="9" y="20" width="6" height="2" fill="currentColor"/></g></g></g><g transform="translate(64.06,0.00)"><text class="math mbin" x="0.00" y="11.05" text-anchor="start" font-size="17.0" fill="#111111" stroke="none" dominant-baseline="middle">+</text></g><g transform="translate(80.90,0.00)"><g transform="translate(0.00,2.30)"><g fill="#111111" color="#111111"><g transform="translate(0.000,0.000) scale(0.729167)"><rect x="2" y="20" width="2" height="2" fill="currentColor"/>
<rect x="8" y="18" width="6" height="2" fill="currentColor"/>
<rect x="6" y="16" width="2" height="2" fill="currentColor"/>
<rect x="4" y="18" width="2" height="2" fill="currentColor"/>
<rect x="8" y="14" width="2" height="2" fill="currentColor"/>
<rect x="10" y="12" width="2" height="2" fill="currentColor"/>
<rect x="12" y="10" width="2" height="2" fill="currentColor"/>
<rect x="14" y="8" width="2" height="2" fill="currentColor"/>
<rect x="14" y="16" width="2" height="2" fill="currentColor"/>
<rect x="16" y="14" width="2" height="2" fill="currentColor"/>
<rect x="18" y="12" width="2" height="2" fill="currentColor"/>
<rect x="20" y="6" width="2" height="6" fill="currentColor"/>
<rect x="18" y="4" width="2" height="2" fill="currentColor"/>
<rect x="4" y="10" width="2" height="6" fill="currentColor"/>
<rect x="6" y="8" width="2" height="2" fill="currentColor"/>
<rect x="8" y="6" width="2" height="2" fill="currentColor"/>
<rect x="10" y="4" width="2" height="2" fill="currentColor"/>
<rect x="12" y="2" width="6" height="2" fill="currentColor"/></g></g></g><g transform="translate(24.98,0.00)"><g transform="translate(2.00,0)"><text class="math mbin" x="4.42" y="11.05" text-anchor="middle" font-size="17.0" fill="#111111" stroke="none" dominant-baseline="middle">·</text></g></g><g transform="translate(43.49,2.30)"><g fill="#111111" color="#111111"><g transform="translate(0.000,0.000) scale(0.729167)"><rect x="14" y="4" width="4" height="2" fill="currentColor"/>
<rect x="10" y="2" width="4" height="2" fill="currentColor"/>
<rect x="6" y="8" width="4" height="2" fill="currentColor"/>
<rect x="6" y="18" width="4" height="2" fill="currentColor"/>
<rect x="10" y="10" width="4" height="2" fill="currentColor"/>
<rect x="10" y="20" width="4" height="2" fill="currentColor"/>
<rect x="14" y="8" width="4" height="2" fill="currentColor"/>
<rect x="14" y="18" width="4" height="2" fill="currentColor"/>
<rect x="6" y="4" width="4" height="2" fill="currentColor"/>
<rect x="2" y="6" width="4" height="2" fill="currentColor"/>
<rect x="2" y="16" width="4" height="2" fill="currentColor"/>
<rect x="18" y="6" width="4" height="2" fill="currentColor"/>
<rect x="18" y="16" width="4" height="2" fill="currentColor"/>
<rect x="2" y="6" width="2" height="12" fill="currentColor"/>
<rect x="20" y="6" width="2" height="12" fill="currentColor"/>
<rect x="12" y="12" width="2" height="8" fill="currentColor"/></g></g></g></g></g><line x1="0" y1="28.10" x2="159.89" y2="28.10" stroke="#111111" stroke-width="1.50"/><g transform="translate(41.97,35.60)"><g><g transform="translate(9.00,0.00)"><g transform="translate(0.00,2.30)"><g fill="#111111" color="#111111"><g transform="translate(0.000,0.000) scale(0.729167)"><rect x="7" y="2" width="10" height="2" fill="currentColor"/>
<rect x="5" y="4" width="2" height="10" fill="currentColor"/>
<rect x="17" y="2" width="2" height="12" fill="currentColor"/>
<rect x="13" y="2" width="2" height="6" fill="currentColor"/>
<rect x="9" y="2" width="2" height="4" fill="currentColor"/>
<rect x="5" y="10" width="14" height="2" fill="currentColor"/>
<rect x="7" y="14" width="10" height="2" fill="currentColor"/>
<rect x="9" y="16" width="2" height="4" fill="currentColor"/>
<rect x="13" y="16" width="2" height="4" fill="currentColor"/>
<rect x="9" y="20" width="6" height="2" fill="currentColor"/></g></g></g><g transform="translate(23.61,0.00)"><text class="math mbin" x="0.00" y="11.05" text-anchor="start" font-size="17.0" fill="#111111" stroke="none" dominant-baseline="middle">+</text></g><g transform="translate(40.45,2.30)"><g fill="#111111" color="#111111"><g transform="translate(0.000,0.000) scale(0.729167)"><g clip-path="url(#clip0_496_1719)">
<path d="M4 20H6V22H4V24H2V22H0V20H2V18H4V20ZM16 20H8V18H16V20ZM8 18H6V16H8V18ZM18 18H16V16H18V18ZM6 16H4V8H6V16ZM20 16H18V12H16V10H18V8H20V16ZM16 14H12V12H16V14ZM12 12H10V8H12V12ZM8 8H6V6H8V8ZM16 6H14V8H12V6H8V4H16V6ZM22 2H24V4H22V6H20V4H18V2H20V0H22V2Z" fill="currentColor"/>
</g>
<defs>
<clipPath id="clip0_496_1719">
<rect width="24" height="24" fill="white"/>
</clipPath>
</defs></g></g></g></g><line x1="0" y1="28.10" x2="75.95" y2="28.10" stroke="#111111" stroke-width="1.50"/><g transform="translate(9.00,35.60)"><g transform="translate(0.00,2.30)"><g fill="#111111" color="#111111"><g transform="translate(0.000,0.000) scale(0.729167)"><rect x="6" y="2.99997" width="12" height="2" fill="currentColor"/>
<rect x="6" y="2.99997" width="2" height="12" fill="currentColor"/>
<rect x="16" y="2.99997" width="2" height="12" fill="currentColor"/>
<rect x="16" y="4.99997" width="6" height="2" fill="currentColor"/>
<rect x="2" y="4.99997" width="6" height="2" fill="currentColor"/>
<rect x="2" y="7" width="2" height="4" fill="currentColor"/>
<rect x="4" y="11" width="2" height="2" fill="currentColor"/>
<rect x="18" y="11" width="2" height="2" fill="currentColor"/>
<rect x="20" y="7" width="2" height="4" fill="currentColor"/>
<rect x="8" y="15" width="8" height="2" fill="currentColor"/>
<rect x="11" y="17.0001" width="2" height="4" fill="currentColor"/>
<rect x="9" y="19" width="6" height="2" fill="currentColor"/></g></g></g><g transform="translate(23.61,0.00)"><text class="math mbin" x="0.00" y="11.05" text-anchor="start" font-size="17.0" fill="#111111" stroke="none" dominant-baseline="middle">+</text></g><g transform="translate(40.45,2.30)"><g fill="#111111" color="#111111"><g transform="translate(0.000,0.000) scale(0.729167)"><rect width="12" height="2" transform="matrix(-1 0 0 1 20 2)" fill="currentColor"/>
<rect width="8" height="2" transform="matrix(-1 0 0 1 18 6)" fill="currentColor"/>
<rect width="4" height="2" transform="matrix(-1 0 0 1 14 10)" fill="currentColor"/>
<rect width="12" height="2" transform="matrix(-1 0 0 1 20 16)" fill="currentColor"/>
<rect width="12" height="2" transform="matrix(-1 0 0 1 16 20)" fill="currentColor"/>
<rect width="2" height="12" transform="matrix(-1 0 0 1 22 4)" fill="currentColor"/>
<rect width="2" height="12" transform="matrix(-1 0 0 1 8 4)" fill="currentColor"/>
<rect width="2" height="12" transform="matrix(-1 0 0 1 4 8)" fill="currentColor"/>
<rect width="2" height="2" transform="matrix(-1 0 0 1 6 6)" fill="currentColor"/>
<rect width="2" height="2" transform="matrix(-1 0 0 1 18 18)" fill="currentColor"/></g></g></g></g></g></g></g></g></g><g transform="translate(212.65,52.65)"><text class="math mbin" x="3.57" y="11.05" text-anchor="middle" font-size="17.0" fill="#111111" stroke="none" dominant-baseline="middle">=</text></g><g transform="translate(229.06,0.00)"><g transform="translate(0.00,54.95)"><g fill="#111111" color="#111111"><g transform="translate(0.000,0.000) scale(0.729167)"><path d="M3 19H5V17H19V19H21V17H23V11H21V15H3V11H1V17H3V19ZM5 21H19V19H5V21ZM3 11H7V7H5V5H3V11ZM9 13H11V11H9V13ZM13 13H15V11H13V13ZM5 5H9V3H5V5ZM9 7H15V5H9V7ZM17 11H21V5H19V7H17V11ZM15 5H19V3H15V5Z" fill="currentColor"/></g></g></g><g transform="translate(23.61,52.65)"><text class="math mbin" x="0.00" y="11.05" text-anchor="start" font-size="17.0" fill="#111111" stroke="none" dominant-baseline="middle">+</text></g><g transform="translate(40.45,0.00)"><g><g transform="translate(20.22,0.00)"><g><g transform="translate(9.00,0.00)"><g transform="translate(0.00,2.30)"><g fill="#111111" color="#111111"><g transform="translate(0.000,0.000) scale(0.729167)"><rect x="1" y="18" width="2" height="4" fill="currentColor"/>
<rect x="3" y="16" width="2" height="2" fill="currentColor"/>
<rect x="5" y="14" width="6" height="2" fill="currentColor"/>
<rect x="11" y="12" width="2" height="2" fill="currentColor"/>
<rect x="5" y="18" width="4" height="2" fill="currentColor"/>
<rect x="9" y="20" width="4" height="2" fill="currentColor"/>
<rect x="13" y="18" width="4" height="2" fill="currentColor"/>
<rect x="17" y="16" width="2" height="2" fill="currentColor"/>
<rect x="19" y="8" width="2" height="8" fill="currentColor"/>
<rect x="19" y="4" width="2" height="4" fill="currentColor"/>
<rect x="17" y="2" width="2" height="2" fill="currentColor"/>
<rect x="13" y="4" width="4" height="2" fill="currentColor"/>
<rect x="7" y="6" width="6" height="2" fill="currentColor"/>
<rect x="5" y="8" width="2" height="2" fill="currentColor"/>
<rect x="3" y="10" width="2" height="4" fill="currentColor"/></g></g></g><g transform="translate(23.61,0.00)"><text class="math mbin" x="0.00" y="11.05" text-anchor="start" font-size="17.0" fill="#111111" stroke="none" dominant-baseline="middle">+</text></g><g transform="translate(40.45,2.30)"><g fill="#111111" color="#111111"><g transform="translate(0.000,0.000) scale(0.729167)"><rect x="2" y="12" width="20" height="2" fill="currentColor"/>
<rect x="2" y="10" width="2" height="2" fill="currentColor"/>
<rect x="2" y="8" width="2" height="2" fill="currentColor"/>
<rect x="4" y="6" width="2" height="2" fill="currentColor"/>
<rect x="20" y="10" width="2" height="2" fill="currentColor"/>
<rect x="20" y="8" width="2" height="2" fill="currentColor"/>
<rect x="18" y="6" width="2" height="2" fill="currentColor"/>
<rect x="16" y="4" width="2" height="2" fill="currentColor"/>
<rect x="6" y="4" width="2" height="2" fill="currentColor"/>
<rect x="8" y="2" width="8" height="2" fill="currentColor"/>
<rect x="7" y="20" width="10" height="2" fill="currentColor"/>
<rect x="7" y="18" width="2" height="2" fill="currentColor"/>
<rect x="9" y="16" width="6" height="2" fill="currentColor"/>
<rect x="15" y="18" width="2" height="2" fill="currentColor"/>
<rect x="11" y="12" width="2" height="4" fill="currentColor"/></g></g></g></g><line x1="0" y1="28.10" x2="75.95" y2="28.10" stroke="#111111" stroke-width="1.50"/><g transform="translate(9.00,35.60)"><g transform="translate(0.00,2.30)"><g fill="#111111" color="#111111"><g transform="translate(0.000,0.000) scale(0.729167)"><rect x="8" y="2" width="8" height="2" fill="currentColor"/>
<rect x="16" y="22" width="8" height="2" transform="rotate(180 16 22)" fill="currentColor"/>
<rect x="6" y="4" width="2" height="4" fill="currentColor"/>
<rect x="18" y="20" width="2" height="4" transform="rotate(180 18 20)" fill="currentColor"/>
<rect x="4" y="6" width="4" height="2" fill="currentColor"/>
<rect x="20" y="18" width="4" height="2" transform="rotate(180 20 18)" fill="currentColor"/>
<rect x="2" y="8" width="2" height="8" fill="currentColor"/>
<rect x="22" y="16" width="2" height="8" transform="rotate(180 22 16)" fill="currentColor"/>
<rect x="16" y="4" width="2" height="4" fill="currentColor"/>
<rect x="16" y="6" width="4" height="2" fill="currentColor"/>
<rect x="4" y="16" width="4" height="2" fill="currentColor"/>
<rect x="6" y="16" width="2" height="4" fill="currentColor"/>
<rect x="8" y="14" width="2" height="2" fill="currentColor"/>
<rect width="2" height="2" transform="matrix(-1 0 0 1 16 14)" fill="currentColor"/>
<rect x="10" y="12" width="2" height="2" fill="currentColor"/>
<rect width="2" height="2" transform="matrix(-1 0 0 1 14 12)" fill="currentColor"/>
<rect x="12" y="10" width="2" height="2" fill="currentColor"/>
<rect width="2" height="2" transform="matrix(-1 0 0 1 12 10)" fill="currentColor"/>
<rect x="14" y="8" width="2" height="2" fill="currentColor"/>
<rect width="2" height="2" transform="matrix(-1 0 0 1 10 8)" fill="currentColor"/></g></g></g><g transform="translate(23.61,0.00)"><text class="math mbin" x="0.00" y="11.05" text-anchor="start" font-size="17.0" fill="#111111" stroke="none" dominant-baseline="middle">−</text></g><g transform="translate(40.45,2.30)"><g fill="#111111" color="#111111"><g transform="translate(0.000,0.000) scale(0.729167)"><rect x="9" y="5" width="6" height="2" fill="currentColor"/>
<rect x="7" y="7" width="2" height="2" fill="currentColor"/>
<rect x="5" y="9" width="2" height="6" fill="currentColor"/>
<rect x="7" y="15" width="2" height="2" fill="currentColor"/>
<rect x="9" y="17" width="6" height="2" fill="currentColor"/>
<rect x="15" y="15" width="2" height="2" fill="currentColor"/>
<rect x="17" y="9" width="2" height="6" fill="currentColor"/>
<rect x="15" y="7" width="2" height="2" fill="currentColor"/>
<rect x="9" y="1" width="2" height="4" fill="currentColor"/>
<rect x="9" y="19" width="2" height="4" fill="currentColor"/>
<rect x="13" y="1" width="2" height="4" fill="currentColor"/>
<rect x="13" y="19" width="2" height="4" fill="currentColor"/>
<rect x="11" y="9" width="2" height="4" fill="currentColor"/>
<rect x="13" y="11" width="2" height="2" fill="currentColor"/></g></g></g></g></g></g><line x1="0" y1="63.70" x2="116.40" y2="63.70" stroke="#111111" stroke-width="1.50"/><g transform="translate(9.00,71.20)"><g transform="translate(0.00,2.30)"><g fill="#111111" color="#111111"><g transform="translate(0.000,0.000) scale(0.729167)"><rect x="9" y="5" width="6" height="2" fill="currentColor"/>
<rect x="7" y="7" width="2" height="2" fill="currentColor"/>
<rect x="5" y="9" width="2" height="6" fill="currentColor"/>
<rect x="7" y="15" width="2" height="2" fill="currentColor"/>
<rect x="9" y="17" width="6" height="2" fill="currentColor"/>
<rect x="15" y="15" width="2" height="2" fill="currentColor"/>
<rect x="17" y="9" width="2" height="6" fill="currentColor"/>
<rect x="15" y="7" width="2" height="2" fill="currentColor"/>
<rect x="9" y="1" width="2" height="4" fill="currentColor"/>
<rect x="9" y="19" width="2" height="4" fill="currentColor"/>
<rect x="13" y="1" width="2" height="4" fill="currentColor"/>
<rect x="13" y="19" width="2" height="4" fill="currentColor"/>
<rect x="11" y="9" width="2" height="4" fill="currentColor"/>
<rect x="13" y="11" width="2" height="2" fill="currentColor"/></g></g></g><g transform="translate(23.61,0.00)"><text class="math mbin" x="0.00" y="11.05" text-anchor="start" font-size="17.0" fill="#111111" stroke="none" dominant-baseline="middle">+</text></g><g transform="translate(40.45,2.30)"><g fill="#111111" color="#111111"><g transform="translate(0.000,0.000) scale(0.729167)"><rect x="2" y="12" width="20" height="2" fill="currentColor"/>
<rect x="2" y="10" width="2" height="2" fill="currentColor"/>
<rect x="2" y="8" width="2" height="2" fill="currentColor"/>
<rect x="4" y="6" width="2" height="2" fill="currentColor"/>
<rect x="20" y="10" width="2" height="2" fill="currentColor"/>
<rect x="20" y="8" width="2" height="2" fill="currentColor"/>
<rect x="18" y="6" width="2" height="2" fill="currentColor"/>
<rect x="16" y="4" width="2" height="2" fill="currentColor"/>
<rect x="6" y="4" width="2" height="2" fill="currentColor"/>
<rect x="8" y="2" width="8" height="2" fill="currentColor"/>
<rect x="7" y="20" width="10" height="2" fill="currentColor"/>
<rect x="7" y="18" width="2" height="2" fill="currentColor"/>
<rect x="9" y="16" width="6" height="2" fill="currentColor"/>
<rect x="15" y="18" width="2" height="2" fill="currentColor"/>
<rect x="11" y="12" width="2" height="4" fill="currentColor"/></g></g></g><g transform="translate(64.06,0.00)"><text class="math mbin" x="0.00" y="11.05" text-anchor="start" font-size="17.0" fill="#111111" stroke="none" dominant-baseline="middle">−</text></g><g transform="translate(80.90,2.30)"><g fill="#111111" color="#111111"><g transform="translate(0.000,0.000) scale(0.729167)"><rect x="15" y="10" width="5" height="2" fill="currentColor"/>
<rect x="4" y="10" width="5" height="2" fill="currentColor"/>
<rect x="20" y="12" width="2" height="5" fill="currentColor"/>
<rect x="9" y="12" width="2" height="5" fill="currentColor"/>
<rect x="13" y="12" width="2" height="5" fill="currentColor"/>
<rect x="2" y="12" width="2" height="5" fill="currentColor"/>
<rect x="15" y="17" width="5" height="2" fill="currentColor"/>
<rect x="4" y="17" width="5" height="2" fill="currentColor"/>
<rect x="11" y="12" width="2" height="2" fill="currentColor"/>
<rect x="2" y="6" width="2" height="6" fill="currentColor"/>
<rect x="20" y="6" width="2" height="6" fill="currentColor"/>
<rect x="4" y="4" width="2" height="2" fill="currentColor"/>
<rect x="18" y="4" width="2" height="2" fill="currentColor"/>
<rect x="6" y="12" width="3" height="2" fill="currentColor"/>
<rect x="17" y="12" width="3" height="2" fill="currentColor"/>
<rect x="4" y="14" width="2" height="3" fill="currentColor"/>
<rect x="15" y="14" width="2" height="3" fill="currentColor"/>
<rect x="6" y="16" width="3" height="1" fill="currentColor"/>
<rect x="17" y="16" width="3" height="1" fill="currentColor"/>
<rect x="8" y="14" width="1" height="2" fill="currentColor"/>
<rect x="19" y="14" width="1" height="2" fill="currentColor"/></g></g></g></g></g></g></g></g></g></svg>