<?xml version="1.0" encoding="UTF-8"?><svg xmlns="http://www.w3.org/2000/svg" xmlns:xlink="http://www.w3.org/1999/xlink" width="256.8" height="192.9" viewBox="0 0 256.8 192.9" overflow="visible"><defs><style type="text/css">@import url('https://fonts.googleapis.com/css2?family=STIX+Two+Math&amp;display=swap');text.math { font-family: 'STIX Two Math', 'STIX Two Text', 'Times New Roman', serif; text-rendering: geometricPrecision; shape-rendering: geometricPrecision; } text.mop { font-style: normal; font-weight: 400; } text.mit { font-style: italic; font-weight: 400; } text.mbin { font-style: normal; font-weight: 400; letter-spacing: 0.02em; } </style></defs><rect width="100%" height="100%" fill="#faf8f5"/><g fill="#111111" color="#111111"><g transform="translate(32.00,32.00)"><g><g transform="translate(38.18,0.00)"><g><g transform="translate(9.04,0.00)"><g transform="translate(0.00,2.30)"><g fill="#111111" color="#111111"><g transform="translate(0.000,0.000) scale(0.729167)"><rect x="3" y="20" width="18" height="2" fill="currentColor"/>
<rect x="9" y="16" width="2" height="4" fill="currentColor"/>
<rect x="11" y="14" width="2" height="2" fill="currentColor"/>
<rect x="13" y="16" width="2" height="4" fill="currentColor"/>
<rect x="5" y="2" width="2" height="18" fill="currentColor"/>
<rect x="17" y="2" width="2" height="18" fill="currentColor"/>
<rect x="7" y="4" width="10" height="2" fill="currentColor"/>
<rect x="9" y="2" width="2" height="2" fill="currentColor"/>
<rect x="13" y="2" width="2" height="2" fill="currentColor"/></g></g></g><g transform="translate(22.92,0.00)"><text class="math mbin" x="4.42" y="11.05" text-anchor="middle" font-size="17.0" fill="#111111" stroke="none" dominant-baseline="middle">·</text></g><g transform="translate(40.37,2.30)"><g fill="#111111" color="#111111"><g transform="translate(0.000,0.000) scale(0.729167)"><rect x="2" y="11" width="2" height="10" fill="currentColor"/>
<rect x="20" y="11" width="2" height="10" fill="currentColor"/>
<rect x="2" y="17" width="20" height="2" fill="currentColor"/>
<rect x="4" y="9" width="16" height="2" fill="currentColor"/>
<rect x="11" y="5" width="2" height="4" fill="currentColor"/>
<rect x="7" y="3" width="10" height="2" fill="currentColor"/>
<rect x="5" y="5" width="2" height="4" fill="currentColor"/>
<rect x="17" y="5" width="2" height="4" fill="currentColor"/></g></g></g><g transform="translate(63.98,0.00)"><text class="math mbin" x="0.00" y="11.05" text-anchor="start" font-size="17.0" fill="#111111" stroke="none" dominant-baseline="middle">+</text></g><g transform="translate(80.81,2.30)"><g fill="#111111" color="#111111"><g transform="translate(0.000,0.000) scale(0.729167)"><rect x="9" y="1" width="6" height="2" fill="currentColor"/>
<rect x="9" y="3" width="2" height="4" fill="currentColor"/>
<rect x="13" y="3" width="2" height="4" fill="currentColor"/>
<rect x="7" y="7" width="2" height="2" fill="currentColor"/>
<rect x="15" y="7" width="2" height="2" fill="currentColor"/>
<rect x="17" y="9" width="2" height="12" fill="currentColor"/>
<rect x="5" y="9" width="2" height="12" fill="currentColor"/>
<rect x="7" y="21" width="10" height="2" fill="currentColor"/>
<rect x="8" y="12" width="8" height="2" fill="currentColor"/>
<rect x="8" y="16" width="8" height="2" fill="currentColor"/>
<rect x="8" y="12" width="2" height="6" fill="currentColor"/>
<rect x="14" y="12" width="2" height="6" fill="currentColor"/></g></g></g></g><line x1="0" y1="28.10" x2="116.40" y2="28.10" stroke="#111111" stroke-width="1.50"/><g transform="translate(9.00,35.60)"><g transform="translate(0.00,2.30)"><g fill="#111111" color="#111111"><g transform="translate(0.000,0.000) scale(0.729167)"><rect x="10" y="7" width="8" height="2" fill="currentColor"/>
<rect x="18" y="9" width="2" height="2" fill="currentColor"/>
<rect x="20" y="11" width="2" height="2" fill="currentColor"/>
<rect x="18" y="13" width="2" height="2" fill="currentColor"/>
<rect x="10" y="15" width="8" height="2" fill="currentColor"/>
<rect x="2" y="7" width="2" height="10" fill="currentColor"/>
<rect x="4" y="9" width="2" height="2" fill="currentColor"/>
<rect x="4" y="13" width="2" height="2" fill="currentColor"/>
<rect x="6" y="11" width="2" height="2" fill="currentColor"/>
<rect x="8" y="9" width="2" height="2" fill="currentColor"/>
<rect x="8" y="13" width="2" height="2" fill="currentColor"/>
<rect x="14" y="11" width="2" height="2" fill="currentColor"/></g></g></g><g transform="translate(23.61,0.00)"><text class="math mbin" x="0.00" y="11.05" text-anchor="start" font-size="17.0" fill="#111111" stroke="none" dominant-baseline="middle">+</text></g><g transform="translate(40.45,2.30)"><g fill="#111111" color="#111111"><g transform="translate(0.000,0.000) scale(0.729167)"><rect width="2" height="4" transform="matrix(1 0 0 -1 11 6)" fill="currentColor"/>
<rect x="2" y="16" width="20" height="2" fill="currentColor"/>
<rect x="2" y="14" width="2" height="2" fill="currentColor"/>
<rect x="4" y="12" width="2" height="2" fill="currentColor"/>
<rect x="6" y="10" width="2" height="2" fill="currentColor"/>
<rect x="20" y="14" width="2" height="2" fill="currentColor"/>
<rect x="18" y="12" width="2" height="2" fill="currentColor"/>
<rect x="16" y="10" width="2" height="2" fill="currentColor"/>
<rect x="14" y="8" width="2" height="2" fill="currentColor"/>
<rect x="8" y="8" width="2" height="2" fill="currentColor"/>
<rect x="10" y="6" width="4" height="2" fill="currentColor"/>
<rect x="8" y="18" width="2" height="2" fill="currentColor"/>
<rect x="14" y="18" width="2" height="2" fill="currentColor"/>
<rect x="10" y="20" width="4" height="2" fill="currentColor"/></g></g></g><g transform="translate(64.06,0.00)"><text class="math mbin" x="0.00" y="11.05" text-anchor="start" font-size="17.0" fill="#111111" stroke="none" dominant-baseline="middle">−</text></g><g transform="translate(80.90,2.30)"><g fill="#111111" color="#111111"><g transform="translate(0.000,0.000) scale(0.729167)"><path d="M9 4H11V6H13V4H15V2H19V4H21V6H23V12H21V14H19V16H17V18H15V20H13V22H11V20H9V18H7V16H5V14H3V12H1V6H3V4H5V2H9V4Z" fill="currentColor"/></g></g></g></g></g></g><line x1="0" y1="63.70" x2="192.77" y2="63.70" stroke="#111111" stroke-width="1.50"/><g transform="translate(9.00,71.20)"><g><g transform="translate(9.00,0.00)"><g transform="translate(0.00,2.30)"><g fill="#111111" color="#111111"><g transform="translate(0.000,0.000) scale(0.729167)"><rect x="20" y="9" width="2" height="6" fill="currentColor"/>
<rect x="18" y="7" width="2" height="2" fill="currentColor"/>
<rect x="14" y="3" width="2" height="2" fill="currentColor"/>
<rect width="2" height="2" transform="matrix(1 0 0 -1 14 21)" fill="currentColor"/>
<rect x="12" y="1" width="2" height="2" fill="currentColor"/>
<rect width="2" height="2" transform="matrix(1 0 0 -1 12 23)" fill="currentColor"/>
<rect x="18" y="15" width="2" height="2" fill="currentColor"/>
<rect x="12" y="17" width="6" height="2" fill="currentColor"/>
<rect x="12" y="5" width="6" height="2" fill="currentColor"/>
<rect x="2" y="7" width="2" height="10" fill="currentColor"/>
<rect x="4" y="9" width="2" height="2" fill="currentColor"/>
<rect x="4" y="13" width="2" height="2" fill="currentColor"/>
<rect x="6" y="11" width="2" height="2" fill="currentColor"/>
<rect x="8" y="9" width="2" height="2" fill="currentColor"/>
<rect x="8" y="13" width="2" height="2" fill="currentColor"/>
<rect x="10" y="15" width="2" height="2" fill="currentColor"/>
<rect x="10" y="7" width="2" height="2" fill="currentColor"/>
<rect x="15" y="10" width="2" height="2" fill="currentColor"/></g></g></g><g transform="translate(23.61,0.00)"><text class="math mbin" x="0.00" y="11.05" text-anchor="start" font-size="17.0" fill="#111111" stroke="none" dominant-baseline="middle">−</text></g><g transform="translate(40.45,2.30)"><g fill="#111111" color="#111111"><g transform="translate(0.000,0.000) scale(0.729167)"><rect x="9" y="1" width="6" height="2" fill="currentColor"/>
<rect x="9" y="3" width="2" height="4" fill="currentColor"/>
<rect x="13" y="3" width="2" height="4" fill="currentColor"/>
<rect x="7" y="7" width="2" height="2" fill="currentColor"/>
<rect x="15" y="7" width="2" height="2" fill="currentColor"/>
<rect x="17" y="9" width="2" height="12" fill="currentColor"/>
<rect x="5" y="9" width="2" height="12" fill="currentColor"/>
<rect x="7" y="21" width="10" height="2" fill="currentColor"/>
<rect x="8" y="12" width="8" height="2" fill="currentColor"/>
<rect x="8" y="16" width="8" height="2" fill="currentColor"/>
<rect x="8" y="12" width="2" height="6" fill="currentColor"/>
<rect x="14" y="12" width="2" height="6" fill="currentColor"/></g></g></g></g><line x1="0" y1="28.10" x2="75.95" y2="28.10" stroke="#111111" stroke-width="1.50"/><g transform="translate(9.00,35.60)"><g transform="translate(0.00,2.30)"><g fill="#111111" color="#111111"><g transform="translate(0.000,0.000) scale(0.729167)"><rect x="6" y="4" width="2" height="2" fill="currentColor"/>
<rect x="8" y="2" width="8" height="2" fill="currentColor"/>
<rect x="18" y="6" width="2" height="4" fill="currentColor"/>
<rect x="20" y="10" width="2" height="6" fill="currentColor"/>
<rect x="18" y="16" width="2" height="2" fill="currentColor"/>
<rect x="4" y="16" width="2" height="2" fill="currentColor"/>
<rect x="2" y="10" width="2" height="6" fill="currentColor"/>
<rect x="6" y="18" width="12" height="2" fill="currentColor"/>
<rect x="4" y="6" width="2" height="4" fill="currentColor"/>
<rect x="11" y="18" width="2" height="4" fill="currentColor"/>
<rect x="16" y="4" width="2" height="2" fill="currentColor"/></g></g></g><g transform="translate(23.61,0.00)"><text class="math mbin" x="0.00" y="11.05" text-anchor="start" font-size="17.0" fill="#111111" stroke="none" dominant-baseline="middle">−</text></g><g transform="translate(40.45,2.30)"><g fill="#111111" color="#111111"><g transform="translate(0.000,0.000) scale(0.729167)"><rect x="1" y="19" width="22" height="2" fill="currentColor"/>
<rect x="3" y="17" width="2" height="3" fill="currentColor"/>
<rect x="5" y="14" width="2" height="3" fill="currentColor"/>
<rect x="7" y="11" width="2" height="3" fill="currentColor"/>
<rect x="9" y="8" width="2" height="3" fill="currentColor"/>
<rect x="11" y="5" width="2" height="3" fill="currentColor"/>
<rect x="9" y="3" width="2" height="2" fill="currentColor"/>
<rect x="13" y="8" width="2" height="3" fill="currentColor"/>
<rect x="15" y="11" width="2" height="3" fill="currentColor"/>
<rect x="17" y="14" width="2" height="3" fill="currentColor"/>
<rect x="19" y="17" width="2" height="3" fill="currentColor"/>
<rect x="9" y="17" width="2" height="2" fill="currentColor"/>
<rect x="13" y="17" width="2" height="2" fill="currentColor"/>
<rect x="11" y="15" width="2" height="2" fill="currentColor"/>
<rect x="13" y="3" width="2" height="2" fill="currentColor"/></g></g></g></g></g><g transform="translate(81.37,17.80)"><text class="math mbin" x="4.42" y="11.05" text-anchor="middle" font-size="17.0" fill="#111111" stroke="none" dominant-baseline="middle">·</text></g><g transform="translate(98.82,0.00)"><g><g transform="translate(9.00,0.00)"><g transform="translate(0.00,2.30)"><g fill="#111111" color="#111111"><g transform="translate(0.000,0.000) scale(0.729167)"><rect x="1" y="8" width="2" height="12" fill="currentColor"/>
<rect x="3" y="20" width="18" height="2" fill="currentColor"/>
<rect x="21" y="8" width="2" height="12" fill="currentColor"/>
<rect x="3" y="10" width="18" height="2" fill="currentColor"/>
<rect x="5" y="2" width="2" height="8" fill="currentColor"/>
<rect x="17" y="2" width="2" height="8" fill="currentColor"/>
<rect x="7" y="4" width="10" height="2" fill="currentColor"/>
<rect x="9" y="2" width="2" height="2" fill="currentColor"/>
<rect x="13" y="2" width="2" height="2" fill="currentColor"/>
<rect x="8" y="16" width="2" height="4" fill="currentColor"/>
<rect x="10" y="14" width="4" height="2" fill="currentColor"/>
<rect x="14" y="16" width="2" height="4" fill="currentColor"/></g></g></g><g transform="translate(23.61,0.00)"><text class="math mbin" x="0.00" y="11.05" text-anchor="start" font-size="17.0" fill="#111111" stroke="none" dominant-baseline="middle">−</text></g><g transform="translate(40.45,2.30)"><g fill="#111111" color="#111111"><g transform="translate(0.000,0.000) scale(0.729167)"><rect x="9" y="1" width="6" height="2" fill="currentColor"/>
<rect x="9" y="3" width="2" height="4" fill="currentColor"/>
<rect x="13" y="3" width="2" height="4" fill="currentColor"/>
<rect x="7" y="7" width="2" height="2" fill="currentColor"/>
<rect x="15" y="7" width="2" height="2" fill="currentColor"/>
<rect x="17" y="9" width="2" height="12" fill="currentColor"/>
<rect x="5" y="9" width="2" height="12" fill="currentColor"/>
<rect x="7" y="21" width="10" height="2" fill="currentColor"/></g></g></g></g><line x1="0" y1="28.10" x2="75.95" y2="28.10" stroke="#111111" stroke-width="1.50"/><g transform="translate(9.04,35.60)"><g transform="translate(0.00,2.30)"><g fill="#111111" color="#111111"><g transform="translate(0.000,0.000) scale(0.729167)"><rect x="4" y="6" width="16" height="2" fill="currentColor"/>
<rect x="4" y="8" width="2" height="10" fill="currentColor"/>
<rect x="6" y="18" width="10" height="2" fill="currentColor"/>
<rect x="20" y="8" width="2" height="4" fill="currentColor"/>
<rect x="18" y="12" width="2" height="2" fill="currentColor"/>
<rect x="16" y="8" width="2" height="10" fill="currentColor"/>
<rect x="7" y="2" width="2" height="2" fill="currentColor"/>
<rect x="13" y="2" width="2" height="2" fill="currentColor"/>
<rect x="9" width="2" height="2" fill="currentColor"/>
<rect x="15" width="2" height="2" fill="currentColor"/>
<rect x="10" y="8" width="2" height="4" fill="currentColor"/>
<rect x="8" y="12" width="6" height="4" fill="currentColor"/></g></g></g><g transform="translate(22.92,0.00)"><text class="math mbin" x="4.42" y="11.05" text-anchor="middle" font-size="17.0" fill="#111111" stroke="none" dominant-baseline="middle">·</text></g><g transform="translate(40.37,2.30)"><g fill="#111111" color="#111111"><g transform="translate(0.000,0.000) scale(0.729167)"><rect x="2" y="11" width="2" height="10" fill="currentColor"/>
<rect x="20" y="11" width="2" height="10" fill="currentColor"/>
<rect x="2" y="17" width="20" height="2" fill="currentColor"/>
<rect x="4" y="9" width="16" height="2" fill="currentColor"/>
<rect x="11" y="5" width="2" height="4" fill="currentColor"/>
<rect x="7" y="3" width="10" height="2" fill="currentColor"/>
<rect x="5" y="5" width="2" height="4" fill="currentColor"/>
<rect x="17" y="5" width="2" height="4" fill="currentColor"/></g></g></g></g></g></g></g></g></g></g></svg>