<?xml version="1.0" encoding="UTF-8"?><svg xmlns="http://www.w3.org/2000/svg" xmlns:xlink="http://www.w3.org/1999/xlink" width="243.0" height="86.1" viewBox="0 0 243.0 86.1" overflow="visible"><defs><style type="text/css">@import url('https://fonts.googleapis.com/css2?family=STIX+Two+Math&amp;display=swap');text.math { font-family: 'STIX Two Math', 'STIX Two Text', 'Times New Roman', serif; text-rendering: geometricPrecision; shape-rendering: geometricPrecision; } text.mop { font-style: normal; font-weight: 400; } text.mit { font-style: italic; font-weight: 400; } text.mbin { font-style: normal; font-weight: 400; letter-spacing: 0.02em; } </style></defs><rect width="100%" height="100%" fill="#faf8f5"/><g fill="#111111" color="#111111"><g transform="translate(32.00,32.00)"><g transform="translate(0.00,2.30)"><g fill="#111111" color="#111111"><g transform="translate(0.000,0.000) scale(0.729167)"><rect x="1" y="5" width="2" height="14" fill="currentColor"/>
<rect x="9" y="5" width="2" height="14" fill="currentColor"/>
<rect x="17" y="5" width="2" height="14" fill="currentColor"/>
<rect x="1" y="19" width="6" height="2" fill="currentColor"/>
<rect x="9" y="19" width="6" height="2" fill="currentColor"/>
<rect x="17" y="19" width="6" height="2" fill="currentColor"/>
<rect x="5" y="5" width="2" height="14" fill="currentColor"/>
<rect x="13" y="5" width="2" height="14" fill="currentColor"/>
<rect x="21" y="5" width="2" height="16" fill="currentColor"/>
<rect x="3" y="3" width="2" height="2" fill="currentColor"/>
<rect x="11" y="3" width="2" height="2" fill="currentColor"/>
<rect x="19" y="3" width="2" height="2" fill="currentColor"/>
<rect x="7" y="17" width="2" height="2" fill="currentColor"/>
<rect x="7" y="9" width="2" height="2" fill="currentColor"/>
<rect x="15" y="9" width="2" height="2" fill="currentColor"/>
<rect x="15" y="17" width="2" height="2" fill="currentColor"/></g></g></g><g transform="translate(22.92,0.00)"><text class="math mbin" x="4.42" y="11.05" text-anchor="middle" font-size="17.0" fill="#111111" stroke="none" dominant-baseline="middle">·</text></g><g transform="translate(40.37,0.00)"><g transform="translate(0.00,2.30)"><g fill="#111111" color="#111111"><g transform="translate(0.000,0.000) scale(0.729167)"><rect x="8" y="18" width="8" height="2" fill="currentColor"/>
<rect x="16" y="16" width="4" height="2" fill="currentColor"/>
<rect x="16" y="20" width="4" height="2" fill="currentColor"/>
<rect x="4" y="16" width="4" height="2" fill="currentColor"/>
<rect x="4" y="20" width="4" height="2" fill="currentColor"/>
<rect x="10" y="14" width="4" height="2" fill="currentColor"/>
<rect x="14" y="12" width="2" height="2" fill="currentColor"/>
<rect x="8" y="12" width="2" height="2" fill="currentColor"/>
<rect x="6" y="8" width="2" height="4" fill="currentColor"/>
<rect x="8" y="6" width="2" height="2" fill="currentColor"/>
<rect x="10" y="4" width="2" height="2" fill="currentColor"/>
<rect x="12" y="2" width="2" height="2" fill="currentColor"/>
<rect x="14" y="4" width="2" height="4" fill="currentColor"/>
<rect x="16" y="8" width="2" height="4" fill="currentColor"/></g></g></g><g transform="translate(22.92,0.00)"><text class="math mbin" x="4.42" y="11.05" text-anchor="middle" font-size="17.0" fill="#111111" stroke="none" dominant-baseline="middle">·</text></g><g transform="translate(40.37,2.30)"><g fill="#111111" color="#111111"><g transform="translate(0.000,0.000) scale(0.729167)"><rect x="9" y="1" width="6" height="2" fill="currentColor"/>
<rect x="9" y="3" width="2" height="4" fill="currentColor"/>
<rect x="13" y="3" width="2" height="4" fill="currentColor"/>
<rect x="7" y="7" width="2" height="2" fill="currentColor"/>
<rect x="15" y="7" width="2" height="2" fill="currentColor"/>
<rect x="17" y="9" width="2" height="12" fill="currentColor"/>
<rect x="5" y="9" width="2" height="12" fill="currentColor"/>
<rect x="7" y="21" width="10" height="2" fill="currentColor"/></g></g></g><g transform="translate(63.98,0.00)"><text class="math mbin" x="0.00" y="11.05" text-anchor="start" font-size="17.0" fill="#111111" stroke="none" dominant-baseline="middle">+</text></g><g transform="translate(80.81,2.30)"><g fill="#111111" color="#111111"><g transform="translate(0.000,0.000) scale(0.729167)"><rect x="7" y="2" width="10" height="2" fill="currentColor"/>
<rect x="5" y="4" width="2" height="10" fill="currentColor"/>
<rect x="17" y="2" width="2" height="12" fill="currentColor"/>
<rect x="13" y="2" width="2" height="6" fill="currentColor"/>
<rect x="9" y="2" width="2" height="4" fill="currentColor"/>
<rect x="5" y="10" width="14" height="2" fill="currentColor"/>
<rect x="7" y="14" width="10" height="2" fill="currentColor"/>
<rect x="9" y="16" width="2" height="4" fill="currentColor"/>
<rect x="13" y="16" width="2" height="4" fill="currentColor"/>
<rect x="9" y="20" width="6" height="2" fill="currentColor"/></g></g></g></g><g transform="translate(144.10,0.00)"><text class="math mbin" x="4.42" y="11.05" text-anchor="middle" font-size="17.0" fill="#111111" stroke="none" dominant-baseline="middle">·</text></g><g transform="translate(161.55,2.30)"><g fill="#111111" color="#111111"><g transform="translate(0.000,0.000) scale(0.729167)"><rect x="2" y="20" width="2" height="2" fill="currentColor"/>
<rect x="2" y="18" width="2" height="2" fill="currentColor"/>
<rect x="4" y="14" width="2" height="4" fill="currentColor"/>
<rect x="6" y="10" width="2" height="4" fill="currentColor"/>
<rect x="4" y="20" width="2" height="2" fill="currentColor"/>
<rect x="6" y="18" width="4" height="2" fill="currentColor"/>
<rect x="10" y="16" width="4" height="2" fill="currentColor"/>
<rect x="8" y="8" width="2" height="2" fill="currentColor"/>
<rect x="10" y="8" width="2" height="2" fill="currentColor"/>
<rect x="12" y="10" width="2" height="2" fill="currentColor"/>
<rect x="14" y="12" width="2" height="4" fill="currentColor"/>
<rect x="8" y="14" width="2" height="2" fill="currentColor"/>
<rect x="3" y="6" width="2" height="2" fill="currentColor"/>
<rect x="10" y="4" width="2" height="2" fill="currentColor"/>
<rect x="8" y="2" width="2" height="2" fill="currentColor"/>
<rect x="15" y="2" width="2" height="2" fill="currentColor"/>
<rect x="18" y="12" width="2" height="2" fill="currentColor"/>
<rect x="20" y="14" width="2" height="2" fill="currentColor"/>
<rect x="16" y="7" width="4" height="2" fill="currentColor"/>
<rect x="18" y="19" width="2" height="2" fill="currentColor"/>
<rect x="20" y="5" width="2" height="2" fill="currentColor"/></g></g></g></g></g></svg>