<?xml version="1.0" encoding="UTF-8"?><svg xmlns="http://www.w3.org/2000/svg" xmlns:xlink="http://www.w3.org/1999/xlink" width="261.1" height="157.3" viewBox="0 0 261.1 157.3" overflow="visible"><defs><style type="text/css">@import url('https://fonts.googleapis.com/css2?family=STIX+Two+Math&amp;display=swap');text.math { font-family: 'STIX Two Math', 'STIX Two Text', 'Times New Roman', serif; text-rendering: geometricPrecision; shape-rendering: geometricPrecision; } text.mop { font-style: normal; font-weight: 400; } text.mit { font-style: italic; font-weight: 400; } text.mbin { font-style: normal; font-weight: 400; letter-spacing: 0.02em; } </style></defs><rect width="100%" height="100%" fill="#faf8f5"/><g fill="#111111" color="#111111"><g transform="translate(32.00,32.00)"><g><g transform="translate(40.41,0.00)"><g><g transform="translate(9.00,0.00)"><g transform="translate(0.00,2.30)"><g fill="#111111" color="#111111"><g transform="translate(0.000,0.000) scale(0.729167)"><rect x="8" y="20" width="8" height="2" fill="currentColor"/>
<rect x="11" y="16" width="2" height="4" fill="currentColor"/>
<rect x="13" y="14" width="2" height="2" fill="currentColor"/>
<rect x="9" y="14" width="2" height="2" fill="currentColor"/>
<rect x="7" y="12" width="2" height="2" fill="currentColor"/>
<rect x="15" y="12" width="2" height="2" fill="currentColor"/>
<rect x="17" y="4" width="2" height="8" fill="currentColor"/>
<rect x="5" y="4" width="2" height="8" fill="currentColor"/>
<rect x="7" y="2" width="10" height="2" fill="currentColor"/></g></g></g><g transform="translate(23.61,0.00)"><text class="math mbin" x="0.00" y="11.05" text-anchor="start" font-size="17.0" fill="#111111" stroke="none" dominant-baseline="middle">−</text></g><g transform="translate(40.45,0.00)"><g transform="translate(0.00,2.30)"><g fill="#111111" color="#111111"><g transform="translate(0.000,0.000) scale(0.729167)"><rect x="2" y="10" width="2" height="2" fill="currentColor"/>
<rect x="4" y="8" width="2" height="2" fill="currentColor"/>
<rect x="6" y="6" width="2" height="2" fill="currentColor"/>
<rect x="8" y="4" width="2" height="2" fill="currentColor"/>
<rect x="14" y="4" width="2" height="2" fill="currentColor"/>
<rect x="16" y="6" width="2" height="2" fill="currentColor"/>
<rect x="18" y="8" width="2" height="2" fill="currentColor"/>
<rect x="20" y="10" width="2" height="2" fill="currentColor"/>
<rect x="10" y="2" width="4" height="2" fill="currentColor"/>
<rect x="4" y="12" width="2" height="8" fill="currentColor"/>
<rect x="6" y="20" width="3" height="2" fill="currentColor"/>
<rect x="9" y="16" width="2" height="6" fill="currentColor"/>
<rect x="9" y="14" width="6" height="2" fill="currentColor"/>
<rect x="13" y="16" width="2" height="6" fill="currentColor"/>
<rect x="15" y="20" width="3" height="2" fill="currentColor"/>
<rect x="18" y="12" width="2" height="8" fill="currentColor"/></g></g></g><g transform="translate(22.92,0.00)"><text class="math mbin" x="4.42" y="11.05" text-anchor="middle" font-size="17.0" fill="#111111" stroke="none" dominant-baseline="middle">·</text></g><g transform="translate(40.37,2.30)"><g fill="#111111" color="#111111"><g transform="translate(0.000,0.000) scale(0.729167)"><rect x="5" y="5" width="2" height="6" fill="currentColor"/>
<rect x="5" y="15" width="2" height="5" fill="currentColor"/>
<rect x="13" y="5" width="2" height="6" fill="currentColor"/>
<rect x="13" y="15" width="2" height="5" fill="currentColor"/>
<rect x="5" y="19" width="6" height="2" fill="currentColor"/>
<rect x="13" y="19" width="6" height="2" fill="currentColor"/>
<rect x="9" y="5" width="2" height="6" fill="currentColor"/>
<rect x="9" y="15" width="2" height="5" fill="currentColor"/>
<rect x="17" y="5" width="2" height="6" fill="currentColor"/>
<rect x="17" y="15" width="2" height="5" fill="currentColor"/>
<rect x="7" y="3" width="2" height="2" fill="currentColor"/>
<rect x="15" y="3" width="2" height="2" fill="currentColor"/>
<rect x="3" y="11" width="18" height="2" fill="currentColor"/>
<rect x="3" y="15" width="18" height="2" fill="currentColor"/>
<rect x="1" y="13" width="2" height="2" fill="currentColor"/>
<rect x="21" y="13" width="2" height="2" fill="currentColor"/></g></g></g></g></g><line x1="0" y1="28.10" x2="116.31" y2="28.10" stroke="#111111" stroke-width="1.50"/><g transform="translate(9.04,35.60)"><g transform="translate(0.00,2.30)"><g fill="#111111" color="#111111"><g transform="translate(0.000,0.000) scale(0.729167)"><rect x="8" y="2" width="8" height="2" fill="currentColor"/>
<rect x="16" y="22" width="8" height="2" transform="rotate(180 16 22)" fill="currentColor"/>
<rect x="6" y="4" width="2" height="4" fill="currentColor"/>
<rect x="18" y="20" width="2" height="4" transform="rotate(180 18 20)" fill="currentColor"/>
<rect x="4" y="6" width="4" height="2" fill="currentColor"/>
<rect x="20" y="18" width="4" height="2" transform="rotate(180 20 18)" fill="currentColor"/>
<rect x="2" y="8" width="2" height="8" fill="currentColor"/>
<rect x="22" y="16" width="2" height="8" transform="rotate(180 22 16)" fill="currentColor"/>
<rect x="16" y="4" width="2" height="4" fill="currentColor"/>
<rect x="16" y="6" width="4" height="2" fill="currentColor"/>
<rect x="4" y="16" width="4" height="2" fill="currentColor"/>
<rect x="6" y="16" width="2" height="4" fill="currentColor"/>
<rect x="8" y="14" width="2" height="2" fill="currentColor"/>
<rect width="2" height="2" transform="matrix(-1 0 0 1 16 14)" fill="currentColor"/>
<rect x="10" y="12" width="2" height="2" fill="currentColor"/>
<rect width="2" height="2" transform="matrix(-1 0 0 1 14 12)" fill="currentColor"/>
<rect x="12" y="10" width="2" height="2" fill="currentColor"/>
<rect width="2" height="2" transform="matrix(-1 0 0 1 12 10)" fill="currentColor"/>
<rect x="14" y="8" width="2" height="2" fill="currentColor"/>
<rect width="2" height="2" transform="matrix(-1 0 0 1 10 8)" fill="currentColor"/></g></g></g><g transform="translate(22.92,0.00)"><text class="math mbin" x="4.42" y="11.05" text-anchor="middle" font-size="17.0" fill="#111111" stroke="none" dominant-baseline="middle">·</text></g><g transform="translate(40.37,2.30)"><g fill="#111111" color="#111111"><g transform="translate(0.000,0.000) scale(0.729167)"><rect x="10" y="2" width="4" height="2" fill="currentColor"/>
<rect x="10" y="8" width="4" height="2" fill="currentColor"/>
<rect x="8" y="4" width="2" height="4" fill="currentColor"/>
<rect x="14" y="4" width="2" height="4" fill="currentColor"/>
<rect x="11" y="9" width="2" height="12" fill="currentColor"/>
<rect x="5" y="20" width="14" height="2" fill="currentColor"/>
<rect x="3" y="12" width="2" height="8" fill="currentColor"/>
<rect x="19" y="12" width="2" height="8" fill="currentColor"/>
<rect x="5" y="12" width="2" height="2" fill="currentColor"/>
<rect x="17" y="12" width="2" height="2" fill="currentColor"/></g></g></g><g transform="translate(63.29,0.00)"><text class="math mbin" x="4.42" y="11.05" text-anchor="middle" font-size="17.0" fill="#111111" stroke="none" dominant-baseline="middle">·</text></g><g transform="translate(80.73,2.30)"><g fill="#111111" color="#111111"><g transform="translate(0.000,0.000) scale(0.729167)"><rect x="4" y="6" width="16" height="2" fill="currentColor"/>
<rect x="2" y="8" width="2" height="4" fill="currentColor"/>
<rect x="4" y="12" width="16" height="2" fill="currentColor"/>
<rect x="20" y="8" width="2" height="4" fill="currentColor"/>
<rect x="6" y="4" width="2" height="2" fill="currentColor"/>
<rect x="8" y="2" width="3" height="2" fill="currentColor"/>
<rect x="11" y="4" width="2" height="2" fill="currentColor"/>
<rect x="13" y="2" width="3" height="2" fill="currentColor"/>
<rect x="16" y="4" width="2" height="2" fill="currentColor"/>
<rect x="4" y="14" width="2" height="6" fill="currentColor"/>
<rect x="6" y="20" width="12" height="2" fill="currentColor"/>
<rect x="18" y="14" width="2" height="6" fill="currentColor"/>
<rect x="11" y="8" width="2" height="4" fill="currentColor"/>
<rect x="11" y="14" width="2" height="6" fill="currentColor"/></g></g></g></g></g></g><line x1="0" y1="63.70" x2="197.13" y2="63.70" stroke="#111111" stroke-width="1.50"/><g transform="translate(9.00,71.20)"><g transform="translate(0.00,2.30)"><g fill="#111111" color="#111111"><g transform="translate(0.000,0.000) scale(0.729167)"><rect x="4" y="20" width="10" height="2" fill="currentColor"/>
<rect x="20" y="10" width="2" height="4" fill="currentColor"/>
<rect x="2" y="10" width="2" height="10" fill="currentColor"/>
<rect x="4" y="8" width="2" height="2" fill="currentColor"/>
<rect x="6" y="6" width="2" height="2" fill="currentColor"/>
<rect x="8" y="4" width="2" height="2" fill="currentColor"/>
<rect x="10" y="2" width="4" height="2" fill="currentColor"/>
<rect x="14" y="4" width="2" height="2" fill="currentColor"/>
<rect x="16" y="6" width="2" height="2" fill="currentColor"/>
<rect x="18" y="8" width="2" height="2" fill="currentColor"/>
<rect x="8" y="14" width="2" height="6" fill="currentColor"/>
<rect x="10" y="12" width="4" height="2" fill="currentColor"/>
<rect x="14" y="14" width="2" height="2" fill="currentColor"/>
<rect x="18" y="16" width="2" height="6" fill="currentColor"/>
<rect x="16" y="18" width="6" height="2" fill="currentColor"/></g></g></g><g transform="translate(23.61,0.00)"><text class="math mbin" x="0.00" y="11.05" text-anchor="start" font-size="17.0" fill="#111111" stroke="none" dominant-baseline="middle">−</text></g><g transform="translate(40.45,2.30)"><g fill="#111111" color="#111111"><g transform="translate(0.000,0.000) scale(0.729167)"><rect x="1" y="9" width="2" height="4" fill="currentColor"/>
<rect x="3" y="7" width="2" height="2" fill="currentColor"/>
<rect x="5" y="5" width="10" height="2" fill="currentColor"/>
<rect x="15" y="7" width="2" height="2" fill="currentColor"/>
<rect x="17" y="9" width="2" height="4" fill="currentColor"/>
<rect x="19" y="9" width="2" height="2" fill="currentColor"/>
<rect x="21" y="11" width="2" height="2" fill="currentColor"/>
<rect x="1" y="13" width="20" height="2" fill="currentColor"/>
<rect x="1" y="15" width="2" height="2" fill="currentColor"/>
<rect x="3" y="17" width="2" height="2" fill="currentColor"/>
<rect x="5" y="15" width="2" height="2" fill="currentColor"/>
<rect x="13" y="15" width="2" height="2" fill="currentColor"/>
<rect x="15" y="17" width="2" height="2" fill="currentColor"/>
<rect x="17" y="15" width="2" height="2" fill="currentColor"/>
<rect x="5" y="9" width="2" height="2" fill="currentColor"/>
<rect x="7" y="11" width="2" height="2" fill="currentColor"/>
<rect x="13" y="9" width="2" height="2" fill="currentColor"/>
<rect x="9" y="9" width="2" height="2" fill="currentColor"/>
<rect x="11" y="11" width="2" height="2" fill="currentColor"/></g></g></g><g transform="translate(64.06,0.00)"><text class="math mbin" x="0.00" y="11.05" text-anchor="start" font-size="17.0" fill="#111111" stroke="none" dominant-baseline="middle">−</text></g><g transform="translate(80.90,0.00)"><g transform="translate(0.00,2.30)"><g fill="#111111" color="#111111"><g transform="translate(0.000,0.000) scale(0.729167)"><path d="M18 22H8V20H18V22ZM8 20H6V18H8V20ZM20 20H18V18H20V20ZM6 18H4V16H6V18ZM22 18H20V14H18V12H20V10H22V18ZM4 16H2V6H4V16ZM18 16H12V14H18V16ZM12 14H10V12H12V14ZM10 12H8V6H10V12ZM20 4H22V6H20V8H18V6H16V4H18V2H20V4ZM6 6H4V4H6V6ZM14 4H12V6H10V4H6V2H14V4Z" fill="currentColor"/></g></g></g><g transform="translate(22.92,0.00)"><text class="math mbin" x="4.42" y="11.05" text-anchor="middle" font-size="17.0" fill="#111111" stroke="none" dominant-baseline="middle">·</text></g><g transform="translate(40.37,0.00)"><g transform="translate(0.00,2.30)"><g fill="#111111" color="#111111"><g transform="translate(0.000,0.000) scale(0.729167)"><rect x="5" y="6" width="14" height="2" fill="currentColor"/>
<rect x="3" y="8" width="2" height="12" fill="currentColor"/>
<rect x="5" y="20" width="14" height="2" fill="currentColor"/>
<rect x="19" y="8" width="2" height="12" fill="currentColor"/>
<rect x="7" y="16" width="2" height="6" fill="currentColor"/>
<rect x="15" y="16" width="2" height="6" fill="currentColor"/>
<rect x="9" y="14" width="6" height="2" fill="currentColor"/>
<rect x="7" y="10" width="10" height="2" fill="currentColor"/>
<rect x="8" y="4" width="2" height="2" fill="currentColor"/>
<rect x="14" y="4" width="2" height="2" fill="currentColor"/>
<rect x="10" y="2" width="4" height="2" fill="currentColor"/></g></g></g><g transform="translate(22.92,0.00)"><text class="math mbin" x="4.42" y="11.05" text-anchor="middle" font-size="17.0" fill="#111111" stroke="none" dominant-baseline="middle">·</text></g><g transform="translate(40.37,2.30)"><g fill="#111111" color="#111111"><g transform="translate(0.000,0.000) scale(0.729167)"><rect x="3" y="20" width="18" height="2" fill="currentColor"/>
<rect x="9" y="16" width="2" height="4" fill="currentColor"/>
<rect x="11" y="14" width="2" height="2" fill="currentColor"/>
<rect x="13" y="16" width="2" height="4" fill="currentColor"/>
<rect x="5" y="2" width="2" height="18" fill="currentColor"/>
<rect x="17" y="2" width="2" height="18" fill="currentColor"/>
<rect x="7" y="4" width="10" height="2" fill="currentColor"/>
<rect x="9" y="2" width="2" height="2" fill="currentColor"/>
<rect x="13" y="2" width="2" height="2" fill="currentColor"/></g></g></g></g></g></g></g></g></g></svg>