<svg width="620" height="800" xmlns="http://www.w3.org/2000/svg">
<g transform="translate(-320, 40)">
<circle cx="630.0" cy="30.0" r="15.0" fill="none" stroke="white" stroke-width="8"/>
<line x1="630.0" y1="45.0" x2="630.0" y2="60" stroke="white" stroke-width="8"/>
<line x1="630.0" y1="60" x2="630.0" y2="120" stroke="white" stroke-width="8"/>
<path d="M 540 150.0 Q 510.0 150.0 510.0 180" fill="none" stroke="white" stroke-width="8"/>
<line x1="540" y1="150.0" x2="600" y2="150.0" stroke="white" stroke-width="8"/>
<path d="M 630.0 120 Q 630.0 150.0 600 150.0" fill="none" stroke="white" stroke-width="8"/>
<path d="M 630.0 120 Q 630.0 150.0 660 150.0" fill="none" stroke="white" stroke-width="8"/>
<line x1="660" y1="150.0" x2="720" y2="150.0" stroke="white" stroke-width="8"/>
<line x1="720" y1="150.0" x2="780" y2="150.0" stroke="white" stroke-width="8"/>
<path d="M 720 150.0 Q 750.0 150.0 750.0 180" fill="none" stroke="white" stroke-width="8"/>
<path d="M 780 150.0 Q 810.0 150.0 810.0 180" fill="none" stroke="white" stroke-width="8"/>
<line x1="420" y1="210.0" x2="405.0" y2="210.0" stroke="white" stroke-width="8"/>
<circle cx="390.0" cy="210.0" r="15.0" fill="none" stroke="white" stroke-width="8"/>
<line x1="420" y1="210.0" x2="480" y2="210.0" stroke="white" stroke-width="8"/>
<path d="M 510.0 180 Q 510.0 210.0 480 210.0" fill="none" stroke="white" stroke-width="8"/>
<path d="M 510.0 180 Q 510.0 210.0 540 210.0" fill="none" stroke="white" stroke-width="8"/>
<line x1="540" y1="210.0" x2="600" y2="210.0" stroke="white" stroke-width="8"/>
<path d="M 540 210.0 Q 570.0 210.0 570.0 240" fill="none" stroke="white" stroke-width="8"/>
<line x1="600" y1="210.0" x2="615.0" y2="210.0" stroke="white" stroke-width="8"/>
<circle cx="630.0" cy="210.0" r="15.0" fill="none" stroke="white" stroke-width="8"/>
<path d="M 720 210.0 Q 690.0 210.0 690.0 240" fill="none" stroke="white" stroke-width="8"/>
<path d="M 750.0 180 Q 750.0 210.0 720 210.0" fill="none" stroke="white" stroke-width="8"/>
<line x1="810.0" y1="180" x2="810.0" y2="240" stroke="white" stroke-width="8"/>
<path d="M 810.0 180 Q 810.0 210.0 840 210.0" fill="none" stroke="white" stroke-width="8"/>
<line x1="840" y1="210.0" x2="855.0" y2="210.0" stroke="white" stroke-width="8"/>
<circle cx="870.0" cy="210.0" r="15.0" fill="none" stroke="white" stroke-width="8"/>
<line x1="420" y1="270.0" x2="405.0" y2="270.0" stroke="white" stroke-width="8"/>
<circle cx="390.0" cy="270.0" r="15.0" fill="none" stroke="white" stroke-width="8"/>
<line x1="420" y1="270.0" x2="480" y2="270.0" stroke="white" stroke-width="8"/>
<path d="M 480 270.0 Q 450.0 270.0 450.0 300" fill="none" stroke="white" stroke-width="8"/>
<line x1="480" y1="270.0" x2="540" y2="270.0" stroke="white" stroke-width="8"/>
<path d="M 540 270.0 Q 510.0 270.0 510.0 300" fill="none" stroke="white" stroke-width="8"/>
<path d="M 570.0 240 Q 570.0 270.0 540 270.0" fill="none" stroke="white" stroke-width="8"/>
<path d="M 660 270.0 Q 630.0 270.0 630.0 300" fill="none" stroke="white" stroke-width="8"/>
<path d="M 690.0 240 Q 690.0 270.0 660 270.0" fill="none" stroke="white" stroke-width="8"/>
<line x1="780" y1="270.0" x2="765.0" y2="270.0" stroke="white" stroke-width="8"/>
<circle cx="750.0" cy="270.0" r="15.0" fill="none" stroke="white" stroke-width="8"/>
<path d="M 810.0 240 Q 810.0 270.0 780 270.0" fill="none" stroke="white" stroke-width="8"/>
<line x1="450.0" y1="300" x2="450.0" y2="315.0" stroke="white" stroke-width="8"/>
<circle cx="450.0" cy="330.0" r="15.0" fill="none" stroke="white" stroke-width="8"/>
<line x1="510.0" y1="300" x2="510.0" y2="315.0" stroke="white" stroke-width="8"/>
<circle cx="510.0" cy="330.0" r="15.0" fill="none" stroke="white" stroke-width="8"/>
<path d="M 600 330.0 Q 570.0 330.0 570.0 360" fill="none" stroke="white" stroke-width="8"/>
<path d="M 630.0 300 Q 630.0 330.0 600 330.0" fill="none" stroke="white" stroke-width="8"/>
<path d="M 630.0 300 Q 630.0 330.0 660 330.0" fill="none" stroke="white" stroke-width="8"/>
<line x1="660" y1="330.0" x2="720" y2="330.0" stroke="white" stroke-width="8"/>
<path d="M 660 330.0 Q 690.0 330.0 690.0 360" fill="none" stroke="white" stroke-width="8"/>
<line x1="720" y1="330.0" x2="735.0" y2="330.0" stroke="white" stroke-width="8"/>
<circle cx="750.0" cy="330.0" r="15.0" fill="none" stroke="white" stroke-width="8"/>
<line x1="540" y1="390.0" x2="525.0" y2="390.0" stroke="white" stroke-width="8"/>
<circle cx="510.0" cy="390.0" r="15.0" fill="none" stroke="white" stroke-width="8"/>
<path d="M 570.0 360 Q 570.0 390.0 540 390.0" fill="none" stroke="white" stroke-width="8"/>
<path d="M 570.0 360 Q 570.0 390.0 600 390.0" fill="none" stroke="white" stroke-width="8"/>
<path d="M 600 390.0 Q 630.0 390.0 630.0 420" fill="none" stroke="white" stroke-width="8"/>
<line x1="690.0" y1="360" x2="690.0" y2="375.0" stroke="white" stroke-width="8"/>
<circle cx="690.0" cy="390.0" r="15.0" fill="none" stroke="white" stroke-width="8"/>
<path d="M 600 450.0 Q 570.0 450.0 570.0 480" fill="none" stroke="white" stroke-width="8"/>
<path d="M 630.0 420 Q 630.0 450.0 600 450.0" fill="none" stroke="white" stroke-width="8"/>
<path d="M 630.0 420 Q 630.0 450.0 660 450.0" fill="none" stroke="white" stroke-width="8"/>
<line x1="660" y1="450.0" x2="720" y2="450.0" stroke="white" stroke-width="8"/>
<path d="M 660 450.0 Q 690.0 450.0 690.0 480" fill="none" stroke="white" stroke-width="8"/>
<line x1="720" y1="450.0" x2="735.0" y2="450.0" stroke="white" stroke-width="8"/>
<circle cx="750.0" cy="450.0" r="15.0" fill="none" stroke="white" stroke-width="8"/>
<line x1="570.0" y1="480" x2="570.0" y2="495.0" stroke="white" stroke-width="8"/>
<circle cx="570.0" cy="510.0" r="15.0" fill="none" stroke="white" stroke-width="8"/>
<path d="M 660 510.0 Q 630.0 510.0 630.0 540" fill="none" stroke="white" stroke-width="8"/>
<path d="M 690.0 480 Q 690.0 510.0 660 510.0" fill="none" stroke="white" stroke-width="8"/>
<path d="M 690.0 480 Q 690.0 510.0 720 510.0" fill="none" stroke="white" stroke-width="8"/>
<line x1="720" y1="510.0" x2="735.0" y2="510.0" stroke="white" stroke-width="8"/>
<circle cx="750.0" cy="510.0" r="15.0" fill="none" stroke="white" stroke-width="8"/>
<line x1="540" y1="570.0" x2="525.0" y2="570.0" stroke="white" stroke-width="8"/>
<circle cx="510.0" cy="570.0" r="15.0" fill="none" stroke="white" stroke-width="8"/>
<line x1="540" y1="570.0" x2="600" y2="570.0" stroke="white" stroke-width="8"/>
<path d="M 600 570.0 Q 570.0 570.0 570.0 600" fill="none" stroke="white" stroke-width="8"/>
<path d="M 630.0 540 Q 630.0 570.0 600 570.0" fill="none" stroke="white" stroke-width="8"/>
<path d="M 630.0 540 Q 630.0 570.0 660 570.0" fill="none" stroke="white" stroke-width="8"/>
<path d="M 660 570.0 Q 690.0 570.0 690.0 600" fill="none" stroke="white" stroke-width="8"/>
<line x1="420" y1="630.0" x2="405.0" y2="630.0" stroke="white" stroke-width="8"/>
<circle cx="390.0" cy="630.0" r="15.0" fill="none" stroke="white" stroke-width="8"/>
<line x1="420" y1="630.0" x2="480" y2="630.0" stroke="white" stroke-width="8"/>
<path d="M 480 630.0 Q 450.0 630.0 450.0 660" fill="none" stroke="white" stroke-width="8"/>
<line x1="480" y1="630.0" x2="540" y2="630.0" stroke="white" stroke-width="8"/>
<path d="M 540 630.0 Q 510.0 630.0 510.0 660" fill="none" stroke="white" stroke-width="8"/>
<path d="M 570.0 600 Q 570.0 630.0 540 630.0" fill="none" stroke="white" stroke-width="8"/>
<path d="M 660 630.0 Q 630.0 630.0 630.0 660" fill="none" stroke="white" stroke-width="8"/>
<path d="M 690.0 600 Q 690.0 630.0 660 630.0" fill="none" stroke="white" stroke-width="8"/>
<line x1="450.0" y1="660" x2="450.0" y2="675.0" stroke="white" stroke-width="8"/>
<circle cx="450.0" cy="690.0" r="15.0" fill="none" stroke="white" stroke-width="8"/>
<line x1="510.0" y1="660" x2="510.0" y2="675.0" stroke="white" stroke-width="8"/>
<circle cx="510.0" cy="690.0" r="15.0" fill="none" stroke="white" stroke-width="8"/>
<line x1="630.0" y1="660" x2="630.0" y2="675.0" stroke="white" stroke-width="8"/>
<circle cx="630.0" cy="690.0" r="15.0" fill="none" stroke="white" stroke-width="8"/>
</g>
</svg>