<svg width="1280" height="980" xmlns="http://www.w3.org/2000/svg">
<g transform="translate(40, 40)">
<circle cx="630.0" cy="30.0" r="15.0" fill="white" stroke="white" stroke-width="8"/>
<line x1="630.0" y1="45.0" x2="630.0" y2="60" stroke="white" stroke-width="8"/>
<line x1="630.0" y1="60" x2="630.0" y2="120" stroke="white" stroke-width="8"/>
<line x1="630.0" y1="120" x2="630.0" y2="180" stroke="white" stroke-width="8"/>
<path d="M 300 210.0 Q 270.0 210.0 270.0 240" fill="none" stroke="white" stroke-width="8"/>
<line x1="300" y1="210.0" x2="360" y2="210.0" stroke="white" stroke-width="8"/>
<line x1="360" y1="210.0" x2="420" y2="210.0" stroke="white" stroke-width="8"/>
<path d="M 420 210.0 Q 390.0 210.0 390.0 240" fill="none" stroke="white" stroke-width="8"/>
<line x1="420" y1="210.0" x2="480" y2="210.0" stroke="white" stroke-width="8"/>
<path d="M 480 210.0 Q 450.0 210.0 450.0 240" fill="none" stroke="white" stroke-width="8"/>
<line x1="480" y1="210.0" x2="540" y2="210.0" stroke="white" stroke-width="8"/>
<path d="M 540 210.0 Q 510.0 210.0 510.0 240" fill="none" stroke="white" stroke-width="8"/>
<line x1="540" y1="210.0" x2="600" y2="210.0" stroke="white" stroke-width="8"/>
<path d="M 630.0 180 Q 630.0 210.0 600 210.0" fill="none" stroke="white" stroke-width="8"/>
<path d="M 630.0 180 Q 630.0 210.0 660 210.0" fill="none" stroke="white" stroke-width="8"/>
<line x1="660" y1="210.0" x2="720" y2="210.0" stroke="white" stroke-width="8"/>
<path d="M 720 210.0 Q 750.0 210.0 750.0 240" fill="none" stroke="white" stroke-width="8"/>
<path d="M 240 270.0 Q 210.0 270.0 210.0 300" fill="none" stroke="white" stroke-width="8"/>
<path d="M 270.0 240 Q 270.0 270.0 240 270.0" fill="none" stroke="white" stroke-width="8"/>
<path d="M 360 270.0 Q 330.0 270.0 330.0 300" fill="none" stroke="white" stroke-width="8"/>
<path d="M 390.0 240 Q 390.0 270.0 360 270.0" fill="none" stroke="white" stroke-width="8"/>
<line x1="450.0" y1="240" x2="450.0" y2="255.0" stroke="white" stroke-width="8"/>
<circle cx="450.0" cy="270.0" r="15.0" fill="none" stroke="white" stroke-width="8"/>
<line x1="510.0" y1="240" x2="510.0" y2="255.0" stroke="white" stroke-width="8"/>
<circle cx="510.0" cy="270.0" r="15.0" fill="none" stroke="white" stroke-width="8"/>
<path d="M 720 270.0 Q 690.0 270.0 690.0 300" fill="none" stroke="white" stroke-width="8"/>
<path d="M 750.0 240 Q 750.0 270.0 720 270.0" fill="none" stroke="white" stroke-width="8"/>
<line x1="60" y1="330.0" x2="45.0" y2="330.0" stroke="white" stroke-width="8"/>
<circle cx="30.0" cy="330.0" r="15.0" fill="none" stroke="white" stroke-width="8"/>
<line x1="60" y1="330.0" x2="120" y2="330.0" stroke="white" stroke-width="8"/>
<line x1="120" y1="330.0" x2="180" y2="330.0" stroke="white" stroke-width="8"/>
<path d="M 210.0 300 Q 210.0 330.0 180 330.0" fill="none" stroke="white" stroke-width="8"/>
<line x1="300" y1="330.0" x2="285.0" y2="330.0" stroke="white" stroke-width="8"/>
<circle cx="270.0" cy="330.0" r="15.0" fill="none" stroke="white" stroke-width="8"/>
<path d="M 330.0 300 Q 330.0 330.0 300 330.0" fill="none" stroke="white" stroke-width="8"/>
<path d="M 660 330.0 Q 630.0 330.0 630.0 360" fill="none" stroke="white" stroke-width="8"/>
<path d="M 690.0 300 Q 690.0 330.0 660 330.0" fill="none" stroke="white" stroke-width="8"/>
<path d="M 600 390.0 Q 570.0 390.0 570.0 420" fill="none" stroke="white" stroke-width="8"/>
<path d="M 630.0 360 Q 630.0 390.0 600 390.0" fill="none" stroke="white" stroke-width="8"/>
<path d="M 630.0 360 Q 630.0 390.0 660 390.0" fill="none" stroke="white" stroke-width="8"/>
<line x1="660" y1="390.0" x2="675.0" y2="390.0" stroke="white" stroke-width="8"/>
<circle cx="690.0" cy="390.0" r="15.0" fill="none" stroke="white" stroke-width="8"/>
<path d="M 540 450.0 Q 510.0 450.0 510.0 480" fill="none" stroke="white" stroke-width="8"/>
<path d="M 570.0 420 Q 570.0 450.0 540 450.0" fill="none" stroke="white" stroke-width="8"/>
<path d="M 480 510.0 Q 450.0 510.0 450.0 540" fill="none" stroke="white" stroke-width="8"/>
<path d="M 510.0 480 Q 510.0 510.0 480 510.0" fill="none" stroke="white" stroke-width="8"/>
<line x1="420" y1="570.0" x2="405.0" y2="570.0" stroke="white" stroke-width="8"/>
<circle cx="390.0" cy="570.0" r="15.0" fill="none" stroke="white" stroke-width="8"/>
<path d="M 450.0 540 Q 450.0 570.0 420 570.0" fill="none" stroke="white" stroke-width="8"/>
<path d="M 450.0 540 Q 450.0 570.0 480 570.0" fill="none" stroke="white" stroke-width="8"/>
<path d="M 480 570.0 Q 510.0 570.0 510.0 600" fill="none" stroke="white" stroke-width="8"/>
<path d="M 480 630.0 Q 450.0 630.0 450.0 660" fill="none" stroke="white" stroke-width="8"/>
<path d="M 510.0 600 Q 510.0 630.0 480 630.0" fill="none" stroke="white" stroke-width="8"/>
<path d="M 510.0 600 Q 510.0 630.0 540 630.0" fill="none" stroke="white" stroke-width="8"/>
<path d="M 540 630.0 Q 570.0 630.0 570.0 660" fill="none" stroke="white" stroke-width="8"/>
<line x1="450.0" y1="660" x2="450.0" y2="675.0" stroke="white" stroke-width="8"/>
<circle cx="450.0" cy="690.0" r="15.0" fill="none" stroke="white" stroke-width="8"/>
<path d="M 540 690.0 Q 510.0 690.0 510.0 720" fill="none" stroke="white" stroke-width="8"/>
<path d="M 570.0 660 Q 570.0 690.0 540 690.0" fill="none" stroke="white" stroke-width="8"/>
<path d="M 570.0 660 Q 570.0 690.0 600 690.0" fill="none" stroke="white" stroke-width="8"/>
<path d="M 600 690.0 Q 630.0 690.0 630.0 720" fill="none" stroke="white" stroke-width="8"/>
<line x1="510.0" y1="720" x2="510.0" y2="735.0" stroke="white" stroke-width="8"/>
<circle cx="510.0" cy="750.0" r="15.0" fill="none" stroke="white" stroke-width="8"/>
<path d="M 600 750.0 Q 570.0 750.0 570.0 780" fill="none" stroke="white" stroke-width="8"/>
<path d="M 630.0 720 Q 630.0 750.0 600 750.0" fill="none" stroke="white" stroke-width="8"/>
<path d="M 630.0 720 Q 630.0 750.0 660 750.0" fill="none" stroke="white" stroke-width="8"/>
<path d="M 660 750.0 Q 690.0 750.0 690.0 780" fill="none" stroke="white" stroke-width="8"/>
<line x1="540" y1="810.0" x2="525.0" y2="810.0" stroke="white" stroke-width="8"/>
<circle cx="510.0" cy="810.0" r="15.0" fill="none" stroke="white" stroke-width="8"/>
<path d="M 570.0 780 Q 570.0 810.0 540 810.0" fill="none" stroke="white" stroke-width="8"/>
<path d="M 660 810.0 Q 630.0 810.0 630.0 840" fill="none" stroke="white" stroke-width="8"/>
<path d="M 690.0 780 Q 690.0 810.0 660 810.0" fill="none" stroke="white" stroke-width="8"/>
<path d="M 690.0 780 Q 690.0 810.0 720 810.0" fill="none" stroke="white" stroke-width="8"/>
<line x1="720" y1="810.0" x2="780" y2="810.0" stroke="white" stroke-width="8"/>
<path d="M 720 810.0 Q 750.0 810.0 750.0 840" fill="none" stroke="white" stroke-width="8"/>
<line x1="780" y1="810.0" x2="840" y2="810.0" stroke="white" stroke-width="8"/>
<path d="M 780 810.0 Q 810.0 810.0 810.0 840" fill="none" stroke="white" stroke-width="8"/>
<path d="M 840 810.0 Q 870.0 810.0 870.0 840" fill="none" stroke="white" stroke-width="8"/>
<line x1="630.0" y1="840" x2="630.0" y2="855.0" stroke="white" stroke-width="8"/>
<circle cx="630.0" cy="870.0" r="15.0" fill="none" stroke="white" stroke-width="8"/>
<line x1="750.0" y1="840" x2="750.0" y2="855.0" stroke="white" stroke-width="8"/>
<circle cx="750.0" cy="870.0" r="15.0" fill="none" stroke="white" stroke-width="8"/>
<line x1="810.0" y1="840" x2="810.0" y2="855.0" stroke="white" stroke-width="8"/>
<circle cx="810.0" cy="870.0" r="15.0" fill="none" stroke="white" stroke-width="8"/>
<line x1="870.0" y1="840" x2="870.0" y2="855.0" stroke="white" stroke-width="8"/>
<circle cx="870.0" cy="870.0" r="15.0" fill="none" stroke="white" stroke-width="8"/>
</g>
</svg>