<svg width="1280" height="980" xmlns="http://www.w3.org/2000/svg">
<g transform="translate(40, 40)">
<circle cx="630.0" cy="30.0" r="15.0" fill="white" stroke="white" stroke-width="8"/>
<line x1="630.0" y1="45.0" x2="630.0" y2="60" stroke="white" stroke-width="8"/>
<line x1="630.0" y1="60" x2="630.0" y2="120" stroke="white" stroke-width="8"/>
<line x1="630.0" y1="120" x2="630.0" y2="180" stroke="white" stroke-width="8"/>
<path d="M 540 210.0 Q 510.0 210.0 510.0 240" fill="none" stroke="white" stroke-width="8"/>
<line x1="540" y1="210.0" x2="600" y2="210.0" stroke="white" stroke-width="8"/>
<path d="M 630.0 180 Q 630.0 210.0 600 210.0" fill="none" stroke="white" stroke-width="8"/>
<path d="M 630.0 180 Q 630.0 210.0 660 210.0" fill="none" stroke="white" stroke-width="8"/>
<line x1="660" y1="210.0" x2="720" y2="210.0" stroke="white" stroke-width="8"/>
<line x1="720" y1="210.0" x2="780" y2="210.0" stroke="white" stroke-width="8"/>
<path d="M 720 210.0 Q 750.0 210.0 750.0 240" fill="none" stroke="white" stroke-width="8"/>
<path d="M 780 210.0 Q 810.0 210.0 810.0 240" fill="none" stroke="white" stroke-width="8"/>
<line x1="510.0" y1="240" x2="510.0" y2="255.0" stroke="white" stroke-width="8"/>
<circle cx="510.0" cy="270.0" r="15.0" fill="none" stroke="white" stroke-width="8"/>
<line x1="720" y1="270.0" x2="705.0" y2="270.0" stroke="white" stroke-width="8"/>
<circle cx="690.0" cy="270.0" r="15.0" fill="none" stroke="white" stroke-width="8"/>
<path d="M 750.0 240 Q 750.0 270.0 720 270.0" fill="none" stroke="white" stroke-width="8"/>
<line x1="810.0" y1="240" x2="810.0" y2="300" stroke="white" stroke-width="8"/>
<path d="M 810.0 240 Q 810.0 270.0 840 270.0" fill="none" stroke="white" stroke-width="8"/>
<line x1="840" y1="270.0" x2="900" y2="270.0" stroke="white" stroke-width="8"/>
<path d="M 840 270.0 Q 870.0 270.0 870.0 300" fill="none" stroke="white" stroke-width="8"/>
<path d="M 900 270.0 Q 930.0 270.0 930.0 300" fill="none" stroke="white" stroke-width="8"/>
<line x1="810.0" y1="300" x2="810.0" y2="315.0" stroke="white" stroke-width="8"/>
<circle cx="810.0" cy="330.0" r="15.0" fill="none" stroke="white" stroke-width="8"/>
<line x1="870.0" y1="300" x2="870.0" y2="315.0" stroke="white" stroke-width="8"/>
<circle cx="870.0" cy="330.0" r="15.0" fill="none" stroke="white" stroke-width="8"/>
<line x1="930.0" y1="300" x2="930.0" y2="360" stroke="white" stroke-width="8"/>
<path d="M 930.0 300 Q 930.0 330.0 960 330.0" fill="none" stroke="white" stroke-width="8"/>
<path d="M 960 330.0 Q 990.0 330.0 990.0 360" fill="none" stroke="white" stroke-width="8"/>
<line x1="930.0" y1="360" x2="930.0" y2="420" stroke="white" stroke-width="8"/>
<line x1="990.0" y1="360" x2="990.0" y2="375.0" stroke="white" stroke-width="8"/>
<circle cx="990.0" cy="390.0" r="15.0" fill="none" stroke="white" stroke-width="8"/>
<path d="M 840 450.0 Q 810.0 450.0 810.0 480" fill="none" stroke="white" stroke-width="8"/>
<line x1="840" y1="450.0" x2="900" y2="450.0" stroke="white" stroke-width="8"/>
<path d="M 900 450.0 Q 870.0 450.0 870.0 480" fill="none" stroke="white" stroke-width="8"/>
<path d="M 930.0 420 Q 930.0 450.0 900 450.0" fill="none" stroke="white" stroke-width="8"/>
<line x1="720" y1="510.0" x2="705.0" y2="510.0" stroke="white" stroke-width="8"/>
<circle cx="690.0" cy="510.0" r="15.0" fill="none" stroke="white" stroke-width="8"/>
<line x1="720" y1="510.0" x2="780" y2="510.0" stroke="white" stroke-width="8"/>
<path d="M 780 510.0 Q 750.0 510.0 750.0 540" fill="none" stroke="white" stroke-width="8"/>
<path d="M 810.0 480 Q 810.0 510.0 780 510.0" fill="none" stroke="white" stroke-width="8"/>
<path d="M 870.0 480 Q 870.0 510.0 900 510.0" fill="none" stroke="white" stroke-width="8"/>
<line x1="900" y1="510.0" x2="960" y2="510.0" stroke="white" stroke-width="8"/>
<path d="M 900 510.0 Q 930.0 510.0 930.0 540" fill="none" stroke="white" stroke-width="8"/>
<line x1="960" y1="510.0" x2="1020" y2="510.0" stroke="white" stroke-width="8"/>
<path d="M 960 510.0 Q 990.0 510.0 990.0 540" fill="none" stroke="white" stroke-width="8"/>
<line x1="1020" y1="510.0" x2="1035.0" y2="510.0" stroke="white" stroke-width="8"/>
<circle cx="1050.0" cy="510.0" r="15.0" fill="none" stroke="white" stroke-width="8"/>
<path d="M 720 570.0 Q 690.0 570.0 690.0 600" fill="none" stroke="white" stroke-width="8"/>
<path d="M 750.0 540 Q 750.0 570.0 720 570.0" fill="none" stroke="white" stroke-width="8"/>
<path d="M 900 570.0 Q 870.0 570.0 870.0 600" fill="none" stroke="white" stroke-width="8"/>
<path d="M 930.0 540 Q 930.0 570.0 900 570.0" fill="none" stroke="white" stroke-width="8"/>
<path d="M 990.0 540 Q 990.0 570.0 1020 570.0" fill="none" stroke="white" stroke-width="8"/>
<path d="M 1020 570.0 Q 1050.0 570.0 1050.0 600" fill="none" stroke="white" stroke-width="8"/>
<path d="M 660 630.0 Q 630.0 630.0 630.0 660" fill="none" stroke="white" stroke-width="8"/>
<path d="M 690.0 600 Q 690.0 630.0 660 630.0" fill="none" stroke="white" stroke-width="8"/>
<line x1="840" y1="630.0" x2="825.0" y2="630.0" stroke="white" stroke-width="8"/>
<circle cx="810.0" cy="630.0" r="15.0" fill="none" stroke="white" stroke-width="8"/>
<path d="M 870.0 600 Q 870.0 630.0 840 630.0" fill="none" stroke="white" stroke-width="8"/>
<path d="M 870.0 600 Q 870.0 630.0 900 630.0" fill="none" stroke="white" stroke-width="8"/>
<path d="M 900 630.0 Q 930.0 630.0 930.0 660" fill="none" stroke="white" stroke-width="8"/>
<line x1="1050.0" y1="600" x2="1050.0" y2="615.0" stroke="white" stroke-width="8"/>
<circle cx="1050.0" cy="630.0" r="15.0" fill="none" stroke="white" stroke-width="8"/>
<line x1="420" y1="690.0" x2="405.0" y2="690.0" stroke="white" stroke-width="8"/>
<circle cx="390.0" cy="690.0" r="15.0" fill="none" stroke="white" stroke-width="8"/>
<line x1="420" y1="690.0" x2="480" y2="690.0" stroke="white" stroke-width="8"/>
<line x1="480" y1="690.0" x2="540" y2="690.0" stroke="white" stroke-width="8"/>
<path d="M 540 690.0 Q 510.0 690.0 510.0 720" fill="none" stroke="white" stroke-width="8"/>
<line x1="540" y1="690.0" x2="600" y2="690.0" stroke="white" stroke-width="8"/>
<path d="M 630.0 660 Q 630.0 690.0 600 690.0" fill="none" stroke="white" stroke-width="8"/>
<path d="M 900 690.0 Q 870.0 690.0 870.0 720" fill="none" stroke="white" stroke-width="8"/>
<path d="M 930.0 660 Q 930.0 690.0 900 690.0" fill="none" stroke="white" stroke-width="8"/>
<line x1="480" y1="750.0" x2="465.0" y2="750.0" stroke="white" stroke-width="8"/>
<circle cx="450.0" cy="750.0" r="15.0" fill="none" stroke="white" stroke-width="8"/>
<line x1="510.0" y1="720" x2="510.0" y2="780" stroke="white" stroke-width="8"/>
<path d="M 510.0 720 Q 510.0 750.0 480 750.0" fill="none" stroke="white" stroke-width="8"/>
<line x1="660" y1="750.0" x2="645.0" y2="750.0" stroke="white" stroke-width="8"/>
<circle cx="630.0" cy="750.0" r="15.0" fill="none" stroke="white" stroke-width="8"/>
<line x1="660" y1="750.0" x2="720" y2="750.0" stroke="white" stroke-width="8"/>
<line x1="720" y1="750.0" x2="780" y2="750.0" stroke="white" stroke-width="8"/>
<path d="M 780 750.0 Q 750.0 750.0 750.0 780" fill="none" stroke="white" stroke-width="8"/>
<line x1="780" y1="750.0" x2="840" y2="750.0" stroke="white" stroke-width="8"/>
<path d="M 840 750.0 Q 810.0 750.0 810.0 780" fill="none" stroke="white" stroke-width="8"/>
<path d="M 870.0 720 Q 870.0 750.0 840 750.0" fill="none" stroke="white" stroke-width="8"/>
<line x1="510.0" y1="780" x2="510.0" y2="795.0" stroke="white" stroke-width="8"/>
<circle cx="510.0" cy="810.0" r="15.0" fill="none" stroke="white" stroke-width="8"/>
<line x1="720" y1="810.0" x2="705.0" y2="810.0" stroke="white" stroke-width="8"/>
<circle cx="690.0" cy="810.0" r="15.0" fill="none" stroke="white" stroke-width="8"/>
<line x1="750.0" y1="780" x2="750.0" y2="840" stroke="white" stroke-width="8"/>
<path d="M 750.0 780 Q 750.0 810.0 720 810.0" fill="none" stroke="white" stroke-width="8"/>
<line x1="810.0" y1="780" x2="810.0" y2="840" stroke="white" stroke-width="8"/>
<line x1="750.0" y1="840" x2="750.0" y2="855.0" stroke="white" stroke-width="8"/>
<circle cx="750.0" cy="870.0" r="15.0" fill="none" stroke="white" stroke-width="8"/>
<line x1="810.0" y1="840" x2="810.0" y2="855.0" stroke="white" stroke-width="8"/>
<circle cx="810.0" cy="870.0" r="15.0" fill="none" stroke="white" stroke-width="8"/>
</g>
</svg>