<svg width="1280" height="980" xmlns="http://www.w3.org/2000/svg">
<g transform="translate(40, 40)">
<circle cx="630.0" cy="30.0" r="15.0" fill="white" stroke="white" stroke-width="8"/>
<line x1="630.0" y1="45.0" x2="630.0" y2="60" stroke="white" stroke-width="8"/>
<line x1="630.0" y1="60" x2="630.0" y2="120" stroke="white" stroke-width="8"/>
<line x1="630.0" y1="120" x2="630.0" y2="180" stroke="white" stroke-width="8"/>
<path d="M 540 210.0 Q 510.0 210.0 510.0 240" fill="none" stroke="white" stroke-width="8"/>
<line x1="540" y1="210.0" x2="600" y2="210.0" stroke="white" stroke-width="8"/>
<path d="M 630.0 180 Q 630.0 210.0 600 210.0" fill="none" stroke="white" stroke-width="8"/>
<path d="M 630.0 180 Q 630.0 210.0 660 210.0" fill="none" stroke="white" stroke-width="8"/>
<line x1="660" y1="210.0" x2="720" y2="210.0" stroke="white" stroke-width="8"/>
<line x1="720" y1="210.0" x2="780" y2="210.0" stroke="white" stroke-width="8"/>
<path d="M 720 210.0 Q 750.0 210.0 750.0 240" fill="none" stroke="white" stroke-width="8"/>
<line x1="780" y1="210.0" x2="840" y2="210.0" stroke="white" stroke-width="8"/>
<line x1="840" y1="210.0" x2="900" y2="210.0" stroke="white" stroke-width="8"/>
<path d="M 840 210.0 Q 870.0 210.0 870.0 240" fill="none" stroke="white" stroke-width="8"/>
<line x1="900" y1="210.0" x2="960" y2="210.0" stroke="white" stroke-width="8"/>
<path d="M 960 210.0 Q 990.0 210.0 990.0 240" fill="none" stroke="white" stroke-width="8"/>
<path d="M 240 270.0 Q 210.0 270.0 210.0 300" fill="none" stroke="white" stroke-width="8"/>
<line x1="240" y1="270.0" x2="300" y2="270.0" stroke="white" stroke-width="8"/>
<line x1="300" y1="270.0" x2="360" y2="270.0" stroke="white" stroke-width="8"/>
<path d="M 360 270.0 Q 330.0 270.0 330.0 300" fill="none" stroke="white" stroke-width="8"/>
<line x1="360" y1="270.0" x2="420" y2="270.0" stroke="white" stroke-width="8"/>
<path d="M 420 270.0 Q 390.0 270.0 390.0 300" fill="none" stroke="white" stroke-width="8"/>
<line x1="420" y1="270.0" x2="480" y2="270.0" stroke="white" stroke-width="8"/>
<path d="M 480 270.0 Q 450.0 270.0 450.0 300" fill="none" stroke="white" stroke-width="8"/>
<path d="M 510.0 240 Q 510.0 270.0 480 270.0" fill="none" stroke="white" stroke-width="8"/>
<path d="M 510.0 240 Q 510.0 270.0 540 270.0" fill="none" stroke="white" stroke-width="8"/>
<line x1="540" y1="270.0" x2="600" y2="270.0" stroke="white" stroke-width="8"/>
<path d="M 540 270.0 Q 570.0 270.0 570.0 300" fill="none" stroke="white" stroke-width="8"/>
<line x1="600" y1="270.0" x2="615.0" y2="270.0" stroke="white" stroke-width="8"/>
<circle cx="630.0" cy="270.0" r="15.0" fill="none" stroke="white" stroke-width="8"/>
<path d="M 720 270.0 Q 690.0 270.0 690.0 300" fill="none" stroke="white" stroke-width="8"/>
<path d="M 750.0 240 Q 750.0 270.0 720 270.0" fill="none" stroke="white" stroke-width="8"/>
<path d="M 750.0 240 Q 750.0 270.0 780 270.0" fill="none" stroke="white" stroke-width="8"/>
<path d="M 780 270.0 Q 810.0 270.0 810.0 300" fill="none" stroke="white" stroke-width="8"/>
<path d="M 870.0 240 Q 870.0 270.0 900 270.0" fill="none" stroke="white" stroke-width="8"/>
<path d="M 900 270.0 Q 930.0 270.0 930.0 300" fill="none" stroke="white" stroke-width="8"/>
<path d="M 990.0 240 Q 990.0 270.0 1020 270.0" fill="none" stroke="white" stroke-width="8"/>
<line x1="1020" y1="270.0" x2="1080" y2="270.0" stroke="white" stroke-width="8"/>
<path d="M 1020 270.0 Q 1050.0 270.0 1050.0 300" fill="none" stroke="white" stroke-width="8"/>
<line x1="1080" y1="270.0" x2="1095.0" y2="270.0" stroke="white" stroke-width="8"/>
<circle cx="1110.0" cy="270.0" r="15.0" fill="none" stroke="white" stroke-width="8"/>
<line x1="120" y1="330.0" x2="105.0" y2="330.0" stroke="white" stroke-width="8"/>
<circle cx="90.0" cy="330.0" r="15.0" fill="none" stroke="white" stroke-width="8"/>
<line x1="120" y1="330.0" x2="180" y2="330.0" stroke="white" stroke-width="8"/>
<path d="M 210.0 300 Q 210.0 330.0 180 330.0" fill="none" stroke="white" stroke-width="8"/>
<line x1="330.0" y1="300" x2="330.0" y2="315.0" stroke="white" stroke-width="8"/>
<circle cx="330.0" cy="330.0" r="15.0" fill="none" stroke="white" stroke-width="8"/>
<line x1="390.0" y1="300" x2="390.0" y2="315.0" stroke="white" stroke-width="8"/>
<circle cx="390.0" cy="330.0" r="15.0" fill="none" stroke="white" stroke-width="8"/>
<line x1="450.0" y1="300" x2="450.0" y2="315.0" stroke="white" stroke-width="8"/>
<circle cx="450.0" cy="330.0" r="15.0" fill="none" stroke="white" stroke-width="8"/>
<line x1="570.0" y1="300" x2="570.0" y2="315.0" stroke="white" stroke-width="8"/>
<circle cx="570.0" cy="330.0" r="15.0" fill="none" stroke="white" stroke-width="8"/>
<line x1="660" y1="330.0" x2="645.0" y2="330.0" stroke="white" stroke-width="8"/>
<circle cx="630.0" cy="330.0" r="15.0" fill="none" stroke="white" stroke-width="8"/>
<path d="M 690.0 300 Q 690.0 330.0 660 330.0" fill="none" stroke="white" stroke-width="8"/>
<path d="M 780 330.0 Q 750.0 330.0 750.0 360" fill="none" stroke="white" stroke-width="8"/>
<path d="M 810.0 300 Q 810.0 330.0 780 330.0" fill="none" stroke="white" stroke-width="8"/>
<path d="M 810.0 300 Q 810.0 330.0 840 330.0" fill="none" stroke="white" stroke-width="8"/>
<path d="M 840 330.0 Q 870.0 330.0 870.0 360" fill="none" stroke="white" stroke-width="8"/>
<path d="M 930.0 300 Q 930.0 330.0 960 330.0" fill="none" stroke="white" stroke-width="8"/>
<path d="M 960 330.0 Q 990.0 330.0 990.0 360" fill="none" stroke="white" stroke-width="8"/>
<path d="M 1050.0 300 Q 1050.0 330.0 1080 330.0" fill="none" stroke="white" stroke-width="8"/>
<path d="M 1080 330.0 Q 1110.0 330.0 1110.0 360" fill="none" stroke="white" stroke-width="8"/>
<line x1="750.0" y1="360" x2="750.0" y2="375.0" stroke="white" stroke-width="8"/>
<circle cx="750.0" cy="390.0" r="15.0" fill="none" stroke="white" stroke-width="8"/>
<line x1="840" y1="390.0" x2="825.0" y2="390.0" stroke="white" stroke-width="8"/>
<circle cx="810.0" cy="390.0" r="15.0" fill="none" stroke="white" stroke-width="8"/>
<path d="M 870.0 360 Q 870.0 390.0 840 390.0" fill="none" stroke="white" stroke-width="8"/>
<path d="M 870.0 360 Q 870.0 390.0 900 390.0" fill="none" stroke="white" stroke-width="8"/>
<path d="M 900 390.0 Q 930.0 390.0 930.0 420" fill="none" stroke="white" stroke-width="8"/>
<path d="M 990.0 360 Q 990.0 390.0 1020 390.0" fill="none" stroke="white" stroke-width="8"/>
<path d="M 1020 390.0 Q 1050.0 390.0 1050.0 420" fill="none" stroke="white" stroke-width="8"/>
<line x1="1110.0" y1="360" x2="1110.0" y2="375.0" stroke="white" stroke-width="8"/>
<circle cx="1110.0" cy="390.0" r="15.0" fill="none" stroke="white" stroke-width="8"/>
<path d="M 780 450.0 Q 750.0 450.0 750.0 480" fill="none" stroke="white" stroke-width="8"/>
<line x1="780" y1="450.0" x2="840" y2="450.0" stroke="white" stroke-width="8"/>
<line x1="840" y1="450.0" x2="900" y2="450.0" stroke="white" stroke-width="8"/>
<path d="M 900 450.0 Q 870.0 450.0 870.0 480" fill="none" stroke="white" stroke-width="8"/>
<path d="M 930.0 420 Q 930.0 450.0 900 450.0" fill="none" stroke="white" stroke-width="8"/>
<path d="M 930.0 420 Q 930.0 450.0 960 450.0" fill="none" stroke="white" stroke-width="8"/>
<path d="M 960 450.0 Q 990.0 450.0 990.0 480" fill="none" stroke="white" stroke-width="8"/>
<path d="M 1050.0 420 Q 1050.0 450.0 1080 450.0" fill="none" stroke="white" stroke-width="8"/>
<line x1="1080" y1="450.0" x2="1140" y2="450.0" stroke="white" stroke-width="8"/>
<line x1="1140" y1="450.0" x2="1155.0" y2="450.0" stroke="white" stroke-width="8"/>
<circle cx="1170.0" cy="450.0" r="15.0" fill="none" stroke="white" stroke-width="8"/>
<line x1="750.0" y1="480" x2="750.0" y2="495.0" stroke="white" stroke-width="8"/>
<circle cx="750.0" cy="510.0" r="15.0" fill="none" stroke="white" stroke-width="8"/>
<path d="M 840 510.0 Q 810.0 510.0 810.0 540" fill="none" stroke="white" stroke-width="8"/>
<path d="M 870.0 480 Q 870.0 510.0 840 510.0" fill="none" stroke="white" stroke-width="8"/>
<path d="M 870.0 480 Q 870.0 510.0 900 510.0" fill="none" stroke="white" stroke-width="8"/>
<path d="M 900 510.0 Q 930.0 510.0 930.0 540" fill="none" stroke="white" stroke-width="8"/>
<line x1="990.0" y1="480" x2="990.0" y2="540" stroke="white" stroke-width="8"/>
<path d="M 990.0 480 Q 990.0 510.0 1020 510.0" fill="none" stroke="white" stroke-width="8"/>
<line x1="1020" y1="510.0" x2="1080" y2="510.0" stroke="white" stroke-width="8"/>
<path d="M 1020 510.0 Q 1050.0 510.0 1050.0 540" fill="none" stroke="white" stroke-width="8"/>
<line x1="1080" y1="510.0" x2="1095.0" y2="510.0" stroke="white" stroke-width="8"/>
<circle cx="1110.0" cy="510.0" r="15.0" fill="none" stroke="white" stroke-width="8"/>
<path d="M 780 570.0 Q 750.0 570.0 750.0 600" fill="none" stroke="white" stroke-width="8"/>
<line x1="810.0" y1="540" x2="810.0" y2="600" stroke="white" stroke-width="8"/>
<path d="M 810.0 540 Q 810.0 570.0 780 570.0" fill="none" stroke="white" stroke-width="8"/>
<line x1="900" y1="570.0" x2="885.0" y2="570.0" stroke="white" stroke-width="8"/>
<circle cx="870.0" cy="570.0" r="15.0" fill="none" stroke="white" stroke-width="8"/>
<path d="M 930.0 540 Q 930.0 570.0 900 570.0" fill="none" stroke="white" stroke-width="8"/>
<line x1="990.0" y1="540" x2="990.0" y2="555.0" stroke="white" stroke-width="8"/>
<circle cx="990.0" cy="570.0" r="15.0" fill="none" stroke="white" stroke-width="8"/>
<path d="M 1050.0 540 Q 1050.0 570.0 1080 570.0" fill="none" stroke="white" stroke-width="8"/>
<line x1="1080" y1="570.0" x2="1095.0" y2="570.0" stroke="white" stroke-width="8"/>
<circle cx="1110.0" cy="570.0" r="15.0" fill="none" stroke="white" stroke-width="8"/>
<path d="M 660 630.0 Q 630.0 630.0 630.0 660" fill="none" stroke="white" stroke-width="8"/>
<line x1="660" y1="630.0" x2="720" y2="630.0" stroke="white" stroke-width="8"/>
<path d="M 720 630.0 Q 690.0 630.0 690.0 660" fill="none" stroke="white" stroke-width="8"/>
<line x1="750.0" y1="600" x2="750.0" y2="660" stroke="white" stroke-width="8"/>
<path d="M 750.0 600 Q 750.0 630.0 720 630.0" fill="none" stroke="white" stroke-width="8"/>
<line x1="810.0" y1="600" x2="810.0" y2="615.0" stroke="white" stroke-width="8"/>
<circle cx="810.0" cy="630.0" r="15.0" fill="none" stroke="white" stroke-width="8"/>
<path d="M 600 690.0 Q 570.0 690.0 570.0 720" fill="none" stroke="white" stroke-width="8"/>
<line x1="630.0" y1="660" x2="630.0" y2="720" stroke="white" stroke-width="8"/>
<path d="M 630.0 660 Q 630.0 690.0 600 690.0" fill="none" stroke="white" stroke-width="8"/>
<line x1="690.0" y1="660" x2="690.0" y2="675.0" stroke="white" stroke-width="8"/>
<circle cx="690.0" cy="690.0" r="15.0" fill="none" stroke="white" stroke-width="8"/>
<line x1="750.0" y1="660" x2="750.0" y2="720" stroke="white" stroke-width="8"/>
<path d="M 750.0 660 Q 750.0 690.0 780 690.0" fill="none" stroke="white" stroke-width="8"/>
<line x1="780" y1="690.0" x2="795.0" y2="690.0" stroke="white" stroke-width="8"/>
<circle cx="810.0" cy="690.0" r="15.0" fill="none" stroke="white" stroke-width="8"/>
<line x1="480" y1="750.0" x2="465.0" y2="750.0" stroke="white" stroke-width="8"/>
<circle cx="450.0" cy="750.0" r="15.0" fill="none" stroke="white" stroke-width="8"/>
<line x1="480" y1="750.0" x2="540" y2="750.0" stroke="white" stroke-width="8"/>
<path d="M 570.0 720 Q 570.0 750.0 540 750.0" fill="none" stroke="white" stroke-width="8"/>
<line x1="630.0" y1="720" x2="630.0" y2="735.0" stroke="white" stroke-width="8"/>
<circle cx="630.0" cy="750.0" r="15.0" fill="none" stroke="white" stroke-width="8"/>
<line x1="720" y1="750.0" x2="705.0" y2="750.0" stroke="white" stroke-width="8"/>
<circle cx="690.0" cy="750.0" r="15.0" fill="none" stroke="white" stroke-width="8"/>
<path d="M 750.0 720 Q 750.0 750.0 720 750.0" fill="none" stroke="white" stroke-width="8"/>
<path d="M 750.0 720 Q 750.0 750.0 780 750.0" fill="none" stroke="white" stroke-width="8"/>
<line x1="780" y1="750.0" x2="795.0" y2="750.0" stroke="white" stroke-width="8"/>
<circle cx="810.0" cy="750.0" r="15.0" fill="none" stroke="white" stroke-width="8"/>
</g>
</svg>