<svg width="1280" height="980" xmlns="http://www.w3.org/2000/svg">
<g transform="translate(40, 40)">
<circle cx="630.0" cy="30.0" r="15.0" fill="white" stroke="white" stroke-width="8"/>
<line x1="630.0" y1="45.0" x2="630.0" y2="60" stroke="white" stroke-width="8"/>
<line x1="630.0" y1="60" x2="630.0" y2="120" stroke="white" stroke-width="8"/>
<line x1="630.0" y1="120" x2="630.0" y2="180" stroke="white" stroke-width="8"/>
<path d="M 360 210.0 Q 330.0 210.0 330.0 240" fill="none" stroke="white" stroke-width="8"/>
<line x1="360" y1="210.0" x2="420" y2="210.0" stroke="white" stroke-width="8"/>
<line x1="420" y1="210.0" x2="480" y2="210.0" stroke="white" stroke-width="8"/>
<line x1="480" y1="210.0" x2="540" y2="210.0" stroke="white" stroke-width="8"/>
<path d="M 540 210.0 Q 510.0 210.0 510.0 240" fill="none" stroke="white" stroke-width="8"/>
<line x1="540" y1="210.0" x2="600" y2="210.0" stroke="white" stroke-width="8"/>
<path d="M 630.0 180 Q 630.0 210.0 600 210.0" fill="none" stroke="white" stroke-width="8"/>
<path d="M 630.0 180 Q 630.0 210.0 660 210.0" fill="none" stroke="white" stroke-width="8"/>
<line x1="660" y1="210.0" x2="720" y2="210.0" stroke="white" stroke-width="8"/>
<path d="M 720 210.0 Q 750.0 210.0 750.0 240" fill="none" stroke="white" stroke-width="8"/>
<line x1="180" y1="270.0" x2="165.0" y2="270.0" stroke="white" stroke-width="8"/>
<circle cx="150.0" cy="270.0" r="15.0" fill="none" stroke="white" stroke-width="8"/>
<line x1="180" y1="270.0" x2="240" y2="270.0" stroke="white" stroke-width="8"/>
<line x1="240" y1="270.0" x2="300" y2="270.0" stroke="white" stroke-width="8"/>
<path d="M 330.0 240 Q 330.0 270.0 300 270.0" fill="none" stroke="white" stroke-width="8"/>
<path d="M 420 270.0 Q 390.0 270.0 390.0 300" fill="none" stroke="white" stroke-width="8"/>
<line x1="420" y1="270.0" x2="480" y2="270.0" stroke="white" stroke-width="8"/>
<path d="M 480 270.0 Q 450.0 270.0 450.0 300" fill="none" stroke="white" stroke-width="8"/>
<path d="M 510.0 240 Q 510.0 270.0 480 270.0" fill="none" stroke="white" stroke-width="8"/>
<path d="M 510.0 240 Q 510.0 270.0 540 270.0" fill="none" stroke="white" stroke-width="8"/>
<path d="M 540 270.0 Q 570.0 270.0 570.0 300" fill="none" stroke="white" stroke-width="8"/>
<path d="M 660 270.0 Q 630.0 270.0 630.0 300" fill="none" stroke="white" stroke-width="8"/>
<line x1="660" y1="270.0" x2="720" y2="270.0" stroke="white" stroke-width="8"/>
<path d="M 720 270.0 Q 690.0 270.0 690.0 300" fill="none" stroke="white" stroke-width="8"/>
<path d="M 750.0 240 Q 750.0 270.0 720 270.0" fill="none" stroke="white" stroke-width="8"/>
<line x1="240" y1="330.0" x2="225.0" y2="330.0" stroke="white" stroke-width="8"/>
<circle cx="210.0" cy="330.0" r="15.0" fill="none" stroke="white" stroke-width="8"/>
<line x1="240" y1="330.0" x2="300" y2="330.0" stroke="white" stroke-width="8"/>
<line x1="300" y1="330.0" x2="360" y2="330.0" stroke="white" stroke-width="8"/>
<path d="M 360 330.0 Q 330.0 330.0 330.0 360" fill="none" stroke="white" stroke-width="8"/>
<path d="M 390.0 300 Q 390.0 330.0 360 330.0" fill="none" stroke="white" stroke-width="8"/>
<line x1="450.0" y1="300" x2="450.0" y2="315.0" stroke="white" stroke-width="8"/>
<circle cx="450.0" cy="330.0" r="15.0" fill="none" stroke="white" stroke-width="8"/>
<path d="M 540 330.0 Q 510.0 330.0 510.0 360" fill="none" stroke="white" stroke-width="8"/>
<path d="M 570.0 300 Q 570.0 330.0 540 330.0" fill="none" stroke="white" stroke-width="8"/>
<line x1="630.0" y1="300" x2="630.0" y2="315.0" stroke="white" stroke-width="8"/>
<circle cx="630.0" cy="330.0" r="15.0" fill="none" stroke="white" stroke-width="8"/>
<line x1="690.0" y1="300" x2="690.0" y2="315.0" stroke="white" stroke-width="8"/>
<circle cx="690.0" cy="330.0" r="15.0" fill="none" stroke="white" stroke-width="8"/>
<path d="M 300 390.0 Q 270.0 390.0 270.0 420" fill="none" stroke="white" stroke-width="8"/>
<path d="M 330.0 360 Q 330.0 390.0 300 390.0" fill="none" stroke="white" stroke-width="8"/>
<path d="M 330.0 360 Q 330.0 390.0 360 390.0" fill="none" stroke="white" stroke-width="8"/>
<path d="M 360 390.0 Q 390.0 390.0 390.0 420" fill="none" stroke="white" stroke-width="8"/>
<path d="M 480 390.0 Q 450.0 390.0 450.0 420" fill="none" stroke="white" stroke-width="8"/>
<path d="M 510.0 360 Q 510.0 390.0 480 390.0" fill="none" stroke="white" stroke-width="8"/>
<path d="M 510.0 360 Q 510.0 390.0 540 390.0" fill="none" stroke="white" stroke-width="8"/>
<path d="M 540 390.0 Q 570.0 390.0 570.0 420" fill="none" stroke="white" stroke-width="8"/>
<line x1="180" y1="450.0" x2="165.0" y2="450.0" stroke="white" stroke-width="8"/>
<circle cx="150.0" cy="450.0" r="15.0" fill="none" stroke="white" stroke-width="8"/>
<line x1="180" y1="450.0" x2="240" y2="450.0" stroke="white" stroke-width="8"/>
<path d="M 270.0 420 Q 270.0 450.0 240 450.0" fill="none" stroke="white" stroke-width="8"/>
<path d="M 360 450.0 Q 330.0 450.0 330.0 480" fill="none" stroke="white" stroke-width="8"/>
<path d="M 390.0 420 Q 390.0 450.0 360 450.0" fill="none" stroke="white" stroke-width="8"/>
<line x1="450.0" y1="420" x2="450.0" y2="435.0" stroke="white" stroke-width="8"/>
<circle cx="450.0" cy="450.0" r="15.0" fill="none" stroke="white" stroke-width="8"/>
<line x1="540" y1="450.0" x2="525.0" y2="450.0" stroke="white" stroke-width="8"/>
<circle cx="510.0" cy="450.0" r="15.0" fill="none" stroke="white" stroke-width="8"/>
<path d="M 570.0 420 Q 570.0 450.0 540 450.0" fill="none" stroke="white" stroke-width="8"/>
<path d="M 570.0 420 Q 570.0 450.0 600 450.0" fill="none" stroke="white" stroke-width="8"/>
<path d="M 600 450.0 Q 630.0 450.0 630.0 480" fill="none" stroke="white" stroke-width="8"/>
<path d="M 240 510.0 Q 210.0 510.0 210.0 540" fill="none" stroke="white" stroke-width="8"/>
<line x1="240" y1="510.0" x2="300" y2="510.0" stroke="white" stroke-width="8"/>
<path d="M 300 510.0 Q 270.0 510.0 270.0 540" fill="none" stroke="white" stroke-width="8"/>
<path d="M 330.0 480 Q 330.0 510.0 300 510.0" fill="none" stroke="white" stroke-width="8"/>
<path d="M 330.0 480 Q 330.0 510.0 360 510.0" fill="none" stroke="white" stroke-width="8"/>
<line x1="360" y1="510.0" x2="420" y2="510.0" stroke="white" stroke-width="8"/>
<path d="M 360 510.0 Q 390.0 510.0 390.0 540" fill="none" stroke="white" stroke-width="8"/>
<line x1="420" y1="510.0" x2="480" y2="510.0" stroke="white" stroke-width="8"/>
<line x1="480" y1="510.0" x2="495.0" y2="510.0" stroke="white" stroke-width="8"/>
<circle cx="510.0" cy="510.0" r="15.0" fill="none" stroke="white" stroke-width="8"/>
<path d="M 600 510.0 Q 570.0 510.0 570.0 540" fill="none" stroke="white" stroke-width="8"/>
<path d="M 630.0 480 Q 630.0 510.0 600 510.0" fill="none" stroke="white" stroke-width="8"/>
<path d="M 630.0 480 Q 630.0 510.0 660 510.0" fill="none" stroke="white" stroke-width="8"/>
<line x1="660" y1="510.0" x2="720" y2="510.0" stroke="white" stroke-width="8"/>
<path d="M 660 510.0 Q 690.0 510.0 690.0 540" fill="none" stroke="white" stroke-width="8"/>
<line x1="720" y1="510.0" x2="780" y2="510.0" stroke="white" stroke-width="8"/>
<path d="M 780 510.0 Q 810.0 510.0 810.0 540" fill="none" stroke="white" stroke-width="8"/>
<path d="M 60 570.0 Q 30.0 570.0 30.0 600" fill="none" stroke="white" stroke-width="8"/>
<line x1="60" y1="570.0" x2="120" y2="570.0" stroke="white" stroke-width="8"/>
<line x1="120" y1="570.0" x2="180" y2="570.0" stroke="white" stroke-width="8"/>
<path d="M 180 570.0 Q 150.0 570.0 150.0 600" fill="none" stroke="white" stroke-width="8"/>
<path d="M 210.0 540 Q 210.0 570.0 180 570.0" fill="none" stroke="white" stroke-width="8"/>
<line x1="270.0" y1="540" x2="270.0" y2="555.0" stroke="white" stroke-width="8"/>
<circle cx="270.0" cy="570.0" r="15.0" fill="none" stroke="white" stroke-width="8"/>
<line x1="390.0" y1="540" x2="390.0" y2="555.0" stroke="white" stroke-width="8"/>
<circle cx="390.0" cy="570.0" r="15.0" fill="none" stroke="white" stroke-width="8"/>
<line x1="540" y1="570.0" x2="525.0" y2="570.0" stroke="white" stroke-width="8"/>
<circle cx="510.0" cy="570.0" r="15.0" fill="none" stroke="white" stroke-width="8"/>
<path d="M 570.0 540 Q 570.0 570.0 540 570.0" fill="none" stroke="white" stroke-width="8"/>
<path d="M 660 570.0 Q 630.0 570.0 630.0 600" fill="none" stroke="white" stroke-width="8"/>
<path d="M 690.0 540 Q 690.0 570.0 660 570.0" fill="none" stroke="white" stroke-width="8"/>
<path d="M 690.0 540 Q 690.0 570.0 720 570.0" fill="none" stroke="white" stroke-width="8"/>
<line x1="720" y1="570.0" x2="735.0" y2="570.0" stroke="white" stroke-width="8"/>
<circle cx="750.0" cy="570.0" r="15.0" fill="none" stroke="white" stroke-width="8"/>
<line x1="810.0" y1="540" x2="810.0" y2="600" stroke="white" stroke-width="8"/>
<path d="M 810.0 540 Q 810.0 570.0 840 570.0" fill="none" stroke="white" stroke-width="8"/>
<line x1="840" y1="570.0" x2="900" y2="570.0" stroke="white" stroke-width="8"/>
<path d="M 840 570.0 Q 870.0 570.0 870.0 600" fill="none" stroke="white" stroke-width="8"/>
<line x1="900" y1="570.0" x2="915.0" y2="570.0" stroke="white" stroke-width="8"/>
<circle cx="930.0" cy="570.0" r="15.0" fill="none" stroke="white" stroke-width="8"/>
<line x1="30.0" y1="600" x2="30.0" y2="615.0" stroke="white" stroke-width="8"/>
<circle cx="30.0" cy="630.0" r="15.0" fill="none" stroke="white" stroke-width="8"/>
<line x1="150.0" y1="600" x2="150.0" y2="660" stroke="white" stroke-width="8"/>
<line x1="600" y1="630.0" x2="585.0" y2="630.0" stroke="white" stroke-width="8"/>
<circle cx="570.0" cy="630.0" r="15.0" fill="none" stroke="white" stroke-width="8"/>
<path d="M 630.0 600 Q 630.0 630.0 600 630.0" fill="none" stroke="white" stroke-width="8"/>
<path d="M 630.0 600 Q 630.0 630.0 660 630.0" fill="none" stroke="white" stroke-width="8"/>
<path d="M 660 630.0 Q 690.0 630.0 690.0 660" fill="none" stroke="white" stroke-width="8"/>
<line x1="810.0" y1="600" x2="810.0" y2="615.0" stroke="white" stroke-width="8"/>
<circle cx="810.0" cy="630.0" r="15.0" fill="none" stroke="white" stroke-width="8"/>
<path d="M 870.0 600 Q 870.0 630.0 900 630.0" fill="none" stroke="white" stroke-width="8"/>
<line x1="900" y1="630.0" x2="915.0" y2="630.0" stroke="white" stroke-width="8"/>
<circle cx="930.0" cy="630.0" r="15.0" fill="none" stroke="white" stroke-width="8"/>
<path d="M 150.0 660 Q 150.0 690.0 180 690.0" fill="none" stroke="white" stroke-width="8"/>
<path d="M 180 690.0 Q 210.0 690.0 210.0 720" fill="none" stroke="white" stroke-width="8"/>
<line x1="540" y1="690.0" x2="525.0" y2="690.0" stroke="white" stroke-width="8"/>
<circle cx="510.0" cy="690.0" r="15.0" fill="none" stroke="white" stroke-width="8"/>
<line x1="540" y1="690.0" x2="600" y2="690.0" stroke="white" stroke-width="8"/>
<path d="M 600 690.0 Q 570.0 690.0 570.0 720" fill="none" stroke="white" stroke-width="8"/>
<line x1="600" y1="690.0" x2="660" y2="690.0" stroke="white" stroke-width="8"/>
<path d="M 660 690.0 Q 630.0 690.0 630.0 720" fill="none" stroke="white" stroke-width="8"/>
<path d="M 690.0 660 Q 690.0 690.0 660 690.0" fill="none" stroke="white" stroke-width="8"/>
<line x1="210.0" y1="720" x2="210.0" y2="735.0" stroke="white" stroke-width="8"/>
<circle cx="210.0" cy="750.0" r="15.0" fill="none" stroke="white" stroke-width="8"/>
<line x1="540" y1="750.0" x2="525.0" y2="750.0" stroke="white" stroke-width="8"/>
<circle cx="510.0" cy="750.0" r="15.0" fill="none" stroke="white" stroke-width="8"/>
<path d="M 570.0 720 Q 570.0 750.0 540 750.0" fill="none" stroke="white" stroke-width="8"/>
<line x1="630.0" y1="720" x2="630.0" y2="735.0" stroke="white" stroke-width="8"/>
<circle cx="630.0" cy="750.0" r="15.0" fill="none" stroke="white" stroke-width="8"/>
</g>
</svg>