<svg width="1280" height="980" xmlns="http://www.w3.org/2000/svg">
<g transform="translate(40, 40)">
<circle cx="630.0" cy="30.0" r="15.0" fill="white" stroke="white" stroke-width="8"/>
<line x1="630.0" y1="45.0" x2="630.0" y2="60" stroke="white" stroke-width="8"/>
<line x1="630.0" y1="60" x2="630.0" y2="120" stroke="white" stroke-width="8"/>
<line x1="630.0" y1="120" x2="630.0" y2="180" stroke="white" stroke-width="8"/>
<path d="M 540 210.0 Q 510.0 210.0 510.0 240" fill="none" stroke="white" stroke-width="8"/>
<line x1="540" y1="210.0" x2="600" y2="210.0" stroke="white" stroke-width="8"/>
<path d="M 630.0 180 Q 630.0 210.0 600 210.0" fill="none" stroke="white" stroke-width="8"/>
<path d="M 630.0 180 Q 630.0 210.0 660 210.0" fill="none" stroke="white" stroke-width="8"/>
<line x1="660" y1="210.0" x2="720" y2="210.0" stroke="white" stroke-width="8"/>
<line x1="720" y1="210.0" x2="780" y2="210.0" stroke="white" stroke-width="8"/>
<path d="M 720 210.0 Q 750.0 210.0 750.0 240" fill="none" stroke="white" stroke-width="8"/>
<line x1="780" y1="210.0" x2="795.0" y2="210.0" stroke="white" stroke-width="8"/>
<circle cx="810.0" cy="210.0" r="15.0" fill="none" stroke="white" stroke-width="8"/>
<path d="M 480 270.0 Q 450.0 270.0 450.0 300" fill="none" stroke="white" stroke-width="8"/>
<path d="M 510.0 240 Q 510.0 270.0 480 270.0" fill="none" stroke="white" stroke-width="8"/>
<path d="M 510.0 240 Q 510.0 270.0 540 270.0" fill="none" stroke="white" stroke-width="8"/>
<line x1="540" y1="270.0" x2="600" y2="270.0" stroke="white" stroke-width="8"/>
<path d="M 540 270.0 Q 570.0 270.0 570.0 300" fill="none" stroke="white" stroke-width="8"/>
<line x1="600" y1="270.0" x2="660" y2="270.0" stroke="white" stroke-width="8"/>
<path d="M 600 270.0 Q 630.0 270.0 630.0 300" fill="none" stroke="white" stroke-width="8"/>
<path d="M 660 270.0 Q 690.0 270.0 690.0 300" fill="none" stroke="white" stroke-width="8"/>
<line x1="750.0" y1="240" x2="750.0" y2="255.0" stroke="white" stroke-width="8"/>
<circle cx="750.0" cy="270.0" r="15.0" fill="none" stroke="white" stroke-width="8"/>
<line x1="120" y1="330.0" x2="105.0" y2="330.0" stroke="white" stroke-width="8"/>
<circle cx="90.0" cy="330.0" r="15.0" fill="none" stroke="white" stroke-width="8"/>
<line x1="120" y1="330.0" x2="180" y2="330.0" stroke="white" stroke-width="8"/>
<path d="M 180 330.0 Q 150.0 330.0 150.0 360" fill="none" stroke="white" stroke-width="8"/>
<line x1="180" y1="330.0" x2="240" y2="330.0" stroke="white" stroke-width="8"/>
<line x1="240" y1="330.0" x2="300" y2="330.0" stroke="white" stroke-width="8"/>
<line x1="300" y1="330.0" x2="360" y2="330.0" stroke="white" stroke-width="8"/>
<line x1="360" y1="330.0" x2="420" y2="330.0" stroke="white" stroke-width="8"/>
<path d="M 450.0 300 Q 450.0 330.0 420 330.0" fill="none" stroke="white" stroke-width="8"/>
<path d="M 540 330.0 Q 510.0 330.0 510.0 360" fill="none" stroke="white" stroke-width="8"/>
<path d="M 570.0 300 Q 570.0 330.0 540 330.0" fill="none" stroke="white" stroke-width="8"/>
<line x1="630.0" y1="300" x2="630.0" y2="315.0" stroke="white" stroke-width="8"/>
<circle cx="630.0" cy="330.0" r="15.0" fill="none" stroke="white" stroke-width="8"/>
<line x1="690.0" y1="300" x2="690.0" y2="315.0" stroke="white" stroke-width="8"/>
<circle cx="690.0" cy="330.0" r="15.0" fill="none" stroke="white" stroke-width="8"/>
<line x1="150.0" y1="360" x2="150.0" y2="375.0" stroke="white" stroke-width="8"/>
<circle cx="150.0" cy="390.0" r="15.0" fill="none" stroke="white" stroke-width="8"/>
<path d="M 240 390.0 Q 210.0 390.0 210.0 420" fill="none" stroke="white" stroke-width="8"/>
<line x1="240" y1="390.0" x2="300" y2="390.0" stroke="white" stroke-width="8"/>
<path d="M 300 390.0 Q 270.0 390.0 270.0 420" fill="none" stroke="white" stroke-width="8"/>
<line x1="300" y1="390.0" x2="360" y2="390.0" stroke="white" stroke-width="8"/>
<line x1="360" y1="390.0" x2="420" y2="390.0" stroke="white" stroke-width="8"/>
<line x1="420" y1="390.0" x2="480" y2="390.0" stroke="white" stroke-width="8"/>
<path d="M 480 390.0 Q 450.0 390.0 450.0 420" fill="none" stroke="white" stroke-width="8"/>
<path d="M 510.0 360 Q 510.0 390.0 480 390.0" fill="none" stroke="white" stroke-width="8"/>
<path d="M 510.0 360 Q 510.0 390.0 540 390.0" fill="none" stroke="white" stroke-width="8"/>
<line x1="540" y1="390.0" x2="555.0" y2="390.0" stroke="white" stroke-width="8"/>
<circle cx="570.0" cy="390.0" r="15.0" fill="none" stroke="white" stroke-width="8"/>
<line x1="210.0" y1="420" x2="210.0" y2="435.0" stroke="white" stroke-width="8"/>
<circle cx="210.0" cy="450.0" r="15.0" fill="none" stroke="white" stroke-width="8"/>
<line x1="270.0" y1="420" x2="270.0" y2="435.0" stroke="white" stroke-width="8"/>
<circle cx="270.0" cy="450.0" r="15.0" fill="none" stroke="white" stroke-width="8"/>
<path d="M 360 450.0 Q 330.0 450.0 330.0 480" fill="none" stroke="white" stroke-width="8"/>
<line x1="360" y1="450.0" x2="420" y2="450.0" stroke="white" stroke-width="8"/>
<path d="M 420 450.0 Q 390.0 450.0 390.0 480" fill="none" stroke="white" stroke-width="8"/>
<path d="M 450.0 420 Q 450.0 450.0 420 450.0" fill="none" stroke="white" stroke-width="8"/>
<line x1="240" y1="510.0" x2="225.0" y2="510.0" stroke="white" stroke-width="8"/>
<circle cx="210.0" cy="510.0" r="15.0" fill="none" stroke="white" stroke-width="8"/>
<line x1="240" y1="510.0" x2="300" y2="510.0" stroke="white" stroke-width="8"/>
<path d="M 300 510.0 Q 270.0 510.0 270.0 540" fill="none" stroke="white" stroke-width="8"/>
<path d="M 330.0 480 Q 330.0 510.0 300 510.0" fill="none" stroke="white" stroke-width="8"/>
<path d="M 390.0 480 Q 390.0 510.0 420 510.0" fill="none" stroke="white" stroke-width="8"/>
<line x1="420" y1="510.0" x2="480" y2="510.0" stroke="white" stroke-width="8"/>
<path d="M 420 510.0 Q 450.0 510.0 450.0 540" fill="none" stroke="white" stroke-width="8"/>
<line x1="480" y1="510.0" x2="495.0" y2="510.0" stroke="white" stroke-width="8"/>
<circle cx="510.0" cy="510.0" r="15.0" fill="none" stroke="white" stroke-width="8"/>
<line x1="180" y1="570.0" x2="165.0" y2="570.0" stroke="white" stroke-width="8"/>
<circle cx="150.0" cy="570.0" r="15.0" fill="none" stroke="white" stroke-width="8"/>
<line x1="180" y1="570.0" x2="240" y2="570.0" stroke="white" stroke-width="8"/>
<path d="M 240 570.0 Q 210.0 570.0 210.0 600" fill="none" stroke="white" stroke-width="8"/>
<path d="M 270.0 540 Q 270.0 570.0 240 570.0" fill="none" stroke="white" stroke-width="8"/>
<path d="M 270.0 540 Q 270.0 570.0 300 570.0" fill="none" stroke="white" stroke-width="8"/>
<line x1="300" y1="570.0" x2="315.0" y2="570.0" stroke="white" stroke-width="8"/>
<circle cx="330.0" cy="570.0" r="15.0" fill="none" stroke="white" stroke-width="8"/>
<path d="M 420 570.0 Q 390.0 570.0 390.0 600" fill="none" stroke="white" stroke-width="8"/>
<path d="M 450.0 540 Q 450.0 570.0 420 570.0" fill="none" stroke="white" stroke-width="8"/>
<line x1="180" y1="630.0" x2="165.0" y2="630.0" stroke="white" stroke-width="8"/>
<circle cx="150.0" cy="630.0" r="15.0" fill="none" stroke="white" stroke-width="8"/>
<line x1="210.0" y1="600" x2="210.0" y2="660" stroke="white" stroke-width="8"/>
<path d="M 210.0 600 Q 210.0 630.0 180 630.0" fill="none" stroke="white" stroke-width="8"/>
<line x1="300" y1="630.0" x2="285.0" y2="630.0" stroke="white" stroke-width="8"/>
<circle cx="270.0" cy="630.0" r="15.0" fill="none" stroke="white" stroke-width="8"/>
<line x1="300" y1="630.0" x2="360" y2="630.0" stroke="white" stroke-width="8"/>
<path d="M 360 630.0 Q 330.0 630.0 330.0 660" fill="none" stroke="white" stroke-width="8"/>
<path d="M 390.0 600 Q 390.0 630.0 360 630.0" fill="none" stroke="white" stroke-width="8"/>
<path d="M 390.0 600 Q 390.0 630.0 420 630.0" fill="none" stroke="white" stroke-width="8"/>
<line x1="420" y1="630.0" x2="480" y2="630.0" stroke="white" stroke-width="8"/>
<line x1="480" y1="630.0" x2="495.0" y2="630.0" stroke="white" stroke-width="8"/>
<circle cx="510.0" cy="630.0" r="15.0" fill="none" stroke="white" stroke-width="8"/>
<line x1="120" y1="690.0" x2="105.0" y2="690.0" stroke="white" stroke-width="8"/>
<circle cx="90.0" cy="690.0" r="15.0" fill="none" stroke="white" stroke-width="8"/>
<line x1="120" y1="690.0" x2="180" y2="690.0" stroke="white" stroke-width="8"/>
<path d="M 180 690.0 Q 150.0 690.0 150.0 720" fill="none" stroke="white" stroke-width="8"/>
<path d="M 210.0 660 Q 210.0 690.0 180 690.0" fill="none" stroke="white" stroke-width="8"/>
<path d="M 300 690.0 Q 270.0 690.0 270.0 720" fill="none" stroke="white" stroke-width="8"/>
<path d="M 330.0 660 Q 330.0 690.0 300 690.0" fill="none" stroke="white" stroke-width="8"/>
<path d="M 330.0 660 Q 330.0 690.0 360 690.0" fill="none" stroke="white" stroke-width="8"/>
<line x1="360" y1="690.0" x2="420" y2="690.0" stroke="white" stroke-width="8"/>
<path d="M 360 690.0 Q 390.0 690.0 390.0 720" fill="none" stroke="white" stroke-width="8"/>
<line x1="420" y1="690.0" x2="480" y2="690.0" stroke="white" stroke-width="8"/>
<path d="M 420 690.0 Q 450.0 690.0 450.0 720" fill="none" stroke="white" stroke-width="8"/>
<line x1="480" y1="690.0" x2="495.0" y2="690.0" stroke="white" stroke-width="8"/>
<circle cx="510.0" cy="690.0" r="15.0" fill="none" stroke="white" stroke-width="8"/>
<line x1="60" y1="750.0" x2="45.0" y2="750.0" stroke="white" stroke-width="8"/>
<circle cx="30.0" cy="750.0" r="15.0" fill="none" stroke="white" stroke-width="8"/>
<line x1="60" y1="750.0" x2="120" y2="750.0" stroke="white" stroke-width="8"/>
<path d="M 120 750.0 Q 90.0 750.0 90.0 780" fill="none" stroke="white" stroke-width="8"/>
<path d="M 150.0 720 Q 150.0 750.0 120 750.0" fill="none" stroke="white" stroke-width="8"/>
<path d="M 150.0 720 Q 150.0 750.0 180 750.0" fill="none" stroke="white" stroke-width="8"/>
<line x1="180" y1="750.0" x2="195.0" y2="750.0" stroke="white" stroke-width="8"/>
<circle cx="210.0" cy="750.0" r="15.0" fill="none" stroke="white" stroke-width="8"/>
<line x1="270.0" y1="720" x2="270.0" y2="735.0" stroke="white" stroke-width="8"/>
<circle cx="270.0" cy="750.0" r="15.0" fill="none" stroke="white" stroke-width="8"/>
<line x1="390.0" y1="720" x2="390.0" y2="735.0" stroke="white" stroke-width="8"/>
<circle cx="390.0" cy="750.0" r="15.0" fill="none" stroke="white" stroke-width="8"/>
<path d="M 450.0 720 Q 450.0 750.0 480 750.0" fill="none" stroke="white" stroke-width="8"/>
<line x1="480" y1="750.0" x2="540" y2="750.0" stroke="white" stroke-width="8"/>
<path d="M 480 750.0 Q 510.0 750.0 510.0 780" fill="none" stroke="white" stroke-width="8"/>
<line x1="540" y1="750.0" x2="555.0" y2="750.0" stroke="white" stroke-width="8"/>
<circle cx="570.0" cy="750.0" r="15.0" fill="none" stroke="white" stroke-width="8"/>
<line x1="90.0" y1="780" x2="90.0" y2="795.0" stroke="white" stroke-width="8"/>
<circle cx="90.0" cy="810.0" r="15.0" fill="none" stroke="white" stroke-width="8"/>
<line x1="510.0" y1="780" x2="510.0" y2="795.0" stroke="white" stroke-width="8"/>
<circle cx="510.0" cy="810.0" r="15.0" fill="none" stroke="white" stroke-width="8"/>
</g>
</svg>