<?xml version="1.0" encoding="UTF-8"?><svg xmlns="http://www.w3.org/2000/svg" xmlns:xlink="http://www.w3.org/1999/xlink" width="720.0" height="280.0" viewBox="0 0 720.0 280.0" overflow="visible"><defs><style type="text/css">@import url('https://fonts.googleapis.com/css2?family=STIX+Two+Math&amp;display=swap');text.math { font-family: 'STIX Two Math', 'STIX Two Text', 'Times New Roman', serif; text-rendering: geometricPrecision; shape-rendering: geometricPrecision; } text.mop { font-style: normal; font-weight: 400; } text.mit { font-style: italic; font-weight: 400; } text.mbin { font-style: normal; font-weight: 400; letter-spacing: 0.02em; } </style></defs><g fill="#ffffff" color="#ffffff"><g transform="translate(97.66,61.32)"><g transform="scale(1.686586)"><g transform="translate(0.00,19.35)"><g fill="#ffffff" color="#ffffff"><g transform="translate(0.000,0.000) scale(0.729167)"><rect x="3" y="3" width="18" height="2" fill="currentColor"/>
<rect x="3" y="3" width="2" height="2" fill="currentColor"/>
<rect x="19" y="3" width="2" height="2" fill="currentColor"/>
<rect x="11" y="11" width="2" height="8" fill="currentColor"/>
<rect x="7" y="19" width="10" height="2" fill="currentColor"/>
<rect x="7" y="7" width="2" height="2" fill="currentColor"/>
<rect x="5" y="5" width="2" height="2" fill="currentColor"/>
<rect x="17" y="5" width="2" height="2" fill="currentColor"/>
<rect x="15" y="7" width="2" height="2" fill="currentColor"/>
<rect x="9" y="9" width="6" height="2" fill="currentColor"/></g></g></g><g transform="translate(24.98,17.05)"><g transform="translate(2.00,0)"><text class="math mbin" x="4.42" y="11.05" text-anchor="middle" font-size="17.0" fill="#ffffff" stroke="none" dominant-baseline="middle">·</text></g></g><g transform="translate(43.49,0.00)"><g><g transform="translate(9.00,0.00)"><g transform="translate(0.00,2.30)"><g fill="#ffffff" color="#ffffff"><g transform="translate(0.000,0.000) scale(0.729167)"><rect x="6" y="2" width="12" height="2" fill="currentColor"/>
<rect x="4" y="4.00012" width="2" height="18" fill="currentColor"/>
<rect x="18" y="4.00012" width="2" height="18" fill="currentColor"/>
<rect x="16" y="20" width="2" height="2" fill="currentColor"/>
<rect x="14" y="18" width="2" height="2" fill="currentColor"/>
<rect x="6" y="20" width="2" height="2" fill="currentColor"/>
<rect x="8" y="18" width="2" height="2" fill="currentColor"/>
<rect x="10" y="16" width="4" height="2" fill="currentColor"/></g></g></g><g transform="translate(24.98,0.00)"><g transform="translate(2.00,0)"><text class="math mbin" x="4.42" y="11.05" text-anchor="middle" font-size="17.0" fill="#ffffff" stroke="none" dominant-baseline="middle">·</text></g></g><g transform="translate(43.49,2.30)"><g fill="#ffffff" color="#ffffff"><g transform="translate(0.000,0.000) scale(0.729167)"><path d="M22 10H18V12H22V10Z" fill="currentColor"/>
<path d="M24 12H22V18H24V12Z" fill="currentColor"/>
<path d="M22 18H2V20H22V18Z" fill="currentColor"/>
<path d="M2 12H0V18H2V12Z" fill="currentColor"/>
<path d="M4 10H2V12H4V10Z" fill="currentColor"/>
<path d="M8 8H4V10H8V8Z" fill="currentColor"/>
<path d="M16 4H10V6H16V4Z" fill="currentColor"/>
<path d="M10 6H8V8H10V6Z" fill="currentColor"/>
<path d="M10 10H8V12H10V10Z" fill="currentColor"/>
<path d="M18 6H16V8H18V6Z" fill="currentColor"/>
<path d="M20 8H18V12H20V8Z" fill="currentColor"/>
<path d="M18 12H16V14H18V12Z" fill="currentColor"/></g></g></g></g><line x1="0" y1="28.10" x2="78.99" y2="28.10" stroke="#ffffff" stroke-width="1.50"/><g transform="translate(9.00,35.60)"><g transform="translate(0.00,2.30)"><g fill="#ffffff" color="#ffffff"><g transform="translate(0.000,0.000) scale(0.729167)"><rect x="8" y="20" width="8" height="2" fill="currentColor"/>
<rect x="16" y="18" width="2" height="2" fill="currentColor"/>
<rect x="18" y="10" width="2" height="8" fill="currentColor"/>
<rect x="6" y="18" width="2" height="2" fill="currentColor"/>
<rect x="4" y="12" width="2" height="6" fill="currentColor"/>
<rect x="6" y="8" width="2" height="4" fill="currentColor"/>
<rect x="8" y="12" width="2" height="2" fill="currentColor"/>
<rect x="10" y="2" width="2" height="10" fill="currentColor"/>
<rect x="16" y="8" width="2" height="2" fill="currentColor"/>
<rect x="14" y="6" width="2" height="2" fill="currentColor"/>
<rect x="12" y="4" width="2" height="2" fill="currentColor"/></g></g></g><g transform="translate(24.98,0.00)"><g transform="translate(2.00,0)"><text class="math mbin" x="4.42" y="11.05" text-anchor="middle" font-size="17.0" fill="#ffffff" stroke="none" dominant-baseline="middle">·</text></g></g><g transform="translate(43.49,2.30)"><g fill="#ffffff" color="#ffffff"><g transform="translate(0.000,0.000) scale(0.729167)"><rect x="8" y="20" width="8" height="2" fill="currentColor"/>
<rect x="11" y="16" width="2" height="4" fill="currentColor"/>
<rect x="13" y="14" width="2" height="2" fill="currentColor"/>
<rect x="9" y="14" width="2" height="2" fill="currentColor"/>
<rect x="7" y="12" width="2" height="2" fill="currentColor"/>
<rect x="15" y="12" width="2" height="2" fill="currentColor"/>
<rect x="17" y="4" width="2" height="8" fill="currentColor"/>
<rect x="5" y="4" width="2" height="8" fill="currentColor"/>
<rect x="7" y="2" width="10" height="2" fill="currentColor"/></g></g></g></g></g></g><g transform="translate(131.75,17.05)"><text class="math mbin" x="3.57" y="11.05" text-anchor="middle" font-size="17.0" fill="#ffffff" stroke="none" dominant-baseline="middle">=</text></g><g transform="translate(148.16,0.00)"><g><g transform="translate(9.00,0.00)"><g transform="translate(0.00,2.30)"><g fill="#ffffff" color="#ffffff"><g transform="translate(0.000,0.000) scale(0.729167)"><rect x="1" y="18" width="2" height="4" fill="currentColor"/>
<rect x="3" y="16" width="2" height="2" fill="currentColor"/>
<rect x="5" y="14" width="6" height="2" fill="currentColor"/>
<rect x="11" y="12" width="2" height="2" fill="currentColor"/>
<rect x="5" y="18" width="4" height="2" fill="currentColor"/>
<rect x="9" y="20" width="4" height="2" fill="currentColor"/>
<rect x="13" y="18" width="4" height="2" fill="currentColor"/>
<rect x="17" y="16" width="2" height="2" fill="currentColor"/>
<rect x="19" y="8" width="2" height="8" fill="currentColor"/>
<rect x="19" y="4" width="2" height="4" fill="currentColor"/>
<rect x="17" y="2" width="2" height="2" fill="currentColor"/>
<rect x="13" y="4" width="4" height="2" fill="currentColor"/>
<rect x="7" y="6" width="6" height="2" fill="currentColor"/>
<rect x="5" y="8" width="2" height="2" fill="currentColor"/>
<rect x="3" y="10" width="2" height="4" fill="currentColor"/></g></g></g><g transform="translate(23.61,0.00)"><text class="math mbin" x="0.00" y="11.05" text-anchor="start" font-size="17.0" fill="#ffffff" stroke="none" dominant-baseline="middle">−</text></g><g transform="translate(40.45,2.30)"><g fill="#ffffff" color="#ffffff"><g transform="translate(0.000,0.000) scale(0.729167)"><rect x="9" y="3" width="2" height="2" fill="currentColor"/>
<rect x="13" y="3" width="2" height="2" fill="currentColor"/>
<rect x="11" y="5" width="2" height="14" fill="currentColor"/>
<rect x="13" y="9" width="2" height="2" fill="currentColor"/>
<rect width="2" height="2" transform="matrix(-1 0 0 1 11 9)" fill="currentColor"/>
<rect x="15" y="7" width="2" height="2" fill="currentColor"/>
<rect width="2" height="2" transform="matrix(-1 0 0 1 9 7)" fill="currentColor"/>
<rect x="17" y="5" width="5" height="2" fill="currentColor"/>
<rect width="5" height="2" transform="matrix(-1 0 0 1 7 5)" fill="currentColor"/>
<rect x="22" y="7" width="2" height="4" fill="currentColor"/>
<rect width="2" height="4" transform="matrix(-1 0 0 1 2 7)" fill="currentColor"/>
<rect x="20" y="11" width="2" height="2" fill="currentColor"/>
<rect width="2" height="2" transform="matrix(-1 0 0 1 4 11)" fill="currentColor"/>
<rect x="14" y="13" width="6" height="2" fill="currentColor"/>
<rect width="6" height="2" transform="matrix(-1 0 0 1 10 13)" fill="currentColor"/>
<rect x="16" y="13" width="2" height="6" fill="currentColor"/>
<rect width="2" height="6" transform="matrix(-1 0 0 1 8 13)" fill="currentColor"/>
<rect x="13" y="19" width="3" height="2" fill="currentColor"/>
<rect width="3" height="2" transform="matrix(-1 0 0 1 11 19)" fill="currentColor"/></g></g></g><g transform="translate(65.43,0.00)"><g transform="translate(2.00,0)"><text class="math mbin" x="4.42" y="11.05" text-anchor="middle" font-size="17.0" fill="#ffffff" stroke="none" dominant-baseline="middle">·</text></g></g><g transform="translate(83.94,0.00)"><g transform="translate(0.00,2.30)"><g fill="#ffffff" color="#ffffff"><g transform="translate(0.000,0.000) scale(0.729167)"><rect x="4" y="4" width="16" height="2" fill="currentColor"/>
<rect x="2" y="6" width="2" height="2" fill="currentColor"/>
<rect y="8" width="6" height="2" fill="currentColor"/>
<rect y="10" width="2" height="6" fill="currentColor"/>
<rect x="2" y="16" width="20" height="2" fill="currentColor"/>
<rect x="22" y="10" width="2" height="6" fill="currentColor"/>
<rect x="18" y="8" width="6" height="2" fill="currentColor"/>
<rect x="18" y="10" width="2" height="2" fill="currentColor"/>
<rect x="6" y="12" width="12" height="2" fill="currentColor"/>
<rect x="4" y="10" width="2" height="2" fill="currentColor"/>
<rect x="20" y="6" width="2" height="2" fill="currentColor"/>
<rect x="20" y="18" width="2" height="2" fill="currentColor"/>
<rect x="2" y="18" width="2" height="2" fill="currentColor"/></g></g></g><g transform="translate(24.98,0.00)"><g transform="translate(2.00,0)"><text class="math mbin" x="4.42" y="11.05" text-anchor="middle" font-size="17.0" fill="#ffffff" stroke="none" dominant-baseline="middle">·</text></g></g><g transform="translate(43.49,2.30)"><g fill="#ffffff" color="#ffffff"><g transform="translate(0.000,0.000) scale(0.729167)"><rect x="7" y="2" width="10" height="2" fill="currentColor"/>
<rect x="5" y="4" width="2" height="10" fill="currentColor"/>
<rect x="17" y="2" width="2" height="12" fill="currentColor"/>
<rect x="13" y="2" width="2" height="6" fill="currentColor"/>
<rect x="9" y="2" width="2" height="4" fill="currentColor"/>
<rect x="5" y="10" width="14" height="2" fill="currentColor"/>
<rect x="7" y="14" width="10" height="2" fill="currentColor"/>
<rect x="9" y="16" width="2" height="4" fill="currentColor"/>
<rect x="13" y="16" width="2" height="4" fill="currentColor"/>
<rect x="9" y="20" width="6" height="2" fill="currentColor"/></g></g></g></g></g><line x1="0" y1="28.10" x2="162.92" y2="28.10" stroke="#ffffff" stroke-width="1.50"/><g transform="translate(43.49,35.60)"><g><g transform="translate(9.00,0.00)"><g transform="translate(0.00,2.30)"><g fill="#ffffff" color="#ffffff"><g transform="translate(0.000,0.000) scale(0.729167)"><rect x="9" y="1" width="6" height="2" fill="currentColor"/>
<rect x="9" y="3" width="2" height="4" fill="currentColor"/>
<rect x="13" y="3" width="2" height="4" fill="currentColor"/>
<rect x="7" y="7" width="2" height="2" fill="currentColor"/>
<rect x="15" y="7" width="2" height="2" fill="currentColor"/>
<rect x="17" y="9" width="2" height="12" fill="currentColor"/>
<rect x="5" y="9" width="2" height="12" fill="currentColor"/>
<rect x="7" y="21" width="10" height="2" fill="currentColor"/>
<rect x="8" y="12" width="8" height="2" fill="currentColor"/>
<rect x="8" y="16" width="8" height="2" fill="currentColor"/>
<rect x="8" y="12" width="2" height="6" fill="currentColor"/>
<rect x="14" y="12" width="2" height="6" fill="currentColor"/></g></g></g><g transform="translate(23.61,0.00)"><text class="math mbin" x="0.00" y="11.05" text-anchor="start" font-size="17.0" fill="#ffffff" stroke="none" dominant-baseline="middle">+</text></g><g transform="translate(40.45,2.30)"><g fill="#ffffff" color="#ffffff"><g transform="translate(0.000,0.000) scale(0.729167)"><rect width="4" height="2" transform="matrix(1 0 0 -1 2 18)" fill="currentColor"/>
<rect width="4" height="2" transform="matrix(1 0 0 -1 2 12)" fill="currentColor"/>
<rect width="4" height="2" transform="matrix(1 0 0 -1 2 6)" fill="currentColor"/>
<rect width="4" height="2" transform="matrix(1 0 0 -1 6 20)" fill="currentColor"/>
<rect width="4" height="2" transform="matrix(1 0 0 -1 6 14)" fill="currentColor"/>
<rect width="4" height="2" transform="matrix(1 0 0 -1 6 8)" fill="currentColor"/>
<rect width="4" height="2" transform="matrix(1 0 0 -1 10 18)" fill="currentColor"/>
<rect width="4" height="2" transform="matrix(1 0 0 -1 10 12)" fill="currentColor"/>
<rect width="4" height="2" transform="matrix(1 0 0 -1 10 6)" fill="currentColor"/>
<rect width="4" height="2" transform="matrix(1 0 0 -1 14 20)" fill="currentColor"/>
<rect width="4" height="2" transform="matrix(1 0 0 -1 14 14)" fill="currentColor"/>
<rect width="4" height="2" transform="matrix(1 0 0 -1 14 8)" fill="currentColor"/>
<rect width="4" height="2" transform="matrix(1 0 0 -1 18 18)" fill="currentColor"/>
<rect width="4" height="2" transform="matrix(1 0 0 -1 18 12)" fill="currentColor"/>
<rect width="4" height="2" transform="matrix(1 0 0 -1 18 6)" fill="currentColor"/></g></g></g></g><line x1="0" y1="28.10" x2="75.95" y2="28.10" stroke="#ffffff" stroke-width="1.50"/><g transform="translate(9.00,35.60)"><g transform="translate(0.00,2.30)"><g fill="#ffffff" color="#ffffff"><g transform="translate(0.000,0.000) scale(0.729167)"><rect x="4" y="4" width="16" height="2" fill="currentColor"/>
<rect x="4" y="6" width="2" height="8" fill="currentColor"/>
<rect x="6" y="14" width="10" height="2" fill="currentColor"/>
<rect x="20" y="6" width="2" height="4" fill="currentColor"/>
<rect x="18" y="10" width="2" height="2" fill="currentColor"/>
<rect x="16" y="6" width="2" height="8" fill="currentColor"/>
<rect x="2" y="18" width="18" height="2" fill="currentColor"/></g></g></g><g transform="translate(23.61,0.00)"><text class="math mbin" x="0.00" y="11.05" text-anchor="start" font-size="17.0" fill="#ffffff" stroke="none" dominant-baseline="middle">−</text></g><g transform="translate(40.45,2.30)"><g fill="#ffffff" color="#ffffff"><g transform="translate(0.000,0.000) scale(0.729167)"><rect x="3" y="18" width="18" height="2" fill="currentColor"/>
<rect x="1" y="8" width="2" height="10" fill="currentColor"/>
<rect x="5" y="4" width="14" height="2" fill="currentColor"/>
<rect x="3" y="6" width="2" height="2" fill="currentColor"/>
<rect x="7" y="6" width="2" height="2" fill="currentColor"/>
<rect x="19" y="6" width="2" height="2" fill="currentColor"/>
<rect x="9" y="8" width="2" height="10" fill="currentColor"/>
<rect x="21" y="8" width="2" height="10" fill="currentColor"/>
<rect x="5" y="10" width="2" height="2" fill="currentColor"/>
<rect x="14" y="10" width="4" height="2" fill="currentColor"/>
<rect x="16" y="12" width="2" height="2" fill="currentColor"/></g></g></g></g></g></g></g></g></g></g></g></svg>