<?xml version="1.0" encoding="UTF-8"?><svg xmlns="http://www.w3.org/2000/svg" xmlns:xlink="http://www.w3.org/1999/xlink" width="720.0" height="280.0" viewBox="0 0 720.0 280.0" overflow="visible"><defs><style type="text/css">@import url('https://fonts.googleapis.com/css2?family=STIX+Two+Math&amp;display=swap');text.math { font-family: 'STIX Two Math', 'STIX Two Text', 'Times New Roman', serif; text-rendering: geometricPrecision; shape-rendering: geometricPrecision; } text.mop { font-style: normal; font-weight: 400; } text.mit { font-style: italic; font-weight: 400; } text.mbin { font-style: normal; font-weight: 400; letter-spacing: 0.02em; } </style></defs><g fill="#ffffff" color="#ffffff"><g transform="translate(36.57,69.73)"><g transform="scale(1.506400)"><g><g transform="translate(20.23,0.00)"><g><g transform="translate(29.22,0.00)"><g transform="translate(0.00,2.30)"><g fill="#ffffff" color="#ffffff"><g transform="translate(0.000,0.000) scale(0.729167)"><path d="M14 22H4V20H14V22ZM4 20H2V16H4V20ZM16 20H14V16H16V20ZM10 18H8V16H10V18ZM8 16H4V14H8V16ZM14 16H12V14H14V16ZM12 14H8V12H12V14ZM24 13H20V11H24V13ZM18 12H16V10H18V12ZM8 10H6V8H8V10ZM16 10H14V8H16V10ZM14 8H8V6H14V8ZM6 6H4V4H6V6ZM20 6H18V4H20V6ZM4 4H2V2H4V4ZM13 4H11V0H13V4ZM22 4H20V2H22V4Z" fill="currentColor"/></g></g></g><g transform="translate(24.98,0.00)"><g transform="translate(2.00,0)"><text class="math mbin" x="4.42" y="11.05" text-anchor="middle" font-size="17.0" fill="#ffffff" stroke="none" dominant-baseline="middle">·</text></g></g><g transform="translate(43.49,0.00)"><g transform="translate(0.00,2.30)"><g fill="#ffffff" color="#ffffff"><g transform="translate(0.000,0.000) scale(0.729167)"><g clip-path="url(#clip0_496_1449)">
<path d="M22 6H18V8H22V6Z" fill="currentColor"/>
<path d="M24 8H22V14H24V8Z" fill="currentColor"/>
<path d="M22 14H2V16H22V14Z" fill="currentColor"/>
<path d="M2 8H0V14H2V8Z" fill="currentColor"/>
<path d="M4 6H2V8H4V6Z" fill="currentColor"/>
<path d="M8 4H4V6H8V4Z" fill="currentColor"/>
<path d="M16 0H10V2H16V0Z" fill="currentColor"/>
<path d="M10 2H8V4H10V2Z" fill="currentColor"/>
<path d="M10 6H8V8H10V6Z" fill="currentColor"/>
<path d="M18 2H16V4H18V2Z" fill="currentColor"/>
<path d="M20 4H18V8H20V4Z" fill="currentColor"/>
<path d="M18 8H16V10H18V8Z" fill="currentColor"/>
<rect x="11" y="18" width="2" height="2" fill="currentColor"/>
<rect x="15" y="18" width="2" height="2" fill="currentColor"/>
<rect x="7" y="18" width="2" height="2" fill="currentColor"/>
<rect x="9" y="22" width="2" height="2" fill="currentColor"/>
<rect x="13" y="22" width="2" height="2" fill="currentColor"/>
<rect x="17" y="22" width="2" height="2" fill="currentColor"/>
<rect x="5" y="22" width="2" height="2" fill="currentColor"/>
</g>
<defs>
<clipPath id="clip0_496_1449">
<rect width="24" height="24" fill="white"/>
</clipPath>
</defs></g></g></g><g transform="translate(23.61,0.00)"><text class="math mbin" x="0.00" y="11.05" text-anchor="start" font-size="17.0" fill="#ffffff" stroke="none" dominant-baseline="middle">−</text></g><g transform="translate(40.45,2.30)"><g fill="#ffffff" color="#ffffff"><g transform="translate(0.000,0.000) scale(0.729167)"><rect x="1" y="20" width="22" height="2" fill="currentColor"/>
<rect x="3" y="12" width="2" height="8" fill="currentColor"/>
<rect x="5" y="10" width="14" height="2" fill="currentColor"/>
<rect x="19" y="12" width="2" height="8" fill="currentColor"/>
<rect x="11" y="7" width="2" height="3" fill="currentColor"/>
<rect x="7" y="7" width="2" height="3" fill="currentColor"/>
<rect x="15" y="7" width="2" height="3" fill="currentColor"/>
<rect x="7" y="3" width="2" height="2" fill="currentColor"/>
<rect x="11" y="3" width="2" height="2" fill="currentColor"/>
<rect x="15" y="3" width="2" height="2" fill="currentColor"/>
<rect x="5" y="14" width="2" height="2" fill="currentColor"/>
<rect x="7" y="16" width="4" height="2" fill="currentColor"/>
<rect x="11" y="14" width="6" height="2" fill="currentColor"/>
<rect x="17" y="16" width="2" height="2" fill="currentColor"/></g></g></g></g></g><line x1="0" y1="28.10" x2="159.89" y2="28.10" stroke="#ffffff" stroke-width="1.50"/><g transform="translate(9.00,35.60)"><g transform="translate(0.00,2.30)"><g fill="#ffffff" color="#ffffff"><g transform="translate(0.000,0.000) scale(0.729167)"><rect x="1" y="9" width="2" height="4" fill="currentColor"/>
<rect x="3" y="7" width="2" height="2" fill="currentColor"/>
<rect x="5" y="5" width="10" height="2" fill="currentColor"/>
<rect x="15" y="7" width="2" height="2" fill="currentColor"/>
<rect x="17" y="9" width="2" height="4" fill="currentColor"/>
<rect x="19" y="9" width="2" height="2" fill="currentColor"/>
<rect x="21" y="11" width="2" height="2" fill="currentColor"/>
<rect x="1" y="13" width="20" height="2" fill="currentColor"/>
<rect x="1" y="15" width="2" height="2" fill="currentColor"/>
<rect x="3" y="17" width="2" height="2" fill="currentColor"/>
<rect x="5" y="15" width="2" height="2" fill="currentColor"/>
<rect x="13" y="15" width="2" height="2" fill="currentColor"/>
<rect x="15" y="17" width="2" height="2" fill="currentColor"/>
<rect x="17" y="15" width="2" height="2" fill="currentColor"/>
<rect x="5" y="9" width="2" height="2" fill="currentColor"/>
<rect x="7" y="11" width="2" height="2" fill="currentColor"/>
<rect x="13" y="9" width="2" height="2" fill="currentColor"/>
<rect x="9" y="9" width="2" height="2" fill="currentColor"/>
<rect x="11" y="11" width="2" height="2" fill="currentColor"/></g></g></g><g transform="translate(23.61,0.00)"><text class="math mbin" x="0.00" y="11.05" text-anchor="start" font-size="17.0" fill="#ffffff" stroke="none" dominant-baseline="middle">+</text></g><g transform="translate(40.45,2.30)"><g fill="#ffffff" color="#ffffff"><g transform="translate(0.000,0.000) scale(0.729167)"><rect x="9" y="1" width="6" height="2" fill="currentColor"/>
<rect x="9" y="3" width="2" height="4" fill="currentColor"/>
<rect x="13" y="3" width="2" height="4" fill="currentColor"/>
<rect x="7" y="7" width="2" height="2" fill="currentColor"/>
<rect x="15" y="7" width="2" height="2" fill="currentColor"/>
<rect x="17" y="9" width="2" height="12" fill="currentColor"/>
<rect x="5" y="9" width="2" height="12" fill="currentColor"/>
<rect x="7" y="21" width="10" height="2" fill="currentColor"/>
<rect x="13" y="12" width="4" height="2" fill="currentColor"/>
<rect x="11" y="12" width="2" height="6" fill="currentColor"/>
<rect x="13" y="16" width="4" height="2" fill="currentColor"/></g></g></g><g transform="translate(64.06,0.00)"><text class="math mbin" x="0.00" y="11.05" text-anchor="start" font-size="17.0" fill="#ffffff" stroke="none" dominant-baseline="middle">+</text></g><g transform="translate(80.90,0.00)"><g transform="translate(0.00,2.30)"><g fill="#ffffff" color="#ffffff"><g transform="translate(0.000,0.000) scale(0.729167)"><g clip-path="url(#clip0_496_1719)">
<path d="M4 20H6V22H4V24H2V22H0V20H2V18H4V20ZM16 20H8V18H16V20ZM8 18H6V16H8V18ZM18 18H16V16H18V18ZM6 16H4V8H6V16ZM20 16H18V12H16V10H18V8H20V16ZM16 14H12V12H16V14ZM12 12H10V8H12V12ZM8 8H6V6H8V8ZM16 6H14V8H12V6H8V4H16V6ZM22 2H24V4H22V6H20V4H18V2H20V0H22V2Z" fill="currentColor"/>
</g>
<defs>
<clipPath id="clip0_496_1719">
<rect width="24" height="24" fill="white"/>
</clipPath>
</defs></g></g></g><g transform="translate(24.98,0.00)"><g transform="translate(2.00,0)"><text class="math mbin" x="4.42" y="11.05" text-anchor="middle" font-size="17.0" fill="#ffffff" stroke="none" dominant-baseline="middle">·</text></g></g><g transform="translate(43.49,2.30)"><g fill="#ffffff" color="#ffffff"><g transform="translate(0.000,0.000) scale(0.729167)"><rect x="11" y="8" width="3" height="2" fill="currentColor"/>
<rect x="14" y="6" width="4" height="2" fill="currentColor"/>
<rect x="18" y="8" width="2" height="3" fill="currentColor"/>
<rect x="16" y="11" width="2" height="4" fill="currentColor"/>
<rect x="18" y="15" width="2" height="5" fill="currentColor"/>
<rect x="14" y="20" width="4" height="2" fill="currentColor"/>
<rect x="11" y="18" width="3" height="2" fill="currentColor"/>
<rect x="7" y="20" width="4" height="2" fill="currentColor"/>
<rect x="5" y="18" width="2" height="2" fill="currentColor"/>
<rect x="3" y="10" width="2" height="8" fill="currentColor"/>
<rect x="5" y="8" width="2" height="2" fill="currentColor"/>
<rect x="7" y="6" width="4" height="2" fill="currentColor"/>
<rect x="12" y="3" width="2" height="2" fill="currentColor"/>
<rect x="14" y="1" width="2" height="2" fill="currentColor"/></g></g></g></g></g></g></g><line x1="0" y1="63.70" x2="200.34" y2="63.70" stroke="#ffffff" stroke-width="1.50"/><g transform="translate(9.00,71.20)"><g transform="translate(0.00,2.30)"><g fill="#ffffff" color="#ffffff"><g transform="translate(0.000,0.000) scale(0.729167)"><rect x="4" y="3" width="6" height="2" fill="currentColor"/>
<rect x="2" y="3" width="2" height="8" fill="currentColor"/>
<rect x="4" y="9" width="4" height="2" fill="currentColor"/>
<rect x="6" y="9" width="2" height="10" fill="currentColor"/>
<rect x="16" y="9" width="2" height="4" fill="currentColor"/>
<rect x="16" y="9" width="4" height="2" fill="currentColor"/>
<rect x="20" y="3" width="2" height="8" fill="currentColor"/>
<rect x="14" y="3" width="6" height="2" fill="currentColor"/>
<rect x="10" y="5" width="4" height="2" fill="currentColor"/>
<rect x="10" y="15" width="4" height="2" fill="currentColor"/>
<rect x="10" y="19" width="4" height="2" fill="currentColor"/>
<rect x="14" y="17" width="4" height="2" fill="currentColor"/>
<rect x="14" y="21" width="4" height="2" fill="currentColor"/>
<rect x="18" y="15" width="4" height="2" fill="currentColor"/>
<rect x="18" y="19" width="4" height="2" fill="currentColor"/></g></g></g><g transform="translate(24.98,0.00)"><g transform="translate(2.00,0)"><text class="math mbin" x="4.42" y="11.05" text-anchor="middle" font-size="17.0" fill="#ffffff" stroke="none" dominant-baseline="middle">·</text></g></g><g transform="translate(43.49,0.00)"><g transform="translate(0.00,2.30)"><g fill="#ffffff" color="#ffffff"><g transform="translate(0.000,0.000) scale(0.729167)"><rect x="5" y="6" width="14" height="2" fill="currentColor"/>
<rect x="3" y="8" width="2" height="12" fill="currentColor"/>
<rect x="5" y="20" width="14" height="2" fill="currentColor"/>
<rect x="19" y="8" width="2" height="12" fill="currentColor"/>
<rect x="7" y="16" width="2" height="6" fill="currentColor"/>
<rect x="15" y="16" width="2" height="6" fill="currentColor"/>
<rect x="9" y="14" width="6" height="2" fill="currentColor"/>
<rect x="7" y="10" width="10" height="2" fill="currentColor"/>
<rect x="8" y="4" width="2" height="2" fill="currentColor"/>
<rect x="14" y="4" width="2" height="2" fill="currentColor"/>
<rect x="10" y="2" width="4" height="2" fill="currentColor"/></g></g></g><g transform="translate(23.61,0.00)"><text class="math mbin" x="0.00" y="11.05" text-anchor="start" font-size="17.0" fill="#ffffff" stroke="none" dominant-baseline="middle">−</text></g><g transform="translate(40.45,2.30)"><g fill="#ffffff" color="#ffffff"><g transform="translate(0.000,0.000) scale(0.729167)"><rect x="10" y="7" width="8" height="2" fill="currentColor"/>
<rect x="18" y="9" width="2" height="2" fill="currentColor"/>
<rect x="20" y="11" width="2" height="2" fill="currentColor"/>
<rect x="18" y="13" width="2" height="2" fill="currentColor"/>
<rect x="10" y="15" width="8" height="2" fill="currentColor"/>
<rect x="2" y="7" width="2" height="10" fill="currentColor"/>
<rect x="4" y="9" width="2" height="2" fill="currentColor"/>
<rect x="4" y="13" width="2" height="2" fill="currentColor"/>
<rect x="6" y="11" width="2" height="2" fill="currentColor"/>
<rect x="8" y="9" width="2" height="2" fill="currentColor"/>
<rect x="8" y="13" width="2" height="2" fill="currentColor"/>
<rect x="14" y="11" width="2" height="2" fill="currentColor"/></g></g></g></g><g transform="translate(107.55,0.00)"><text class="math mbin" x="0.00" y="11.05" text-anchor="start" font-size="17.0" fill="#ffffff" stroke="none" dominant-baseline="middle">+</text></g><g transform="translate(124.39,0.00)"><g transform="translate(0.00,2.30)"><g fill="#ffffff" color="#ffffff"><g transform="translate(0.000,0.000) scale(0.729167)"><rect x="3" y="18" width="18" height="2" fill="currentColor"/>
<rect x="1" y="8" width="2" height="10" fill="currentColor"/>
<rect x="5" y="4" width="14" height="2" fill="currentColor"/>
<rect x="3" y="6" width="2" height="2" fill="currentColor"/>
<rect x="7" y="6" width="2" height="2" fill="currentColor"/>
<rect x="19" y="6" width="2" height="2" fill="currentColor"/>
<rect x="9" y="8" width="2" height="10" fill="currentColor"/>
<rect x="21" y="8" width="2" height="10" fill="currentColor"/>
<rect x="5" y="10" width="2" height="2" fill="currentColor"/>
<rect x="14" y="10" width="4" height="2" fill="currentColor"/>
<rect x="16" y="12" width="2" height="2" fill="currentColor"/></g></g></g><g transform="translate(23.61,0.00)"><text class="math mbin" x="0.00" y="11.05" text-anchor="start" font-size="17.0" fill="#ffffff" stroke="none" dominant-baseline="middle">−</text></g><g transform="translate(40.45,2.30)"><g fill="#ffffff" color="#ffffff"><g transform="translate(0.000,0.000) scale(0.729167)"><g clip-path="url(#clip0_496_562)">
<path d="M22 6H18V8H22V6Z" fill="currentColor"/>
<path d="M24 8H22V14H24V8Z" fill="currentColor"/>
<path d="M22 14H20V16H22V14Z" fill="currentColor"/>
<path d="M10 14H2V16H10V14Z" fill="currentColor"/>
<path d="M2 8H0V14H2V8Z" fill="currentColor"/>
<path d="M4 6H2V8H4V6Z" fill="currentColor"/>
<path d="M8 4H4V6H8V4Z" fill="currentColor"/>
<path d="M16 0H10V2H16V0Z" fill="currentColor"/>
<path d="M10 2H8V4H10V2Z" fill="currentColor"/>
<path d="M10 6H8V8H10V6Z" fill="currentColor"/>
<path d="M18 2H16V4H18V2Z" fill="currentColor"/>
<path d="M20 4H18V8H20V4Z" fill="currentColor"/>
<path d="M18 8H16V10H18V8Z" fill="currentColor"/>
<rect x="14" y="14" width="2" height="2" fill="currentColor"/>
<rect x="6" y="18" width="2" height="2" fill="currentColor"/>
<rect x="12" y="16" width="2" height="2" fill="currentColor"/>
<rect x="4" y="20" width="2" height="2" fill="currentColor"/>
<rect x="14" y="18" width="2" height="2" fill="currentColor"/>
<rect x="6" y="22" width="2" height="2" fill="currentColor"/>
<rect x="16" y="16" width="2" height="2" fill="currentColor"/>
<rect x="8" y="20" width="2" height="2" fill="currentColor"/>
<rect x="18" y="21" width="2" height="2" fill="currentColor"/>
<rect y="18" width="2" height="2" fill="currentColor"/>
<rect x="22" y="18" width="2" height="2" fill="currentColor"/>
</g>
<defs>
<clipPath id="clip0_496_562">
<rect width="24" height="24" fill="white"/>
</clipPath>
</defs></g></g></g></g></g></g><g transform="translate(209.61,52.65)"><text class="math mbin" x="3.57" y="11.05" text-anchor="middle" font-size="17.0" fill="#ffffff" stroke="none" dominant-baseline="middle">=</text></g><g transform="translate(226.03,0.00)"><g><g transform="translate(18.71,0.00)"><g><g transform="translate(9.00,0.00)"><g transform="translate(0.00,2.30)"><g fill="#ffffff" color="#ffffff"><g transform="translate(0.000,0.000) scale(0.729167)"><rect x="11" y="1" width="2" height="4" fill="currentColor"/>
<rect width="2" height="4" transform="matrix(1 0 0 -1 11 23)" fill="currentColor"/>
<rect x="9" y="5" width="2" height="4" fill="currentColor"/>
<rect width="2" height="4" transform="matrix(1 0 0 -1 9 19)" fill="currentColor"/>
<rect x="13" y="5" width="2" height="4" fill="currentColor"/>
<rect width="2" height="4" transform="matrix(1 0 0 -1 13 19)" fill="currentColor"/>
<rect x="5" y="9" width="4" height="2" fill="currentColor"/>
<rect width="4" height="2" transform="matrix(-1 0 0 1 19 9)" fill="currentColor"/>
<rect x="1" y="11" width="4" height="2" fill="currentColor"/>
<rect width="4" height="2" transform="matrix(-1 0 0 1 23 11)" fill="currentColor"/>
<rect x="5" y="13" width="4" height="2" fill="currentColor"/>
<rect width="4" height="2" transform="matrix(-1 0 0 1 19 13)" fill="currentColor"/></g></g></g><g transform="translate(24.98,0.00)"><g transform="translate(2.00,0)"><text class="math mbin" x="4.42" y="11.05" text-anchor="middle" font-size="17.0" fill="#ffffff" stroke="none" dominant-baseline="middle">·</text></g></g><g transform="translate(43.49,2.30)"><g fill="#ffffff" color="#ffffff"><g transform="translate(0.000,0.000) scale(0.729167)"><rect x="4" y="6" width="16" height="2" fill="currentColor"/>
<rect x="4" y="8" width="2" height="10" fill="currentColor"/>
<rect x="6" y="18" width="10" height="2" fill="currentColor"/>
<rect x="20" y="8" width="2" height="4" fill="currentColor"/>
<rect x="18" y="12" width="2" height="2" fill="currentColor"/>
<rect x="16" y="8" width="2" height="10" fill="currentColor"/>
<rect x="7" y="2" width="2" height="2" fill="currentColor"/>
<rect x="13" y="2" width="2" height="2" fill="currentColor"/>
<rect x="9" width="2" height="2" fill="currentColor"/>
<rect x="15" width="2" height="2" fill="currentColor"/>
<rect x="10" y="8" width="2" height="4" fill="currentColor"/>
<rect x="8" y="12" width="6" height="4" fill="currentColor"/></g></g></g></g><line x1="0" y1="28.10" x2="78.99" y2="28.10" stroke="#ffffff" stroke-width="1.50"/><g transform="translate(10.52,35.60)"><g transform="translate(0.00,2.30)"><g fill="#ffffff" color="#ffffff"><g transform="translate(0.000,0.000) scale(0.729167)"><rect x="14" y="4" width="4" height="2" fill="currentColor"/>
<rect x="10" y="2" width="4" height="2" fill="currentColor"/>
<rect x="6" y="8" width="4" height="2" fill="currentColor"/>
<rect x="6" y="18" width="4" height="2" fill="currentColor"/>
<rect x="10" y="10" width="4" height="2" fill="currentColor"/>
<rect x="10" y="20" width="4" height="2" fill="currentColor"/>
<rect x="14" y="8" width="4" height="2" fill="currentColor"/>
<rect x="14" y="18" width="4" height="2" fill="currentColor"/>
<rect x="6" y="4" width="4" height="2" fill="currentColor"/>
<rect x="2" y="6" width="4" height="2" fill="currentColor"/>
<rect x="2" y="16" width="4" height="2" fill="currentColor"/>
<rect x="18" y="6" width="4" height="2" fill="currentColor"/>
<rect x="18" y="16" width="4" height="2" fill="currentColor"/>
<rect x="2" y="6" width="2" height="12" fill="currentColor"/>
<rect x="20" y="6" width="2" height="12" fill="currentColor"/>
<rect x="12" y="12" width="2" height="8" fill="currentColor"/></g></g></g><g transform="translate(23.61,0.00)"><text class="math mbin" x="0.00" y="11.05" text-anchor="start" font-size="17.0" fill="#ffffff" stroke="none" dominant-baseline="middle">+</text></g><g transform="translate(40.45,2.30)"><g fill="#ffffff" color="#ffffff"><g transform="translate(0.000,0.000) scale(0.729167)"><rect x="8" y="18" width="8" height="2" fill="currentColor"/>
<rect x="16" y="16" width="4" height="2" fill="currentColor"/>
<rect x="16" y="20" width="4" height="2" fill="currentColor"/>
<rect x="4" y="16" width="4" height="2" fill="currentColor"/>
<rect x="4" y="20" width="4" height="2" fill="currentColor"/>
<rect x="10" y="14" width="4" height="2" fill="currentColor"/>
<rect x="14" y="12" width="2" height="2" fill="currentColor"/>
<rect x="8" y="12" width="2" height="2" fill="currentColor"/>
<rect x="6" y="8" width="2" height="4" fill="currentColor"/>
<rect x="8" y="6" width="2" height="2" fill="currentColor"/>
<rect x="10" y="4" width="2" height="2" fill="currentColor"/>
<rect x="12" y="2" width="2" height="2" fill="currentColor"/>
<rect x="14" y="4" width="2" height="4" fill="currentColor"/>
<rect x="16" y="8" width="2" height="4" fill="currentColor"/></g></g></g></g></g><g transform="translate(86.47,17.05)"><g transform="translate(2.00,0)"><text class="math mbin" x="4.42" y="11.05" text-anchor="middle" font-size="17.0" fill="#ffffff" stroke="none" dominant-baseline="middle">·</text></g></g><g transform="translate(104.97,17.05)"><g transform="translate(0.00,2.30)"><g fill="#ffffff" color="#ffffff"><g transform="translate(0.000,0.000) scale(0.729167)"><rect x="3" y="3" width="2" height="12" fill="currentColor"/>
<rect x="19" y="3" width="2" height="12" fill="currentColor"/>
<rect x="11" y="3" width="2" height="2" fill="currentColor"/>
<rect x="9" y="5" width="2" height="2" fill="currentColor"/>
<rect x="5" y="5" width="2" height="2" fill="currentColor"/>
<rect x="3" y="3" width="2" height="2" fill="currentColor"/>
<rect x="7" y="7" width="2" height="2" fill="currentColor"/>
<rect x="13" y="5" width="2" height="2" fill="currentColor"/>
<rect x="15" y="7" width="2" height="2" fill="currentColor"/>
<rect x="17" y="5" width="2" height="2" fill="currentColor"/>
<rect x="5" y="15" width="14" height="2" fill="currentColor"/>
<rect x="3" y="19" width="18" height="2" fill="currentColor"/></g></g></g><g transform="translate(24.98,0.00)"><g transform="translate(2.00,0)"><text class="math mbin" x="4.42" y="11.05" text-anchor="middle" font-size="17.0" fill="#ffffff" stroke="none" dominant-baseline="middle">·</text></g></g><g transform="translate(43.49,2.30)"><g fill="#ffffff" color="#ffffff"><g transform="translate(0.000,0.000) scale(0.729167)"><rect x="9" y="2" width="2" height="4" fill="currentColor"/>
<rect x="7" y="6" width="2" height="2" fill="currentColor"/>
<rect x="5" y="8" width="2" height="2" fill="currentColor"/>
<rect x="13" y="10" width="2" height="2" fill="currentColor"/>
<rect x="15" y="8" width="2" height="2" fill="currentColor"/>
<rect x="17" y="10" width="2" height="2" fill="currentColor"/>
<rect x="19" y="12" width="2" height="6" fill="currentColor"/>
<rect x="3" y="10" width="2" height="8" fill="currentColor"/>
<rect x="11" y="6" width="2" height="4" fill="currentColor"/>
<rect x="17" y="18" width="2" height="2" fill="currentColor"/>
<rect x="7" y="20" width="10" height="2" fill="currentColor"/>
<rect x="5" y="18" width="2" height="2" fill="currentColor"/>
<rect x="9" y="16" width="6" height="4" fill="currentColor"/>
<rect x="11" y="14" width="2" height="3" fill="currentColor"/></g></g></g></g></g><line x1="0" y1="63.70" x2="203.37" y2="63.70" stroke="#ffffff" stroke-width="1.50"/><g transform="translate(9.00,71.20)"><g transform="translate(0.00,2.30)"><g fill="#ffffff" color="#ffffff"><g transform="translate(0.000,0.000) scale(0.729167)"><rect x="2" y="18" width="7" height="2" fill="currentColor"/>
<rect x="16" y="18" width="6" height="2" fill="currentColor"/>
<rect x="4" y="6" width="2" height="12" fill="currentColor"/>
<rect x="6" y="4" width="3" height="2" fill="currentColor"/>
<rect x="17" y="6" width="2" height="12" fill="currentColor"/>
<rect x="9" y="2" width="2" height="20" fill="currentColor"/>
<rect x="11" y="20" width="4" height="2" fill="currentColor"/>
<rect x="15" y="18" width="4" height="2" fill="currentColor"/>
<rect x="15" y="4" width="4" height="2" fill="currentColor"/>
<rect x="11" y="2" width="4" height="2" fill="currentColor"/>
<rect x="12" y="10" width="2" height="2" fill="currentColor"/></g></g></g><g transform="translate(23.61,0.00)"><text class="math mbin" x="0.00" y="11.05" text-anchor="start" font-size="17.0" fill="#ffffff" stroke="none" dominant-baseline="middle">−</text></g><g transform="translate(40.45,2.30)"><g fill="#ffffff" color="#ffffff"><g transform="translate(0.000,0.000) scale(0.729167)"><rect x="1" y="8" width="2" height="12" fill="currentColor"/>
<rect x="3" y="20" width="18" height="2" fill="currentColor"/>
<rect x="21" y="8" width="2" height="12" fill="currentColor"/>
<rect x="3" y="10" width="18" height="2" fill="currentColor"/>
<rect x="5" y="2" width="2" height="8" fill="currentColor"/>
<rect x="17" y="2" width="2" height="8" fill="currentColor"/>
<rect x="7" y="4" width="10" height="2" fill="currentColor"/>
<rect x="9" y="2" width="2" height="2" fill="currentColor"/>
<rect x="13" y="2" width="2" height="2" fill="currentColor"/>
<rect x="8" y="16" width="2" height="4" fill="currentColor"/>
<rect x="10" y="14" width="4" height="2" fill="currentColor"/>
<rect x="14" y="16" width="2" height="4" fill="currentColor"/></g></g></g><g transform="translate(64.06,0.00)"><text class="math mbin" x="0.00" y="11.05" text-anchor="start" font-size="17.0" fill="#ffffff" stroke="none" dominant-baseline="middle">−</text></g><g transform="translate(80.90,0.00)"><g transform="translate(0.00,2.30)"><g fill="#ffffff" color="#ffffff"><g transform="translate(0.000,0.000) scale(0.729167)"><rect x="1" y="9" width="2" height="4" fill="currentColor"/>
<rect x="3" y="7" width="2" height="2" fill="currentColor"/>
<rect x="5" y="5" width="10" height="2" fill="currentColor"/>
<rect x="15" y="7" width="2" height="2" fill="currentColor"/>
<rect x="17" y="9" width="2" height="4" fill="currentColor"/>
<rect x="19" y="9" width="2" height="2" fill="currentColor"/>
<rect x="21" y="11" width="2" height="2" fill="currentColor"/>
<rect x="1" y="13" width="20" height="2" fill="currentColor"/>
<rect x="1" y="15" width="2" height="2" fill="currentColor"/>
<rect x="3" y="17" width="2" height="2" fill="currentColor"/>
<rect x="5" y="15" width="2" height="2" fill="currentColor"/>
<rect x="13" y="15" width="2" height="2" fill="currentColor"/>
<rect x="15" y="17" width="2" height="2" fill="currentColor"/>
<rect x="17" y="15" width="2" height="2" fill="currentColor"/>
<rect x="5" y="9" width="2" height="2" fill="currentColor"/>
<rect x="7" y="11" width="2" height="2" fill="currentColor"/>
<rect x="13" y="9" width="2" height="2" fill="currentColor"/>
<rect x="9" y="9" width="2" height="2" fill="currentColor"/>
<rect x="11" y="11" width="2" height="2" fill="currentColor"/></g></g></g><g transform="translate(24.98,0.00)"><g transform="translate(2.00,0)"><text class="math mbin" x="4.42" y="11.05" text-anchor="middle" font-size="17.0" fill="#ffffff" stroke="none" dominant-baseline="middle">·</text></g></g><g transform="translate(43.49,0.00)"><g transform="translate(0.00,2.30)"><g fill="#ffffff" color="#ffffff"><g transform="translate(0.000,0.000) scale(0.729167)"><rect x="10" y="2" width="2" height="2" fill="currentColor"/>
<rect x="8" y="4" width="2" height="2" fill="currentColor"/>
<rect width="2" height="2" transform="matrix(-1 0 0 1 14 4)" fill="currentColor"/>
<rect x="4" y="8" width="2" height="4" fill="currentColor"/>
<rect width="2" height="4" transform="matrix(-1 0 0 1 18 8)" fill="currentColor"/>
<rect x="2" y="12" width="2" height="6" fill="currentColor"/>
<rect width="2" height="6" transform="matrix(-1 0 0 1 20 12)" fill="currentColor"/>
<rect x="6" y="20" width="10" height="2" fill="currentColor"/>
<rect x="6" y="6" width="2" height="2" fill="currentColor"/>
<rect x="14" y="6" width="2" height="2" fill="currentColor"/>
<rect x="4" y="18" width="2" height="2" fill="currentColor"/>
<rect x="16" y="18" width="2" height="2" fill="currentColor"/>
<rect x="6" y="16" width="2" height="2" fill="currentColor"/>
<rect x="8" y="14" width="2" height="2" fill="currentColor"/>
<rect x="10" y="12" width="2" height="2" fill="currentColor"/>
<rect x="12" y="14" width="2" height="2" fill="currentColor"/>
<rect x="14" y="16" width="2" height="2" fill="currentColor"/></g></g></g><g transform="translate(24.98,0.00)"><g transform="translate(2.00,0)"><text class="math mbin" x="4.42" y="11.05" text-anchor="middle" font-size="17.0" fill="#ffffff" stroke="none" dominant-baseline="middle">·</text></g></g><g transform="translate(43.49,2.30)"><g fill="#ffffff" color="#ffffff"><g transform="translate(0.000,0.000) scale(0.729167)"><rect x="2" y="12" width="20" height="2" fill="currentColor"/>
<rect x="2" y="10" width="2" height="2" fill="currentColor"/>
<rect x="2" y="8" width="2" height="2" fill="currentColor"/>
<rect x="4" y="6" width="2" height="2" fill="currentColor"/>
<rect x="20" y="10" width="2" height="2" fill="currentColor"/>
<rect x="20" y="8" width="2" height="2" fill="currentColor"/>
<rect x="18" y="6" width="2" height="2" fill="currentColor"/>
<rect x="16" y="4" width="2" height="2" fill="currentColor"/>
<rect x="6" y="4" width="2" height="2" fill="currentColor"/>
<rect x="8" y="2" width="8" height="2" fill="currentColor"/>
<rect x="7" y="20" width="10" height="2" fill="currentColor"/>
<rect x="7" y="18" width="2" height="2" fill="currentColor"/>
<rect x="9" y="16" width="6" height="2" fill="currentColor"/>
<rect x="15" y="18" width="2" height="2" fill="currentColor"/>
<rect x="11" y="12" width="2" height="4" fill="currentColor"/></g></g></g></g></g></g></g></g></g></g></g></svg>