<?xml version="1.0" encoding="UTF-8"?><svg xmlns="http://www.w3.org/2000/svg" xmlns:xlink="http://www.w3.org/1999/xlink" width="720.0" height="280.0" viewBox="0 0 720.0 280.0" overflow="visible"><defs><style type="text/css">@import url('https://fonts.googleapis.com/css2?family=STIX+Two+Math&amp;display=swap');text.math { font-family: 'STIX Two Math', 'STIX Two Text', 'Times New Roman', serif; text-rendering: geometricPrecision; shape-rendering: geometricPrecision; } text.mop { font-style: normal; font-weight: 400; } text.mit { font-style: italic; font-weight: 400; } text.mbin { font-style: normal; font-weight: 400; letter-spacing: 0.02em; } </style></defs><g fill="#ffffff" color="#ffffff"><g transform="translate(85.63,91.66)"><g transform="scale(1.675718)"><g transform="translate(0.00,17.05)"><g transform="translate(0.00,2.30)"><g fill="#ffffff" color="#ffffff"><g transform="translate(0.000,0.000) scale(0.729167)"><path d="M13 22H11V20H13V22ZM11 20H9V18H11V20ZM15 20H13V18H15V20ZM9 18H7V16H9V18ZM17 18H15V16H17V18ZM7 16H5V14H7V16ZM19 16H17V14H19V16ZM5 14H3V12H5V14ZM21 14H19V12H21V14ZM3 12H1V6H3V12ZM23 12H21V6H23V12ZM13 8H11V6H13V8ZM5 6H3V4H5V6ZM11 6H9V4H11V6ZM15 6H13V4H15V6ZM21 6H19V4H21V6ZM9 4H5V2H9V4ZM19 4H15V2H19V4Z" fill="currentColor"/></g></g></g><g transform="translate(23.61,0.00)"><text class="math mbin" x="0.00" y="11.05" text-anchor="start" font-size="17.0" fill="#ffffff" stroke="none" dominant-baseline="middle">−</text></g><g transform="translate(40.45,0.00)"><g transform="translate(0.00,2.30)"><g fill="#ffffff" color="#ffffff"><g transform="translate(0.000,0.000) scale(0.729167)"><rect x="4" y="20" width="10" height="2" fill="currentColor"/>
<rect x="20" y="10" width="2" height="4" fill="currentColor"/>
<rect x="2" y="10" width="2" height="10" fill="currentColor"/>
<rect x="4" y="8" width="2" height="2" fill="currentColor"/>
<rect x="6" y="6" width="2" height="2" fill="currentColor"/>
<rect x="8" y="4" width="2" height="2" fill="currentColor"/>
<rect x="10" y="2" width="4" height="2" fill="currentColor"/>
<rect x="14" y="4" width="2" height="2" fill="currentColor"/>
<rect x="16" y="6" width="2" height="2" fill="currentColor"/>
<rect x="18" y="8" width="2" height="2" fill="currentColor"/>
<rect x="8" y="14" width="2" height="6" fill="currentColor"/>
<rect x="10" y="12" width="4" height="2" fill="currentColor"/>
<rect x="14" y="14" width="2" height="2" fill="currentColor"/>
<rect x="18" y="16" width="2" height="6" fill="currentColor"/>
<rect x="16" y="18" width="6" height="2" fill="currentColor"/></g></g></g><g transform="translate(24.98,0.00)"><g transform="translate(2.00,0)"><text class="math mbin" x="4.42" y="11.05" text-anchor="middle" font-size="17.0" fill="#ffffff" stroke="none" dominant-baseline="middle">·</text></g></g><g transform="translate(43.49,2.30)"><g fill="#ffffff" color="#ffffff"><g transform="translate(0.000,0.000) scale(0.729167)"><path d="M3 19H5V17H19V19H21V17H23V11H21V15H3V11H1V17H3V19ZM5 21H19V19H5V21ZM3 11H7V7H5V5H3V11ZM9 13H11V11H9V13ZM13 13H15V11H13V13ZM5 5H9V3H5V5ZM9 7H15V5H9V7ZM17 11H21V5H19V7H17V11ZM15 5H19V3H15V5Z" fill="currentColor"/></g></g></g></g><g transform="translate(107.55,0.00)"><text class="math mbin" x="0.00" y="11.05" text-anchor="start" font-size="17.0" fill="#ffffff" stroke="none" dominant-baseline="middle">+</text></g><g transform="translate(124.39,2.30)"><g fill="#ffffff" color="#ffffff"><g transform="translate(0.000,0.000) scale(0.729167)"><g clip-path="url(#clip0_496_1449)">
<path d="M22 6H18V8H22V6Z" fill="currentColor"/>
<path d="M24 8H22V14H24V8Z" fill="currentColor"/>
<path d="M22 14H2V16H22V14Z" fill="currentColor"/>
<path d="M2 8H0V14H2V8Z" fill="currentColor"/>
<path d="M4 6H2V8H4V6Z" fill="currentColor"/>
<path d="M8 4H4V6H8V4Z" fill="currentColor"/>
<path d="M16 0H10V2H16V0Z" fill="currentColor"/>
<path d="M10 2H8V4H10V2Z" fill="currentColor"/>
<path d="M10 6H8V8H10V6Z" fill="currentColor"/>
<path d="M18 2H16V4H18V2Z" fill="currentColor"/>
<path d="M20 4H18V8H20V4Z" fill="currentColor"/>
<path d="M18 8H16V10H18V8Z" fill="currentColor"/>
<rect x="11" y="18" width="2" height="2" fill="currentColor"/>
<rect x="15" y="18" width="2" height="2" fill="currentColor"/>
<rect x="7" y="18" width="2" height="2" fill="currentColor"/>
<rect x="9" y="22" width="2" height="2" fill="currentColor"/>
<rect x="13" y="22" width="2" height="2" fill="currentColor"/>
<rect x="17" y="22" width="2" height="2" fill="currentColor"/>
<rect x="5" y="22" width="2" height="2" fill="currentColor"/>
</g>
<defs>
<clipPath id="clip0_496_1449">
<rect width="24" height="24" fill="white"/>
</clipPath>
</defs></g></g></g></g><g transform="translate(151.16,17.05)"><text class="math mbin" x="3.57" y="11.05" text-anchor="middle" font-size="17.0" fill="#ffffff" stroke="none" dominant-baseline="middle">=</text></g><g transform="translate(167.58,0.00)"><g><g transform="translate(29.22,0.00)"><g transform="translate(0.00,2.30)"><g fill="#ffffff" color="#ffffff"><g transform="translate(0.000,0.000) scale(0.729167)"><rect x="2" y="6" width="20" height="2" fill="currentColor"/>
<rect x="2" y="8" width="2" height="6" fill="currentColor"/>
<rect x="7" y="8" width="2" height="6" fill="currentColor"/>
<rect x="4" y="14" width="2" height="6" fill="currentColor"/>
<rect x="9" y="14" width="2" height="6" fill="currentColor"/>
<rect x="20" y="8" width="2" height="6" fill="currentColor"/>
<rect x="15" y="8" width="2" height="6" fill="currentColor"/>
<rect x="18" y="14" width="2" height="6" fill="currentColor"/>
<rect x="13" y="14" width="2" height="6" fill="currentColor"/>
<rect x="6" y="20" width="12" height="2" fill="currentColor"/>
<rect x="4" y="4" width="2" height="2" fill="currentColor"/>
<rect x="9" y="4" width="2" height="2" fill="currentColor"/>
<rect x="13" y="4" width="2" height="2" fill="currentColor"/>
<rect x="18" y="4" width="2" height="2" fill="currentColor"/>
<rect x="6" y="2" width="3" height="2" fill="currentColor"/>
<rect x="11" y="2" width="2" height="2" fill="currentColor"/>
<rect x="15" y="2" width="3" height="2" fill="currentColor"/></g></g></g><g transform="translate(24.98,0.00)"><g transform="translate(2.00,0)"><text class="math mbin" x="4.42" y="11.05" text-anchor="middle" font-size="17.0" fill="#ffffff" stroke="none" dominant-baseline="middle">·</text></g></g><g transform="translate(43.49,0.00)"><g transform="translate(0.00,2.30)"><g fill="#ffffff" color="#ffffff"><g transform="translate(0.000,0.000) scale(0.729167)"><rect x="2" y="6" width="20" height="2" fill="currentColor"/>
<rect x="2" y="8" width="2" height="6" fill="currentColor"/>
<rect x="7" y="8" width="2" height="6" fill="currentColor"/>
<rect x="4" y="14" width="2" height="6" fill="currentColor"/>
<rect x="9" y="14" width="2" height="6" fill="currentColor"/>
<rect x="20" y="8" width="2" height="6" fill="currentColor"/>
<rect x="15" y="8" width="2" height="6" fill="currentColor"/>
<rect x="18" y="14" width="2" height="6" fill="currentColor"/>
<rect x="13" y="14" width="2" height="6" fill="currentColor"/>
<rect x="6" y="20" width="12" height="2" fill="currentColor"/>
<rect x="4" y="4" width="2" height="2" fill="currentColor"/>
<rect x="9" y="4" width="2" height="2" fill="currentColor"/>
<rect x="13" y="4" width="2" height="2" fill="currentColor"/>
<rect x="18" y="4" width="2" height="2" fill="currentColor"/>
<rect x="6" y="2" width="3" height="2" fill="currentColor"/>
<rect x="11" y="2" width="2" height="2" fill="currentColor"/>
<rect x="15" y="2" width="3" height="2" fill="currentColor"/></g></g></g><g transform="translate(23.61,0.00)"><text class="math mbin" x="0.00" y="11.05" text-anchor="start" font-size="17.0" fill="#ffffff" stroke="none" dominant-baseline="middle">−</text></g><g transform="translate(40.45,2.30)"><g fill="#ffffff" color="#ffffff"><g transform="translate(0.000,0.000) scale(0.729167)"><rect x="5" y="5" width="2" height="6" fill="currentColor"/>
<rect x="5" y="15" width="2" height="5" fill="currentColor"/>
<rect x="13" y="5" width="2" height="6" fill="currentColor"/>
<rect x="13" y="15" width="2" height="5" fill="currentColor"/>
<rect x="5" y="19" width="6" height="2" fill="currentColor"/>
<rect x="13" y="19" width="6" height="2" fill="currentColor"/>
<rect x="9" y="5" width="2" height="6" fill="currentColor"/>
<rect x="9" y="15" width="2" height="5" fill="currentColor"/>
<rect x="17" y="5" width="2" height="6" fill="currentColor"/>
<rect x="17" y="15" width="2" height="5" fill="currentColor"/>
<rect x="7" y="3" width="2" height="2" fill="currentColor"/>
<rect x="15" y="3" width="2" height="2" fill="currentColor"/>
<rect x="3" y="11" width="18" height="2" fill="currentColor"/>
<rect x="3" y="15" width="18" height="2" fill="currentColor"/>
<rect x="1" y="13" width="2" height="2" fill="currentColor"/>
<rect x="21" y="13" width="2" height="2" fill="currentColor"/></g></g></g></g></g><line x1="0" y1="28.10" x2="159.89" y2="28.10" stroke="#ffffff" stroke-width="1.50"/><g transform="translate(9.00,35.60)"><g transform="translate(0.00,2.30)"><g fill="#ffffff" color="#ffffff"><g transform="translate(0.000,0.000) scale(0.729167)"><rect x="20" y="9" width="2" height="6" fill="currentColor"/>
<rect x="18" y="7" width="2" height="2" fill="currentColor"/>
<rect x="18" y="15" width="2" height="2" fill="currentColor"/>
<rect x="12" y="17" width="6" height="2" fill="currentColor"/>
<rect x="12" y="5" width="6" height="2" fill="currentColor"/>
<rect x="2" y="7" width="2" height="10" fill="currentColor"/>
<rect x="4" y="9" width="2" height="2" fill="currentColor"/>
<rect x="4" y="13" width="2" height="2" fill="currentColor"/>
<rect x="6" y="11" width="2" height="2" fill="currentColor"/>
<rect x="8" y="9" width="2" height="2" fill="currentColor"/>
<rect x="8" y="13" width="2" height="2" fill="currentColor"/>
<rect x="10" y="15" width="2" height="2" fill="currentColor"/>
<rect x="10" y="7" width="2" height="2" fill="currentColor"/>
<rect x="15" y="10" width="2" height="2" fill="currentColor"/></g></g></g><g transform="translate(23.61,0.00)"><text class="math mbin" x="0.00" y="11.05" text-anchor="start" font-size="17.0" fill="#ffffff" stroke="none" dominant-baseline="middle">−</text></g><g transform="translate(40.45,2.30)"><g fill="#ffffff" color="#ffffff"><g transform="translate(0.000,0.000) scale(0.729167)"><rect x="2" y="20" width="2" height="2" fill="currentColor"/>
<rect x="8" y="18" width="6" height="2" fill="currentColor"/>
<rect x="6" y="16" width="2" height="2" fill="currentColor"/>
<rect x="4" y="18" width="2" height="2" fill="currentColor"/>
<rect x="8" y="14" width="2" height="2" fill="currentColor"/>
<rect x="10" y="12" width="2" height="2" fill="currentColor"/>
<rect x="12" y="10" width="2" height="2" fill="currentColor"/>
<rect x="14" y="8" width="2" height="2" fill="currentColor"/>
<rect x="14" y="16" width="2" height="2" fill="currentColor"/>
<rect x="16" y="14" width="2" height="2" fill="currentColor"/>
<rect x="18" y="12" width="2" height="2" fill="currentColor"/>
<rect x="20" y="6" width="2" height="6" fill="currentColor"/>
<rect x="18" y="4" width="2" height="2" fill="currentColor"/>
<rect x="4" y="10" width="2" height="6" fill="currentColor"/>
<rect x="6" y="8" width="2" height="2" fill="currentColor"/>
<rect x="8" y="6" width="2" height="2" fill="currentColor"/>
<rect x="10" y="4" width="2" height="2" fill="currentColor"/>
<rect x="12" y="2" width="6" height="2" fill="currentColor"/></g></g></g><g transform="translate(65.43,0.00)"><g transform="translate(2.00,0)"><text class="math mbin" x="4.42" y="11.05" text-anchor="middle" font-size="17.0" fill="#ffffff" stroke="none" dominant-baseline="middle">·</text></g></g><g transform="translate(83.94,0.00)"><g transform="translate(0.00,2.30)"><g fill="#ffffff" color="#ffffff"><g transform="translate(0.000,0.000) scale(0.729167)"><rect x="11" y="2" width="2" height="2" fill="currentColor"/>
<rect x="9" y="4" width="2" height="4" fill="currentColor"/>
<rect x="13" y="4" width="2" height="4" fill="currentColor"/>
<rect x="3" y="8" width="6" height="2" fill="currentColor"/>
<rect x="1" y="10" width="2" height="2" fill="currentColor"/>
<rect x="3" y="12" width="2" height="2" fill="currentColor"/>
<rect x="19" y="12" width="2" height="2" fill="currentColor"/>
<rect x="21" y="10" width="2" height="2" fill="currentColor"/>
<rect x="15" y="8" width="6" height="2" fill="currentColor"/>
<rect x="5" y="14" width="2" height="6" fill="currentColor"/>
<rect x="7" y="20" width="2" height="2" fill="currentColor"/>
<rect x="9" y="18" width="2" height="2" fill="currentColor"/>
<rect x="11" y="16" width="2" height="2" fill="currentColor"/>
<rect x="13" y="18" width="2" height="2" fill="currentColor"/>
<rect x="15" y="20" width="2" height="2" fill="currentColor"/>
<rect x="17" y="14" width="2" height="6" fill="currentColor"/></g></g></g><g transform="translate(23.61,0.00)"><text class="math mbin" x="0.00" y="11.05" text-anchor="start" font-size="17.0" fill="#ffffff" stroke="none" dominant-baseline="middle">+</text></g><g transform="translate(40.45,2.30)"><g fill="#ffffff" color="#ffffff"><g transform="translate(0.000,0.000) scale(0.729167)"><rect x="6" y="2" width="12" height="2" fill="currentColor"/>
<rect x="6" y="20" width="12" height="2" fill="currentColor"/>
<rect x="4" y="4" width="2" height="16" fill="currentColor"/>
<rect x="18" y="4" width="2" height="16" fill="currentColor"/>
<rect x="8" y="2" width="2" height="10" fill="currentColor"/>
<rect x="12" y="2" width="2" height="10" fill="currentColor"/>
<rect x="10" y="2" width="2" height="8" fill="currentColor"/></g></g></g></g></g></g></g></g></g></g></svg>